<svg width="375" height="145" viewBox="0 0 375 145" fill="none" xmlns="http://www.w3.org/2000/svg">
<path d="M328.772 121.373V96.261H324.651V85.5575H322.181V78.374H312.532V85.5575H310.062V96.261H305.947V109.863L304.051 110.024L303.477 69.7204H290.771V91.1632L286.301 91.3246V57.8098H284.772V50.7398H271.363V57.8098V102.584H247.602V85.0854L233.416 85.5396V71.7583H224.44V63.6127H213.856V51.8275H210.799V46.0784H204.091V86.4121H196.766V92.4601H193.825V85.5157L159.021 85.0675V112.666L157.724 112.69H156.08V88.8683H153.725V81.9837H150.32V61.8856H145.379V81.9837H141.967V88.8683H139.613V102.948H136.794V57.7918H135.266V50.7159H121.856V57.7918H120.328V91.3007L115.858 91.1393V69.7025H103.158L102.59 110.006L100.694 109.845V96.2371H96.5729V85.5396H94.1087V78.3501H84.4661V85.5396H81.9958V96.2371H77.8807V121.349L74.3526 121.194V96.2849H62.5577V123.525H55.3547V111.704H46.6477V138.25H45.9995V139.559L143.477 139.738L322.695 140.079L328.999 140.061V121.798L328.772 121.373Z" fill="#D9EBF9"></path>
<path d="M277.633 125.757C309.995 124.791 356.12 136.58 362.935 138.515C367.835 139.906 371.531 142.092 371.531 142.092L374.998 144.08H371.743H369.139H16.4057H-0.000488281C-0.000488281 144.08 -0.000488281 143.483 1.56242 141.099C3.12533 138.714 11.2807 125.873 23.9143 126.394C62.4273 127.979 101.484 141.224 139.126 129.447C151.043 125.719 162.517 119.536 174.478 116.09C185.666 112.868 197.255 112.088 208.524 114.454C219.979 116.858 230.962 122.454 242.426 124.785C254.041 127.146 265.877 126.107 277.633 125.757Z" fill="#C6E7E3"></path>
<path fill-rule="evenodd" clip-rule="evenodd" d="M43.3086 13.5328C41.4202 12.5826 39.3684 12.0251 37.2667 11.899C35.1695 11.773 33.0633 12.0784 31.0841 12.8008C29.1049 13.5231 27.2756 14.6381 25.7186 16.0925C24.1616 17.5469 22.8996 19.3018 22.0054 21.2653L105.893 20.795C104.613 18.594 102.924 16.6743 100.922 15.1472C98.9204 13.6201 96.6462 12.5147 94.2312 11.8893C91.8163 11.2688 89.3015 11.1428 86.8411 11.5209C84.3763 11.899 82.0113 12.7717 79.8732 14.0952C78.7112 10.0714 76.3325 6.53723 73.0823 4.00176C69.8321 1.4663 65.8829 0.0652439 61.8065 0.00222077C57.7302 -0.0608023 53.7401 1.21905 50.4173 3.65271C47.0945 6.08638 44.616 9.5478 43.3359 13.5328" fill="white"></path>
<path fill-rule="evenodd" clip-rule="evenodd" d="M87.9033 45.8949C87.9655 45.8951 88.0308 45.8974 88.089 45.9036C88.2731 45.9236 88.3323 46.0294 88.3323 46.0294C88.3323 46.0294 88.0709 46.1478 87.8956 46.2332C87.8835 46.2447 87.8743 46.2504 87.8743 46.2504L87.8738 46.252L87.8698 46.2647C87.8523 46.3204 87.7829 46.5314 87.6666 46.7801C87.9667 46.8619 88.3324 46.8978 88.7503 46.8177C89.5276 46.6689 90.9882 48.8749 91.942 50.4881C92.4814 51.4004 92.8586 52.1229 92.8586 52.1229C92.8586 52.1229 92.8544 52.126 92.8461 52.1307L92.8363 52.1359C92.7224 52.193 92.1681 52.3714 91.0758 51.1945C90.5805 50.6608 90.2026 50.2058 89.8913 49.853C89.425 49.3251 89.1078 49.0265 88.7681 49.0348C88.2007 49.0482 86.6458 48.5031 86.1606 48.0644L86.189 48.0889C85.7599 48.2792 85.3598 48.438 85.2957 48.5511C85.1731 48.7674 84.8511 49.5443 84.8511 49.5443L84.8254 49.5443C84.6616 49.5421 83.7617 49.4937 83.4289 48.7084C83.4289 48.7084 84.5291 48.0004 84.6901 47.6759C84.7243 47.6069 84.7992 47.4972 84.9058 47.3647C84.4471 47.0331 83.6843 46.242 83.4332 45.8483C83.2297 45.5293 82.7833 45.4352 82.0458 45.3357C81.6174 45.2779 81.0908 45.218 80.4564 45.111C78.8038 44.8323 78.7186 44.162 78.7143 44.1058L78.7141 44.102C78.7141 44.102 79.5061 43.9999 80.5345 43.9304C80.9942 43.8993 81.5011 43.8747 82.0057 43.8687L82.1569 43.8675L82.3078 43.8674C83.6371 43.8725 84.8801 44.0248 85.1135 44.5484C85.4735 45.356 86.121 45.8147 86.5077 46.029C86.6466 45.9627 86.7869 45.9101 86.9262 45.8763C86.9262 45.8763 87.0932 45.7681 87.2064 45.709C87.3087 45.6558 87.7021 45.7307 87.8656 45.895L87.9033 45.8949Z" fill="#6880BD"></path>
<path fill-rule="evenodd" clip-rule="evenodd" d="M294.417 39.8935C292.495 38.8789 290.404 38.2866 288.267 38.1511C286.13 38.0156 283.989 38.3398 281.969 39.1045C279.95 39.8693 278.093 41.0594 276.506 42.6052C274.919 44.151 273.635 46.0214 272.729 48.107L358.132 47.618C356.829 45.2751 355.109 43.2317 353.07 41.6049C351.032 39.9782 348.714 38.8 346.251 38.1379C343.788 37.4758 341.228 37.3429 338.717 37.7467C336.206 38.1506 333.794 39.0832 331.619 40.4912C330.435 36.2136 328.012 32.4538 324.703 29.759C321.395 27.0642 317.372 25.5751 313.222 25.5084C309.071 25.4418 305.01 26.801 301.627 29.3883C298.245 31.9755 295.719 35.6558 294.417 39.8935Z" fill="white"></path>
<path fill-rule="evenodd" clip-rule="evenodd" d="M302.64 7.64486C302.725 7.78175 303.196 8.12572 303.775 8.55208C304.003 8.72041 304.248 8.90159 304.493 9.08794L304.605 9.17429C305.393 9.7809 306.148 10.4291 306.288 10.8598C306.32 10.9584 306.357 11.0581 306.399 11.1577C306.481 11.0939 306.568 11.0272 306.654 10.9607L306.725 10.9063C306.925 10.7528 307.12 10.6047 307.261 10.4997C307.484 10.3332 307.849 9.7049 308.159 9.11762C308.44 8.58462 308.676 8.08521 308.718 7.99492L308.724 7.98412C308.725 7.98169 308.725 7.98044 308.725 7.98044C308.725 7.98044 308.727 7.98399 308.73 7.99083L308.744 8.02097C308.851 8.25356 309.377 9.43354 309.39 10.1493C309.392 10.2948 309.374 10.4211 309.327 10.5164C309.018 11.1337 308.108 11.4006 307.892 11.9845C307.822 12.175 307.767 12.3425 307.726 12.4816C307.958 12.4719 308.136 12.4761 308.232 12.5012C308.872 12.668 308.841 12.9613 308.847 12.9355C308.847 12.9355 309.002 13.1193 309.148 13.2001C309.293 13.2811 309.39 13.5778 309.39 13.5778C309.284 13.5442 309.008 13.3605 308.801 13.3534C308.592 13.533 307.957 13.666 306.743 13.8088C305.025 14.0109 303.918 13.4609 303.729 13.3711C303.54 13.2813 303.204 13.5732 302.832 13.517C302.459 13.4609 302.5 12.8435 302.546 12.6303C302.592 12.417 303.225 12.7313 303.908 12.8015C304.026 12.8137 304.218 12.8083 304.457 12.7919C304.325 12.3822 304.211 11.6576 303.818 11.109C303.752 11.0172 303.682 10.8929 303.61 10.7457V10.7454C303.455 10.4289 303.291 10.0071 303.142 9.57589L303.109 9.47995C302.76 8.45568 302.501 7.41825 302.64 7.64486Z" fill="#6880BD"></path>
<path d="M-0.000488281 144.069C-0.000488281 144.069 35.9136 138.175 99.3826 140.04C164.425 141.914 253.266 140.369 253.266 140.369L253.417 142.104L252.666 142.682L250.562 143.491L248.459 144.07H-0.000488281V144.069Z" fill="#E5F1FF"></path>
<path d="M44.9233 144.077H375C365.633 138.472 328.163 135.246 283.332 136.581C277.894 136.743 272.917 137.042 268.356 137.44L268.36 137.438C268.293 137.444 268.228 137.45 268.163 137.456C267.983 137.472 267.804 137.488 267.626 137.504C240.446 140.03 188.415 136.868 186.26 136.518C161.577 132.483 160.589 134.926 113.616 136.46C68.3694 137.937 45.2184 141.603 44.9233 144.077Z" fill="#62B8AB"></path>
<path fill-rule="evenodd" clip-rule="evenodd" d="M335.431 128.938C332.222 128.938 329.425 130.808 327.895 133.592L327.83 133.588C323.26 133.588 319.509 137.372 319.097 142.204H343.488C343.945 141.05 344.203 139.78 344.203 138.444C344.203 133.194 340.274 128.938 335.431 128.938Z" fill="#45A698"></path>
<path fill-rule="evenodd" clip-rule="evenodd" d="M345.238 133.681C347.683 133.681 349.77 135.365 350.599 137.733C351.043 137.543 351.522 137.435 352.026 137.435C353.469 137.435 354.722 138.291 355.41 139.564C356.049 139.068 356.828 138.775 357.667 138.775C359.563 138.775 361.146 140.248 361.515 142.208H339.862C339.627 141.518 339.492 140.773 339.492 139.992C339.492 136.507 342.063 133.681 345.238 133.681Z" fill="#45A698"></path>
<path fill-rule="evenodd" clip-rule="evenodd" d="M337.658 137.562C337.041 137.562 336.455 137.697 335.918 137.942C335.177 136.368 333.673 135.289 331.929 135.289C329.914 135.289 328.209 136.727 327.643 138.707C326.861 137.994 325.854 137.562 324.756 137.562C324.385 137.562 324.029 137.616 323.683 137.708C323.032 135.903 321.413 134.624 319.513 134.624C317.543 134.624 315.874 136.002 315.272 137.915C314.751 137.69 314.19 137.562 313.598 137.562C312.215 137.562 310.977 138.241 310.155 139.306C309.543 138.962 308.846 138.764 308.105 138.764C306.085 138.764 304.375 140.214 303.814 142.204H342.134C342.029 139.622 340.069 137.562 337.658 137.562Z" fill="#98D4CB"></path>
<path fill-rule="evenodd" clip-rule="evenodd" d="M111.288 133.476C113.644 133.476 115.738 134.368 117.091 135.753C117.905 135.503 118.788 135.36 119.711 135.36C123.794 135.36 127.101 138.027 127.101 141.316C127.101 141.571 127.074 141.821 127.036 142.067H104.667C104.18 141.272 103.898 140.38 103.898 139.433C103.898 136.143 107.205 133.476 111.288 133.476Z" fill="#45A698"></path>
<path fill-rule="evenodd" clip-rule="evenodd" d="M92.526 136.97C95.0238 136.97 97.0503 139.149 97.0503 141.837C97.0503 141.917 97.0426 141.994 97.0375 142.073H88.012C88.0068 141.994 88.0017 141.917 88.0017 141.837C88.0017 139.149 90.0256 136.97 92.526 136.97Z" fill="#45A698"></path>
<path fill-rule="evenodd" clip-rule="evenodd" d="M98.5281 135.578C101.684 135.578 104.244 138.33 104.244 141.726C104.244 141.826 104.234 141.925 104.227 142.024H92.8255C92.819 141.925 92.8125 141.826 92.8125 141.726C92.8125 138.33 95.3693 135.578 98.5281 135.578Z" fill="#45A698"></path>
<path fill-rule="evenodd" clip-rule="evenodd" d="M94.0593 138.471C95.121 138.471 96.097 138.874 96.8619 139.543C97.0699 136.545 99.3922 134.179 102.235 134.179C104.71 134.179 106.79 135.977 107.424 138.424C107.803 138.287 108.21 138.21 108.635 138.21C109.608 138.21 110.493 138.603 111.169 139.245C111.869 138.32 112.937 137.729 114.134 137.729C116.248 137.729 117.964 139.573 117.964 141.847C117.964 141.966 117.955 142.082 117.946 142.199H89.7268C90.1735 140.066 91.942 138.471 94.0593 138.471Z" fill="#98D4CB"></path>
<path d="M40.7641 143.733L12.8824 143.641C12.8824 143.641 5.84909 138.439 2.99951 129.092C13.274 132.253 16.8836 140.592 20.4788 139.245C24.301 137.81 40.4229 137.809 40.7641 143.733Z" fill="#98D4CB"></path>
<path d="M16.7811 139.265C16.6324 139.527 16.4794 139.78 16.3223 140.025C15.5799 141.185 14.7628 142.143 13.8677 142.83C13.5728 143.059 13.2608 143.26 12.9351 143.431C12.9317 143.433 12.9281 143.435 12.9244 143.436C12.9173 143.44 12.91 143.444 12.9026 143.448L12.8687 143.465C12.7141 143.545 12.5575 143.616 12.3992 143.678L3.74561 143.729C4.0704 142.095 4.9158 140.954 6.10503 140.184C6.33096 140.038 6.56461 139.907 6.80474 139.792C6.87944 139.755 6.95462 139.72 7.0321 139.686C7.16341 139.627 7.29658 139.572 7.43346 139.52C7.54899 139.476 7.66546 139.435 7.78517 139.396C8.05011 139.308 8.3248 139.23 8.60644 139.162C9.74185 138.891 11.0021 138.78 12.3142 138.78C13.0933 138.78 13.8918 138.819 14.6904 138.887C15.3957 138.948 16.0951 139.075 16.7811 139.265Z" fill="#96C8C1"></path>
<path d="M8.03928 140.495C8.03928 140.495 6.59237 134.761 5.48695 135.063C4.38153 135.365 8.03928 140.495 8.03928 140.495Z" fill="#96C8C1"></path>
<path d="M8.49974 141.158C8.49974 141.158 4.70161 136.614 3.83735 137.472C2.97308 138.329 8.49974 141.158 8.49974 141.158Z" fill="#96C8C1"></path>
<path d="M8.94076 141.982C8.94076 141.982 9.17277 136.121 8.06908 136.044C6.96539 135.968 8.94076 141.982 8.94076 141.982Z" fill="#96C8C1"></path>
<path fill-rule="evenodd" clip-rule="evenodd" d="M43.5834 95.3801L45.1423 95.6679C45.1423 95.6679 49.4083 89.0945 49.5308 87.0906C49.6489 85.1762 53.4933 76.7994 48.9927 71.5702C48.79 71.3331 48.5694 71.1022 48.3299 70.8795C48.3221 70.8705 48.3132 70.8627 48.3044 70.855C48.3044 70.855 48.2965 70.8672 48.282 70.8917C48.1907 71.0443 47.8331 71.6899 47.4142 73.1171C46.7581 75.3484 45.947 79.491 45.7554 86.6454C45.7554 86.6454 44.7084 92.7704 43.5834 95.3801Z" fill="#F5B997"></path>
<path fill-rule="evenodd" clip-rule="evenodd" d="M43.5768 95.3789C43.5768 95.3789 42.1569 96.9581 42.1135 97.5347C42.056 98.2979 42.6471 99.5547 43.0325 99.4329C43.4185 99.3111 43.4654 98.6924 43.5768 98.2192C43.6882 97.746 44.1943 97.2383 44.1649 97.4517C44.1355 97.6662 43.8388 98.507 43.9306 98.6417C44.0222 98.7765 44.1336 98.7517 44.3525 98.3485C44.6152 97.8646 45.1826 97.1898 45.1086 96.6907C45.0289 96.154 45.0181 96.0386 45.2206 95.3919C45.4232 94.7451 45.7625 93.9691 45.7625 93.9691L44.5583 93.7125L43.5768 95.3789Z" fill="#F5B997"></path>
<path fill-rule="evenodd" clip-rule="evenodd" d="M78.8664 140.582C78.8664 140.582 79.9803 139.133 80.9748 137.381C81.6709 136.156 81.3359 134.605 81.4924 133.479C81.8726 130.743 84.8845 126.556 84.5831 125.79C84.2817 125.025 79.3955 123.567 79.3955 123.567C79.3955 123.567 78.2722 131.252 77.5253 136.221C77.3073 137.671 77.122 138.89 77.0049 139.619L78.8664 140.582Z" fill="#F5B997"></path>
<path fill-rule="evenodd" clip-rule="evenodd" d="M77.0015 139.623L78.863 140.586C78.863 140.586 79.9769 139.136 80.9714 137.385C80.1967 137.327 78.8506 137.095 77.5219 136.225C77.3039 137.675 77.1186 138.894 77.0015 139.623Z" fill="#CAD2E8"></path>
<path fill-rule="evenodd" clip-rule="evenodd" d="M81.2369 125.324C81.2369 125.324 83.5892 128.641 85.0139 133.303C85.349 134.401 86.4915 135.769 87.6464 136.984C88.767 138.163 89.8989 139.199 90.3175 139.707L92.2136 138.797C92.2136 138.797 91.5473 136.885 90.5613 135.152C90.1955 134.507 89.7865 133.887 89.3497 133.398C88.7458 132.723 88.9446 124.191 88.3434 123.63C87.7416 123.067 81.2369 125.324 81.2369 125.324Z" fill="#F5B997"></path>
<path fill-rule="evenodd" clip-rule="evenodd" d="M86.5747 110.014L86.5654 110.019C86.5734 110.022 86.5747 110.014 86.5747 110.014Z" fill="#FFB27D"></path>
<path fill-rule="evenodd" clip-rule="evenodd" d="M81.707 112.949L86.5591 110.023C86.5322 110.012 86.4341 109.866 86.0713 108.817C85.9167 108.369 85.8348 107.981 85.7945 107.673C85.7905 107.643 85.7865 107.613 85.7838 107.584C85.7341 107.136 85.7703 106.879 85.7703 106.879L84.7075 107.262L82.7415 107.975C82.7644 108.473 82.6945 108.823 82.5884 109.064C82.3317 109.648 81.8534 109.652 81.8399 109.652L81.707 112.949Z" fill="#F5B997"></path>
<path fill-rule="evenodd" clip-rule="evenodd" d="M82.5023 108.381C82.5023 108.381 86.7234 108.844 86.8098 105.992C86.8962 103.139 87.5203 101.834 84.5996 101.579C81.679 101.325 80.9893 102.377 80.8171 103.342C80.2795 106.357 81.3131 108.254 82.5023 108.381Z" fill="#F5B997"></path>
<path fill-rule="evenodd" clip-rule="evenodd" d="M90.3719 98.695C90.431 98.5619 90.4731 98.4763 90.4731 98.4763C90.4289 98.537 90.3959 98.6117 90.3719 98.695Z" fill="#D35C2B"></path>
<path fill-rule="evenodd" clip-rule="evenodd" d="M81.1372 109.94C81.1372 109.94 77.0896 106.831 76.6576 105.802C76.2256 104.774 74.3675 101.006 73.8873 100.623C73.8873 100.623 72.8811 100.493 72.7372 101.19C72.5932 101.886 73.6954 106.017 74.4635 107.265C75.2315 108.513 78.9119 112.741 80.1204 113.356L81.1372 109.94Z" fill="#F5B997"></path>
<path fill-rule="evenodd" clip-rule="evenodd" d="M71.3056 98.7159C71.3724 99.0759 71.5192 99.4629 71.6927 99.6623C71.9196 99.9296 72.2799 100.463 72.5068 100.81C72.6536 101.024 72.7471 101.183 72.7471 101.183L73.8949 100.624C73.8949 100.624 73.9215 98.676 73.1608 98.2621C73.134 98.2492 73.1208 98.2352 73.094 98.2352C72.7737 98.0616 72.4668 97.942 72.1999 97.8622C71.8395 97.7684 71.5592 97.7555 71.399 97.8482C71.2522 97.929 71.2255 98.316 71.3056 98.7159Z" fill="#F5B997"></path>
<path fill-rule="evenodd" clip-rule="evenodd" d="M84.3667 102.974C85.8602 102.596 85.2892 105.241 85.6665 105.06C86.0889 104.857 86.8144 104.86 86.7 105.37C86.5855 105.88 86.4202 106.062 86.334 106.38C86.2478 106.698 86.3346 107.328 86.6819 107.202C87.0292 107.074 90.2594 103.388 87.9786 100.516C85.6979 97.645 78.8969 99.4138 81.0384 102.417C81.4151 102.945 83.3031 103.244 84.3667 102.974Z" fill="#2C3A64"></path>
<path fill-rule="evenodd" clip-rule="evenodd" d="M80.6244 113.864C79.9081 110.871 81.7075 109.653 81.7075 109.653C81.7075 109.653 81.7532 109.407 81.4064 109.313C81.0597 109.22 79.7804 108.857 79.7804 108.857C79.7804 108.857 78.6725 109.713 78.6302 111.551C78.6235 111.822 78.6398 112.117 78.6879 112.433L79.4876 113.354C79.4876 113.354 79.6443 113.701 80.6244 113.864Z" fill="white"></path>
<path fill-rule="evenodd" clip-rule="evenodd" d="M82.4786 110.221L82.6919 110.9L82.0103 110.56L82.4786 110.221Z" fill="#DCEFF2"></path>
<path fill-rule="evenodd" clip-rule="evenodd" d="M83.3975 131.35C86.0629 130.989 88.4257 130.927 90.9204 129.582C90.9204 129.582 89.5949 123.001 89.5132 122.681C89.3961 122.221 88.5483 118.684 87.7649 115.412C87.0486 112.42 86.3862 109.649 86.3862 109.649C86.3862 109.649 83.8311 111.356 82.679 110.862C81.5268 110.366 82.253 109.502 82.253 109.502C82.253 109.502 82.2427 109.259 81.4154 109.309C80.8866 109.838 80.247 111.185 79.4966 113.35C79.4966 113.35 77.7485 123.583 77.3232 129.96C77.3232 129.96 81.4183 131.617 83.3975 131.35Z" fill="#1054BB"></path>
<path fill-rule="evenodd" clip-rule="evenodd" d="M73.9166 141.908H79.4751C79.4751 141.908 79.5811 141.004 79.4534 140.232C79.4381 140.138 79.3891 140.053 79.3161 139.978C78.9907 140.088 78.5125 140.166 77.9806 139.975C77.5447 139.819 77.2222 139.581 76.9975 139.364C76.9399 139.42 75.7916 140.514 75.2608 140.514C74.7163 140.514 73.8848 140.776 73.9166 141.908Z" fill="white"></path>
<path fill-rule="evenodd" clip-rule="evenodd" d="M87.6464 136.986C88.767 138.165 89.8989 139.201 90.3175 139.71L92.2136 138.799C92.2136 138.799 91.5473 136.888 90.5613 135.155C90.2225 135.682 89.3324 136.767 87.6464 136.986Z" fill="#CAD2E8"></path>
<path fill-rule="evenodd" clip-rule="evenodd" d="M89.9047 139.218C89.9047 139.218 89.974 140.425 89.5718 140.584C89.1694 140.745 88.4196 141.139 88.4196 141.905H91.2038C91.2038 141.905 93.1241 140.961 93.3802 140.56C93.6361 140.159 92.1009 138.448 92.1009 138.448C92.1009 138.448 91.1576 139.49 89.9047 139.218Z" fill="white"></path>
<path fill-rule="evenodd" clip-rule="evenodd" d="M85.2986 119.618C85.2986 119.618 84.0795 119.39 83.6026 119.702C83.1257 120.013 82.9847 120.501 83.3281 120.701C84.4041 121.326 85.4949 120.635 85.4949 120.635L85.2986 119.618Z" fill="#F5B997"></path>
<path fill-rule="evenodd" clip-rule="evenodd" d="M86.3314 110.033C86.3314 110.033 90.0864 110.828 91.5674 116.662C91.7123 117.232 91.5625 117.843 91.1677 118.279C90.4868 119.034 88.9856 120.136 85.4949 120.543C85.1137 120.587 85.0625 119.621 85.0625 119.621C85.1005 119.698 87.4338 118.114 88.427 117.263C88.6065 117.109 88.599 116.785 88.4694 116.588C88.1337 116.076 87.5707 115.191 87.3815 114.737C87.1053 114.074 85.282 110.334 86.3314 110.033Z" fill="#F5B997"></path>
<path fill-rule="evenodd" clip-rule="evenodd" d="M86.3774 109.65C86.3774 109.65 88.5851 109.806 90.3853 112.206C90.3853 112.206 89.7761 114.412 86.9163 115.002C86.9163 115.002 85.1537 111.029 86.3774 109.65Z" fill="white"></path>
<path fill-rule="evenodd" clip-rule="evenodd" d="M86.9257 99.6384C86.9257 99.6384 89.0495 99.0607 90.4774 100.61C91.9053 102.16 89.8258 105 91.8225 106.555C93.8192 108.111 93.0299 109.272 92.2188 109.651C90.3946 110.503 87.6075 109.442 88.1745 108.005C89.2646 105.241 87.6516 103.137 87.6516 103.137L86.9257 99.6384Z" fill="#2C3A64"></path>
<path fill-rule="evenodd" clip-rule="evenodd" d="M58.061 123.974C58.0572 124.005 58.0533 124.034 58.0523 124.06C57.8322 126.144 57.3763 128.254 56.8323 130.216C55.4137 135.334 53.3705 139.235 53.3705 139.235L51.6764 139.077C51.6764 139.077 52.6025 135.139 52.6829 129.791C52.7383 126.051 52.3804 121.622 51.0035 117.368C50.1975 114.879 49.5595 112.509 49.0562 110.288C47.4145 103.043 47.2031 97.399 47.2429 94.4605C47.2623 93.0107 47.3427 92.2184 47.3427 92.2184L56.8653 93.5626L57.3095 93.6251C57.2454 98.0102 57.2164 103.965 57.2038 108.622C57.2009 109.744 57.1989 110.792 57.197 111.723C57.195 113.015 57.1941 114.085 57.1941 114.825C57.1941 115.541 57.1941 115.947 57.1941 115.947C57.7372 117.192 58.0329 118.59 58.1444 120.065C58.2375 121.309 58.1997 122.609 58.0669 123.92C58.0649 123.938 58.063 123.957 58.061 123.974Z" fill="#D6565A"></path>
<path fill-rule="evenodd" clip-rule="evenodd" d="M54.4129 137.531C54.4545 137.309 54.5131 137.027 54.58 136.72C55.2666 135.106 56.1271 132.861 56.8328 130.313C54.4342 130.513 53.2525 130.191 52.6836 129.887C52.6527 131.963 52.4942 133.827 52.3118 135.33C52.0615 136.266 51.6016 137.763 51.0746 138.391C50.2361 139.389 49.3122 140.247 48.1974 140.812C48.0726 140.874 50.9879 141.899 52.4786 141.743C53.9692 141.587 55.2003 141.322 55.0641 140.4C55.0164 140.075 54.9328 139.741 54.8037 139.447C54.5643 138.905 54.289 138.19 54.4129 137.531Z" fill="#F5B997"></path>
<path fill-rule="evenodd" clip-rule="evenodd" d="M58.0671 124.012C58.2184 122.268 55.2384 116.244 55.2384 116.244L57.1943 114.918C57.1943 115.634 57.1943 116.04 57.1943 116.04C57.7374 117.285 58.0331 118.682 58.1446 120.158C58.2377 121.402 58.2 122.702 58.0671 124.012Z" fill="#CB4147"></path>
<path fill-rule="evenodd" clip-rule="evenodd" d="M52.3554 142.001C50.8586 141.922 51.2773 142.274 49.1986 142.434C47.1199 142.594 46.3594 141.952 46.2399 141.661C46.1334 141.403 47.1215 141.118 48.177 140.789L48.191 140.809C48.191 140.809 49.5761 141.443 51.2786 141.162C52.6661 140.935 54.0542 140.262 55.0111 140.096C55.0924 140.408 55.1743 140.727 55.1705 141.056C55.1609 141.987 53.8521 142.08 52.3554 142.001Z" fill="#252428"></path>
<path fill-rule="evenodd" clip-rule="evenodd" d="M57.2034 108.622C57.2005 109.744 55.2395 115.219 55.2376 116.15C53.6521 113.892 52.2798 98.2776 50.0845 94.3269C50.1038 92.877 47.3424 92.2184 47.3424 92.2184L56.865 93.5626L57.3091 93.6251C57.245 98.0102 57.216 103.965 57.2034 108.622Z" fill="#CB4147"></path>
<path fill-rule="evenodd" clip-rule="evenodd" d="M63.0758 51.3899C63.9386 51.9175 64.0802 53.6934 63.9515 54.2338C63.8227 54.7744 62.8699 56.3829 62.239 56.3829C62 56.3829 61.7446 56.3035 61.5192 56.2049C61.6159 56.4908 61.7031 56.8015 61.7754 57.1422C62.4455 60.2934 61.2318 62.1994 59.6422 62.7502C58.0525 63.3009 58.0432 62.9332 58.0432 62.9332L52.2733 55.2891C52.2733 55.2891 56.2941 50.4604 58.8056 52.7257C58.833 52.6299 59.1229 51.2828 60.043 50.9135C61.0159 50.5229 62.6325 51.1187 63.0758 51.3899Z" fill="#233862"></path>
<path fill-rule="evenodd" clip-rule="evenodd" d="M49.7418 89.8829C52.36 81.5179 49.4907 79.6994 49.7634 75.5137C50.0362 71.3269 53.2786 66.8265 53.2786 66.8265C53.2786 66.8265 53.4438 66.8098 53.7238 66.7845C53.9414 66.67 53.9993 65.7598 53.9967 64.7995C53.9941 63.6472 53.9056 62.424 53.9056 62.424L57.7944 61.6544L58.0257 61.6089C58.016 64.3141 58.7287 66.0903 59.2449 66.5038C59.7309 66.5594 61.8024 66.8201 63.079 67.3535C63.5603 67.5543 63.9275 67.7939 64.0558 68.075C65.1237 70.422 66.1898 76.3448 66.9392 80.5704C67.3568 82.9247 67.6753 84.7529 67.8416 85.1399C68.3053 86.2211 69.7217 92.1671 70.9321 95.1002L69.8346 96.4487C69.8346 96.4487 64.2876 87.1082 63.824 84.9081C63.6727 84.1923 63.302 82.7587 62.8693 81.1525C62.804 80.91 62.7371 80.6631 62.6695 80.4141C61.9054 82.4849 61.5153 83.4432 61.5367 84.3379C61.5668 85.6109 62.4306 86.7557 64.236 90.8024C65.2334 93.0381 47.0686 98.4257 49.7418 89.8829Z" fill="#F5B997"></path>
<path fill-rule="evenodd" clip-rule="evenodd" d="M58.2055 61.8541C58.2055 61.8541 59.3457 60.0533 59.6195 58.5134C59.8149 57.4141 59.2546 53.3391 55.1575 53.926C55.1575 53.926 53.9676 54.0432 52.849 54.7982C51.9595 55.3987 50.6757 56.6951 52.1111 60.251L52.4839 61.4522L58.2055 61.8541Z" fill="#233862"></path>
<path fill-rule="evenodd" clip-rule="evenodd" d="M53.1853 64.1293C53.1853 64.1293 58.3337 64.2143 58.3372 61.0089C58.3407 57.8037 59.0076 55.656 55.7207 55.4663C52.4337 55.2766 51.7937 56.4989 51.5322 57.5685C51.2706 58.6381 51.8462 64.0247 53.1853 64.1293Z" fill="#F5B997"></path>
<path fill-rule="evenodd" clip-rule="evenodd" d="M55.7542 117.517C56.0812 118.129 59.321 122.023 62.575 126.334C62.8538 126.701 63.1429 127.099 63.4388 127.517C65.3564 130.217 67.5642 133.736 68.8835 135.45C70.0829 137.008 71.1604 135.057 70.5554 133.666C69.6009 131.47 68.7919 127.632 67.8676 124.807C67.6549 124.154 67.4347 123.555 67.2061 123.043C66.2109 120.818 64.5325 117.705 62.1745 115.292C61.7653 114.873 65.3337 105.559 65.0786 97.8553C64.9784 94.8025 64.553 92.1173 63.5796 90.4821L53.8933 90.9617C53.8933 90.9617 52.5683 111.538 55.7542 117.517Z" fill="#D6565A"></path>
<path fill-rule="evenodd" clip-rule="evenodd" d="M51.6881 55.7844C52.4826 54.8219 53.0833 55.0311 53.4206 55.3202C56.1811 53.7898 58.0495 56.0616 58.0495 56.0616C58.3939 58.3614 60.0532 59.6788 60.0532 59.6788C60.0532 59.6788 59.1149 60.2582 56.9516 59.7022C56.2914 59.5325 55.7017 59.0643 55.2006 58.4957C56.076 59.9613 57.2664 61.0171 57.2664 61.0171C54.6824 59.8232 53.6448 56.2312 53.5414 55.8513C53.2271 56.1334 52.6075 56.7462 52.4187 57.3469C52.1621 58.1631 52.0466 59.8433 51.5567 59.7862C51.5567 59.7862 50.4946 57.2303 51.6881 55.7844Z" fill="#233862"></path>
<path fill-rule="evenodd" clip-rule="evenodd" d="M70.8065 94.8258C70.8065 94.8258 71.2765 95.9328 71.7658 96.2422C72.2551 96.5504 72.5607 97.195 72.4319 97.7868C72.3032 98.3785 72.564 99.4079 71.946 99.4079C71.328 99.4079 69.8859 96.6798 69.7057 96.1646C69.5254 95.6504 69.3709 95.5469 69.3709 95.5469L70.8065 94.8258Z" fill="#F5B997"></path>
<path fill-rule="evenodd" clip-rule="evenodd" d="M65.4536 94.2915C65.4703 94.6246 65.4526 94.8909 65.3933 95.0817C65.1872 95.7435 64.4793 96.0454 62.7684 95.8643C61.7225 95.7532 61.2563 93.9649 61.0483 92.4385C60.4202 94.6225 59.5408 95.847 58.4038 96.1047C56.7449 96.4819 47.7814 97.1147 47.2337 93.054C46.6312 88.5891 49.0308 81.0865 49.1298 76.8232C48.8839 75.3108 48.7999 73.999 48.8264 72.8714C48.8963 69.8344 49.7696 68.1321 50.4411 67.4466C50.6312 67.2976 50.8216 67.2046 51.5851 67.0709C51.9753 67.0031 52.5158 66.9246 53.282 66.8217C53.282 66.8217 53.6115 66.7786 53.6044 66.7902C53.4629 67.0485 51.9398 69.3374 52.0875 70.0907C52.2423 70.8791 58.0983 70.7654 58.5618 70.3319C59.0254 69.8984 60.2352 66.6284 60.2352 66.6284C60.2352 66.6284 62.6152 66.8939 63.7796 67.7581C63.7796 67.7581 63.7751 67.7636 63.7672 67.7735C63.9078 67.8765 64.0131 67.9858 64.0733 68.1023C65.3155 70.5163 66.5559 76.6087 67.4282 80.9539C65.3137 82.144 63.4664 81.7894 62.893 81.6331C63.6424 86.638 65.342 92.0117 65.4536 94.2915Z" fill="white"></path>
<path fill-rule="evenodd" clip-rule="evenodd" d="M63.439 127.597C65.3566 130.296 67.5645 133.815 68.8837 135.529C70.0831 137.087 71.1606 135.136 70.5557 133.745C69.6011 131.55 68.7922 127.711 67.8678 124.887C67.2469 125.831 65.9786 127.049 63.439 127.597Z" fill="#F5B997"></path>
<path fill-rule="evenodd" clip-rule="evenodd" d="M69.9376 95.9236C69.9376 95.9236 69.6548 97.1491 69.8603 97.534C70.0659 97.9188 69.9278 98.4189 70.341 98.2777C70.7543 98.1365 69.9376 95.9236 69.9376 95.9236Z" fill="#F5B997"></path>
<path fill-rule="evenodd" clip-rule="evenodd" d="M72.928 134.41C73.7091 134.919 73.0841 136.072 72.2134 137.291C71.3428 138.51 71.864 138.347 70.8821 140.184C69.9002 142.023 68.9498 142.319 68.6403 142.264C68.3654 142.214 68.6558 141.229 68.9458 140.162C68.9826 140.028 69.0183 139.893 69.0538 139.758C69.3694 138.549 68.9633 137.41 68.771 136.121C68.5888 134.899 66.8247 132.482 66.8247 132.482L68.0881 129.928C68.0881 129.928 69.6382 132.152 70.3386 133.052C70.7506 133.582 71.4685 133.85 72.0334 134.03C72.3401 134.128 72.6531 134.23 72.928 134.41Z" fill="#F5B997"></path>
<path fill-rule="evenodd" clip-rule="evenodd" d="M72.2134 137.291C71.3428 138.511 71.864 138.347 70.8821 140.185C69.9002 142.023 68.9498 142.319 68.6403 142.264C68.3654 142.214 68.6558 141.229 68.9458 140.162L68.9692 140.161C68.9692 140.161 70.2485 139.334 70.9268 137.749C71.4802 136.456 71.6587 134.924 72.0334 134.03C72.3401 134.128 72.6531 134.23 72.928 134.41C73.7091 134.919 73.0841 136.072 72.2134 137.291Z" fill="#252428"></path>
<path fill-rule="evenodd" clip-rule="evenodd" d="M51.1165 67.1675C51.1165 67.1675 49.5655 67.1604 48.4819 69.2442C47.3984 71.3277 45.7664 78.1023 45.7664 78.1023C45.7664 78.1023 47.6696 80.2236 49.9 79.7396C52.1304 79.2546 51.1165 67.1675 51.1165 67.1675Z" fill="white"></path>
<path fill-rule="evenodd" clip-rule="evenodd" d="M86.1266 108.873L82.4759 110.218L82.7108 111.571L86.6919 109.693L86.1266 108.873Z" fill="white"></path>
<path fill-rule="evenodd" clip-rule="evenodd" d="M82.4966 109.248L82.37 109.412L82.4794 110.221L81.5258 111.043L81.8851 109.308L82.4966 109.248Z" fill="white"></path>
<path d="M190.468 22.9665V138.523C190.468 139.574 189.667 140.434 188.688 140.434H186.907C186.419 140.434 185.976 140.22 185.652 139.875C185.328 139.528 185.126 139.048 185.126 138.523L185.22 22.9665C185.22 22.2803 185.467 21.6752 185.977 21.3407C186.248 21.1603 186.567 21.0554 186.907 21.0554H188.688C189.667 21.0554 190.468 21.9141 190.468 22.9665Z" fill="#94ACB1"></path>
<path d="M186.58 22.5803V138.136C186.58 138.821 186.238 139.428 185.73 139.762C185.406 139.416 185.205 138.935 185.205 138.41V22.8537C185.205 22.3634 185.24 22.0036 185.508 21.7142C185.615 21.5986 185.953 21.3972 185.953 21.3972C186.275 21.7423 186.581 22.0534 186.581 22.5803H186.58Z" fill="#FAFFF1"></path>
<path d="M166.179 60.0596L156.322 66.703L165.261 74.5377L187.384 73.1435V64.2091L166.179 60.0596Z" fill="#94ACB1"></path>
<path d="M185.904 65.4355C185.803 65.7073 185.835 66.0865 185.976 66.2828C186.117 66.4777 186.313 66.4154 186.414 66.1436C186.515 65.8717 186.483 65.4925 186.342 65.2963C186.201 65.1013 186.005 65.1637 185.904 65.4355Z" fill="#EBB352"></path>
<path d="M185.904 70.7128C185.803 70.9847 185.835 71.3639 185.976 71.5601C186.117 71.7551 186.313 71.6927 186.414 71.4209C186.515 71.1491 186.483 70.7698 186.342 70.5736C186.201 70.3787 186.005 70.441 185.904 70.7128Z" fill="#EBB352"></path>
<path d="M223.166 42.0129L235.023 48.6431L223.758 56.5084L188.31 55.2773V44.215L223.166 42.0129Z" fill="#94ACB1"></path>
<path d="M223.169 42.0129H225.408L237.264 48.6431H235.026L223.169 42.0129Z" fill="#FAFFF1"></path>
<path d="M223.763 56.511H225.665L237.266 48.6458H235.028L223.763 56.511Z" fill="#566B70"></path>
<path d="M190.628 45.8778C190.758 46.2266 190.717 46.7132 190.536 46.9638C190.355 47.2144 190.103 47.1349 189.974 46.7861C189.844 46.4374 189.885 45.9508 190.066 45.7001C190.247 45.4495 190.499 45.5291 190.628 45.8778Z" fill="#EBB352"></path>
<path d="M190.628 52.6592C190.758 53.0079 190.717 53.4946 190.536 53.7452C190.355 53.9958 190.103 53.9162 189.974 53.5675C189.844 53.2188 189.885 52.7321 190.066 52.4815C190.247 52.2309 190.499 52.3105 190.628 52.6592Z" fill="#EBB352"></path>
<path d="M153.455 22.8311L143.017 29.4612L152.864 37.3265L188.311 36.0954V25.0332L153.455 22.8311Z" fill="#94ACB1"></path>
<path d="M153.448 22.8311H151.211L140.773 29.4612H143.01L153.448 22.8311Z" fill="#FAFFF1"></path>
<path d="M152.856 37.3271H151.663L140.773 29.4619H143.01L152.856 37.3271Z" fill="#566B70"></path>
<path d="M185.992 26.6979C185.861 27.0466 185.903 27.5333 186.084 27.7839C186.265 28.0345 186.516 27.9549 186.645 27.6062C186.774 27.2575 186.735 26.7708 186.553 26.5202C186.372 26.2696 186.121 26.3492 185.992 26.6979Z" fill="#EBB352"></path>
<path d="M185.992 33.4674C185.861 33.8162 185.903 34.3028 186.084 34.5534C186.265 34.804 186.516 34.7245 186.645 34.3757C186.774 34.027 186.735 33.5404 186.553 33.2897C186.372 33.0391 186.121 33.1187 185.992 33.4674Z" fill="#EBB352"></path>
<path d="M166.18 60.0596H164.904L154.435 66.7614H156.323L166.18 60.0596Z" fill="#FAFFF1"></path>
<path d="M165.262 74.5411H163.542L154.435 66.7648H156.323L165.262 74.5411Z" fill="#566B70"></path>
<path d="M194.519 128.447V141.625H181.242V128.395C181.242 125.94 183.106 123.922 185.495 123.675C185.657 123.66 185.822 123.65 185.988 123.65H189.72C192.37 123.65 194.518 125.798 194.518 128.447H194.519Z" fill="#45A698"></path>
<path d="M189.796 128.422V141.6H181.242V128.37C181.242 125.915 183.106 123.897 185.495 123.65C187.912 123.9 189.796 125.941 189.796 128.422Z" fill="#2E8F81"></path>
<path d="M233.93 118.249H155.605L151.986 99.8405H230.169L233.93 118.249Z" fill="#E0A338"></path>
<path d="M235.262 118.249H156.937L153.318 99.8405H231.501L235.262 118.249Z" fill="#FCE0B0"></path>
<path d="M155.603 118.347H178.721V120.601H157.317C156.37 120.601 155.603 119.832 155.603 118.887V118.349V118.347Z" fill="#E0A338"></path>
<path d="M249.68 118.347H178.544V120.601H249.68V118.347Z" fill="#F6C063"></path>
<path d="M160.274 120.599L158.933 125.872V125.879L154.963 141.499C154.91 141.703 154.727 141.845 154.518 141.845C154.116 141.845 153.809 141.476 153.889 141.083L157.43 122.862L157.871 120.599H160.272H160.274Z" fill="#EBB352"></path>
<path d="M158.936 125.872C159.065 123.175 157.435 122.862 157.435 122.862L157.875 120.599H160.276L158.936 125.872Z" fill="#E0A338"></path>
<path d="M177.268 120.599L175.927 125.872V125.879L171.957 141.499C171.904 141.703 171.721 141.845 171.512 141.845C171.11 141.845 170.803 141.476 170.883 141.083L174.425 122.862L174.865 120.599H177.266H177.268Z" fill="#EBB352"></path>
<path d="M175.93 125.872C176.059 123.175 174.429 122.862 174.429 122.862L174.869 120.599H177.27L175.93 125.872Z" fill="#E0A338"></path>
<path d="M243.187 120.599L244.527 125.872V125.879L248.498 141.499C248.551 141.703 248.733 141.845 248.942 141.845C249.345 141.845 249.652 141.476 249.572 141.083L246.03 122.862L245.59 120.599H243.189H243.187Z" fill="#EBB352"></path>
<path d="M244.527 125.872C244.399 123.175 246.028 122.862 246.028 122.862L245.588 120.599H243.187L244.527 125.872Z" fill="#E0A338"></path>
<path d="M226.208 120.599L227.549 125.872V125.879L231.519 141.499C231.573 141.703 231.755 141.845 231.964 141.845C232.366 141.845 232.673 141.476 232.593 141.083L229.052 122.862L228.612 120.599H226.211H226.208Z" fill="#EBB352"></path>
<path d="M227.549 125.872C227.42 123.175 229.049 122.862 229.049 122.862L228.609 120.599H226.208L227.549 125.872Z" fill="#E0A338"></path>
<path d="M204.366 136.134C204.142 136.39 204.114 136.675 204.224 136.98C204.224 136.98 204.224 136.983 204.227 136.984C204.432 137.548 205.108 138.179 205.894 138.808C205.994 138.889 206.083 138.963 206.161 139.031C206.182 139.049 206.202 139.067 206.221 139.085C206.237 139.099 206.252 139.113 206.267 139.127C207 139.8 206.724 139.954 208.04 141.321C209.541 142.879 210.574 142.908 210.868 142.765C211.117 142.644 210.611 141.819 210.051 140.889C210.025 140.845 209.997 140.799 209.97 140.755C209.895 140.631 209.821 140.506 209.747 140.382C209.091 139.265 209.259 138.742 209.416 137.079C209.542 135.729 211.527 129.533 211.527 129.533L208.65 129.039C208.65 129.039 207.782 133.971 206.828 134.731C206.317 135.136 205.746 135.141 205.256 135.441C205.221 135.462 205.187 135.483 205.154 135.505C204.875 135.69 204.591 135.879 204.366 136.136V136.134Z" fill="#FFCFB9"></path>
<path d="M204.366 136.134C204.142 136.389 204.114 136.674 204.224 136.98C204.224 136.98 204.224 136.983 204.227 136.984C204.478 137.548 205.137 138.174 205.897 138.802C205.996 138.884 206.083 138.959 206.161 139.03C206.182 139.048 206.202 139.066 206.221 139.084C206.237 139.098 206.252 139.112 206.267 139.126C207 139.8 206.724 139.954 208.04 141.321C209.541 142.878 210.574 142.907 210.868 142.764C211.117 142.643 210.611 141.818 210.051 140.889C209.758 140.782 208.401 140.232 207.375 138.922C206.504 137.813 205.913 136.402 205.321 135.534C205.256 135.521 205.216 135.514 205.152 135.502C204.874 135.686 204.589 135.875 204.365 136.132L204.366 136.134Z" fill="#282828"></path>
<path d="M227.571 134.352C227.748 135.237 229.014 135.09 230.428 134.747C231.842 134.402 231.506 134.812 233.519 134.591C235.531 134.37 236.142 133.622 236.203 133.324C236.259 133.059 235.264 132.966 234.197 132.844C234.064 132.828 233.928 132.812 233.793 132.795C232.589 132.644 231.707 131.869 230.613 131.232C229.577 130.629 228.032 128.173 228.032 128.173L225.271 128.39C225.271 128.39 226.719 130.584 227.279 131.537C227.608 132.098 227.591 132.84 227.55 133.412C227.529 133.723 227.508 134.041 227.571 134.354V134.352Z" fill="#FFCFB9"></path>
<path d="M230.422 134.747C231.837 134.402 231.501 134.812 233.513 134.591C235.526 134.37 236.136 133.621 236.198 133.324C236.253 133.059 235.258 132.966 234.192 132.844L234.182 132.864C234.182 132.864 232.976 133.717 231.3 133.756C229.935 133.79 228.489 133.398 227.546 133.413C227.525 133.724 227.504 134.042 227.567 134.355C227.744 135.24 229.011 135.093 230.424 134.749L230.422 134.747Z" fill="#282828"></path>
<path d="M216.995 116.659L214.413 123.579L211.041 132.614C211.041 132.614 210.127 132.702 209.252 132.451C208.446 132.219 207.521 131.61 207.521 131.61C207.521 131.61 208.46 121.906 210.207 116.337C210.654 114.908 211.156 113.752 211.709 113.1C214.415 109.915 216.995 116.657 216.995 116.657V116.659Z" fill="#003B94"></path>
<path d="M214.385 105.665C212.916 105.193 209.083 105.655 204.925 106.404C203.777 106.611 202.619 106.087 202.014 105.093L191.552 104.275C191.552 104.275 188.097 111.904 189.986 116.768C190.263 117.483 190.872 117.929 191.814 117.944C191.814 117.944 198.136 117.955 200.159 117.955C205.362 117.957 211.171 114.395 211.922 114.245C213.151 114 213.643 116.452 214.872 119.027C216.102 121.601 226.429 130.431 226.429 130.431C226.429 130.431 228.017 130.447 228.673 130.201C229.378 129.937 229.636 129.596 229.636 129.596C229.636 129.596 218.198 106.892 214.385 105.664V105.665Z" fill="#0548AD"></path>
<path d="M200.907 74.4697C200.13 74.0085 199.372 73.9377 198.908 73.9502C198.585 73.9599 198.263 73.9377 197.944 73.8918C193.951 73.307 191.545 79.0875 191.403 80.8337C191.144 84.04 189.44 84.529 187.045 86.5364C182.239 90.5623 183.647 95.2412 186.272 96.9818C187.849 98.0251 190.626 96.9818 190.626 96.9818C190.665 97.0096 198.225 92.7739 201.951 90.7304C207.535 89.9413 203.149 75.8006 200.907 74.4684V74.4697Z" fill="#0E356E"></path>
<path d="M198.827 88.9938C198.844 89.0049 196.995 89.6328 195.759 89.0868C194.595 88.5742 193.715 86.6656 193.732 86.6656C194.262 86.642 194.843 86.1808 195.29 83.1553L195.516 83.2358L199.304 84.5958C199.304 84.5958 199.029 85.8071 198.851 86.9615C198.701 87.9297 198.621 88.8576 198.827 88.9951V88.9938Z" fill="#FFCFB9"></path>
<path d="M199.303 84.5894C199.303 84.5894 199.151 85.2437 198.931 86.4648C196.755 86.073 195.822 84.4019 195.515 83.2295L199.303 84.5894Z" fill="#FFB492"></path>
<path d="M199.877 85.7934C199.877 85.7934 194.694 85.0975 195.178 81.8872C195.661 78.677 195.319 76.4238 198.649 76.7322C201.979 77.0406 202.436 78.3616 202.536 79.4729C202.637 80.5842 201.239 85.8921 199.879 85.7934H199.877Z" fill="#FFCFB9"></path>
<path d="M202.334 77.7158C202.334 77.7158 199.014 80.5649 196.758 80.7941C194.5 81.0233 193.646 80.3009 193.646 80.3009C193.646 80.3009 194.977 79.2007 195.778 77.424C196.014 76.9003 196.513 76.5406 197.087 76.4919C198.698 76.3544 201.754 76.2919 202.334 77.7158Z" fill="#0E356E"></path>
<path d="M200.265 77.4603C200.265 77.4603 201.374 78.5299 201.724 79.3245C202.062 80.0899 202.162 81.9222 201.893 82.6487C201.893 82.6487 203.624 79.2967 202.646 77.6687C201.607 75.9406 200.265 77.4603 200.265 77.4603Z" fill="#0E356E"></path>
<path d="M203.193 96.6083C203.033 107.067 203.147 104.882 201.999 105.874C201.721 106.113 200.945 106.254 199.921 106.322C196.703 106.534 191.047 106.004 190.833 105.411C190.091 103.359 190.615 102.723 189.998 99.5838C189.934 99.2504 189.854 98.8879 189.76 98.4948C189.244 96.3388 188.742 95.604 190.575 92.1409C192.238 89.0029 193.963 86.4566 194.119 86.5483C198.501 89.1432 198.855 86.9636 198.855 86.9636C198.855 86.9636 203.273 91.5075 203.193 96.6097V96.6083Z" fill="white"></path>
<path d="M214.413 123.669L211.041 132.703C211.041 132.703 210.127 132.791 209.252 132.539C208.446 132.307 207.521 131.699 207.521 131.699C207.521 131.699 208.46 121.996 210.207 116.427L214.413 123.667V123.669Z" fill="#0548AD"></path>
<path d="M198.849 86.958C198.849 86.958 203.358 87.722 203.887 89.6571C204.415 91.5921 206.155 103.339 206.155 103.339C206.155 103.339 204.882 104.576 203.824 103.521C202.765 102.465 200.495 92.5298 200.495 92.5298L198.849 86.9594V86.958Z" fill="white"></path>
<path d="M199.918 106.317C196.701 106.528 191.045 105.999 190.83 105.406C190.089 103.354 190.613 102.718 189.996 99.5787L191.55 95.2238C191.55 95.2238 191.292 100.075 192.726 101.35C194.158 102.626 198.6 103.814 199.298 104.881C199.634 105.392 199.856 105.906 199.92 106.317H199.918Z" fill="#C8DCFA"></path>
<path d="M196.237 104.273C196.237 104.273 199.412 103.57 199.923 103.85C200.435 104.131 201.686 105.155 201.844 105.51C202 105.866 200.704 105.24 200.282 105.127C200.008 105.053 199.289 105.302 198.933 105.422C197.434 105.919 196.516 105.662 196.516 105.662L196.236 104.273H196.237Z" fill="#FFCFB9"></path>
<path d="M194.113 86.5459C194.113 86.5459 189.852 86.8057 188.374 88.8574C186.296 91.744 182.171 104.049 184.532 105.691C187.191 107.54 196.635 106.178 196.635 106.178C196.635 106.178 196.95 104.714 196.512 104.006C196.074 103.297 188.969 102.151 188.642 101.823C188.314 101.497 192.743 95.4502 192.743 94.4695C192.743 93.4887 194.111 86.5459 194.111 86.5459H194.113Z" fill="white"></path>
<path d="M200.068 104.733C200.068 104.733 200.733 105.588 200.95 105.69C201.167 105.792 201.309 105.766 201.309 105.766L200.862 104.962L200.068 104.732V104.733Z" fill="#FFCFB9"></path>
<path d="M199.923 103.857L201.855 104.792C201.855 104.792 201.773 104.927 201.535 104.916C201.297 104.905 200.696 104.686 200.696 104.686L199.921 103.857H199.923Z" fill="#FFCFB9"></path>
<path d="M216.439 106.06L196.238 106.053V106.498L216.259 106.505L216.439 106.06Z" fill="#BF343A"></path>
<path d="M200.96 106.501L216.258 106.507L220.863 95.1036L205.589 95.098L200.96 106.501Z" fill="#BF343A"></path>
<path d="M212.393 100.807C212.509 100.405 212.276 100.081 211.873 100.081C211.471 100.081 211.051 100.405 210.935 100.805C210.82 101.207 211.052 101.532 211.455 101.532C211.858 101.532 212.277 101.207 212.393 100.807Z" fill="white"></path>
<path fill-rule="evenodd" clip-rule="evenodd" d="M284.38 58.0732L284.371 58.0787L284.38 58.0732Z" fill="#FFB27D"></path>
<path fill-rule="evenodd" clip-rule="evenodd" d="M288.31 46.3426C288.371 46.2054 288.415 46.1161 288.415 46.1161C288.369 46.1795 288.335 46.2563 288.31 46.3426Z" fill="#D35C2B"></path>
<path fill-rule="evenodd" clip-rule="evenodd" d="M310.135 92.8411C312.347 92.8411 314.244 91.5379 315.775 88.9675C316.928 87.0299 317.884 84.3493 318.614 80.9998C319.843 75.3613 320.023 69.6477 320.025 69.5907C320.035 69.1948 319.725 68.8646 319.329 68.853C318.931 68.8417 318.604 69.1528 318.592 69.5486C318.59 69.6045 318.413 75.2012 317.21 80.7108C316.145 85.5905 314.052 91.4075 310.135 91.4075C309.739 91.4075 309.418 91.7285 309.418 92.1247C309.418 92.5201 309.739 92.8411 310.135 92.8411Z" fill="#7A3909"></path>
<path fill-rule="evenodd" clip-rule="evenodd" d="M310.189 109.104C310.227 109.104 310.265 109.104 310.3 109.101C310.695 109.077 310.996 108.737 310.971 108.341C310.946 107.947 310.607 107.646 310.212 107.67C310.121 107.675 309.974 107.659 309.756 107.45C308.862 106.592 307.266 103.043 306.623 88.9015C306.251 80.7483 306.389 72.983 306.391 72.9055C306.398 72.5096 306.083 72.1826 305.688 72.1751C305.292 72.1664 304.965 72.483 304.958 72.8789C304.957 72.9569 304.818 80.7682 305.191 88.9667C305.411 93.7932 305.763 97.8122 306.236 100.913C306.857 104.973 307.684 107.449 308.765 108.486C309.288 108.986 309.81 109.104 310.189 109.104Z" fill="#7A3909"></path>
<path fill-rule="evenodd" clip-rule="evenodd" d="M284.411 102.17C286.444 102.17 288.164 101.445 289.522 100.016C293.322 96.0169 292.957 87.8504 292.94 87.5046C292.92 87.1092 292.584 86.8034 292.188 86.8245C291.793 86.8445 291.489 87.1812 291.509 87.5766C291.513 87.6618 291.857 95.4811 288.483 99.0293C287.39 100.178 286.059 100.735 284.411 100.735C284.016 100.735 283.695 101.056 283.695 101.452C283.695 101.849 284.016 102.17 284.411 102.17Z" fill="#7A3909"></path>
<path fill-rule="evenodd" clip-rule="evenodd" d="M333.908 143.291L333.489 98.4037C333.489 98.4037 333.128 95.1713 330.309 95.1713C327.302 95.1713 327.129 98.4037 327.129 98.4037C327.129 98.4037 327.173 98.6837 327.482 98.6837C327.805 98.6837 327.858 98.4037 327.858 98.4037C327.858 98.4037 327.991 95.9119 330.309 95.9119C332.483 95.9119 332.761 98.4037 332.761 98.4037V143.291H333.908Z" fill="#233862"></path>
<path fill-rule="evenodd" clip-rule="evenodd" d="M332.37 143.384H334.24L334.073 141.428C334.073 141.428 334.089 141.156 333.711 141.14C333.361 141.126 332.667 141.076 332.601 141.288C332.543 141.475 332.37 143.384 332.37 143.384Z" fill="#233862"></path>
<path fill-rule="evenodd" clip-rule="evenodd" d="M330.501 92.7981L330.629 93.44C330.629 93.44 333.8 93.4283 334.542 96.8286C334.542 96.8286 334.743 98.2437 333.723 97.9419C332.704 97.6393 332.862 96.918 331.419 96.5218C329.975 96.1265 329.034 95.823 328.815 94.7715L328.579 93.6014L330.501 92.7981Z" fill="#FFCFB9"></path>
<path fill-rule="evenodd" clip-rule="evenodd" d="M319.288 64.9639C319.288 64.9639 320.128 68.2668 320.851 71.2866C321.143 72.5031 321.415 73.6729 321.607 74.5627C321.802 75.477 321.914 76.0959 321.871 76.1645C321.242 77.1865 322.391 83.4176 323.3 85.6803C323.38 85.881 323.491 86.116 323.624 86.3771C324.895 88.8707 328.279 93.7658 328.279 93.7658C328.279 93.7658 329.234 93.8661 329.859 93.6303C330.38 93.4322 330.736 92.7953 330.736 92.7953C330.433 92.3071 329.208 86.5488 327.633 83.3199C326.959 81.9386 325.966 69.123 324.66 67.3976C323.571 65.9583 319.288 64.9639 319.288 64.9639Z" fill="#FFCC73"></path>
<path fill-rule="evenodd" clip-rule="evenodd" d="M321.976 76.1597C321.347 77.1816 322.496 83.4124 323.405 85.675C323.485 85.8757 323.596 86.1107 323.729 86.3717C324.944 80.994 322.931 73.3761 322.931 73.3761C322.428 73.5752 322.019 76.0912 321.976 76.1597Z" fill="#EBB352"></path>
<path fill-rule="evenodd" clip-rule="evenodd" d="M313.178 138.443C313.178 138.443 312.855 143.31 313.773 143.378C313.895 143.387 318.432 143.387 318.432 143.387H324.283C324.283 143.387 324.185 141.958 322.492 141.662C320.8 141.367 317.966 140.177 316.941 137.938C315.862 135.583 313.178 138.443 313.178 138.443Z" fill="#0F2949"></path>
<path fill-rule="evenodd" clip-rule="evenodd" d="M304.373 138.443C304.373 138.443 304.05 143.31 304.968 143.378C305.09 143.387 309.627 143.387 309.627 143.387H315.478C315.478 143.387 315.379 141.958 313.687 141.662C311.994 141.367 309.162 140.177 308.136 137.938C307.058 135.583 304.373 138.443 304.373 138.443Z" fill="#163560"></path>
<path fill-rule="evenodd" clip-rule="evenodd" d="M312.9 126.617C312.755 128.676 312.462 131.323 312.567 133.708C312.713 137.044 312.819 139.857 312.819 139.857C315.016 140.604 319.048 139.698 319.048 139.698C319.048 139.698 320.479 131.267 321.657 124.539C322.186 121.523 322.624 118.915 322.788 117.682C323.318 113.701 322.224 92.5336 322.224 92.5336C322.224 92.5336 316.277 88.7191 313.82 90.6855C311.364 92.6515 309.852 94.5732 313.81 116.113C314.11 117.747 313.222 122.007 312.9 126.617Z" fill="#45A698"></path>
<path fill-rule="evenodd" clip-rule="evenodd" d="M312.9 129.233C312.755 131.291 312.491 134.585 312.595 136.971C314.662 134.781 318.737 130.161 321.657 127.154C322.186 124.138 322.624 121.53 322.788 120.298C323.318 116.316 322.224 95.1489 322.224 95.1489C322.224 95.1489 316.277 91.3343 313.82 93.3007C311.364 95.2667 309.852 97.1885 313.81 118.728C314.11 120.362 313.222 124.623 312.9 129.233Z" fill="#2E8F81"></path>
<path fill-rule="evenodd" clip-rule="evenodd" d="M316.847 92.839C316.847 92.839 316.313 114.029 315.478 117.958C314.645 121.886 310.289 139.872 310.289 139.872C310.289 139.872 306.206 140.244 304.072 139.329C304.072 139.329 304.208 130.999 304.933 126.105C305.608 121.534 306.821 117.354 306.647 115.702C304.355 93.9215 306.01 92.1218 308.61 90.3505C311.211 88.5785 316.847 92.839 316.847 92.839Z" fill="#45A698"></path>
<path fill-rule="evenodd" clip-rule="evenodd" d="M320.701 60.1582C320.701 60.1582 319.068 62.6414 319.393 64.9589L316.978 70.7837L312.618 64.1156C312.618 64.1156 314.921 61.6075 315.781 58.1885L320.701 60.1582Z" fill="#FFCFB9"></path>
<path fill-rule="evenodd" clip-rule="evenodd" d="M321.422 62.2849C321.422 62.2849 315.476 62.5424 315.368 58.9709C315.26 55.3993 313.654 53.0234 318.101 52.7095C321.758 52.4514 322.973 53.9774 323.299 55.1607C323.624 56.3441 323.625 62.0934 321.422 62.2849Z" fill="#FFCFB9"></path>
<path fill-rule="evenodd" clip-rule="evenodd" d="M306.856 93.9792C308.133 94.0979 309.892 94.2458 312.026 94.3796C312.452 94.4063 312.893 94.4331 313.348 94.4581C319.79 94.8192 322.351 93.7752 322.351 93.7752C322.351 93.7752 322.523 93.6373 322.468 92.88C322.189 88.9813 321.361 87.8297 321.461 87.0888C321.685 85.4235 325.722 71.8342 325.722 71.8342C325.722 71.8342 325.801 67.5414 321.029 65.5267C320.537 65.3184 319.995 65.1352 319.395 64.9834C319.186 65.5389 318.614 66.4669 317.149 66.2959C314.983 66.0434 313.441 64.7658 312.78 64.1104C312.66 64.1104 312.613 64.1141 312.613 64.1141C312.451 64.5704 312.325 65.0467 312.213 65.5305C311.822 67.2178 311.593 68.9929 310.558 70.3201C309.537 71.6303 308.663 72.9223 307.917 74.1861C307.296 75.2378 306.764 76.2704 306.309 77.2761C302.085 86.6171 305.352 93.8379 306.856 93.9792Z" fill="#FFCC73"></path>
<path fill-rule="evenodd" clip-rule="evenodd" d="M306.989 93.98C308.266 94.0987 310.024 94.2466 312.158 94.3804C312.781 83.8867 308.507 73.8077 308.507 73.8077C308.346 73.9207 308.194 74.0474 308.05 74.187C307.305 74.9105 306.787 75.9843 306.442 77.277C305.169 82.0352 306.234 89.7662 306.989 93.98Z" fill="#EBB352"></path>
<path fill-rule="evenodd" clip-rule="evenodd" d="M323.336 58.8731C323.336 58.8731 324.494 63.4679 322.53 64.1151C320.566 64.7621 315.352 64.2437 315.354 58.6104C315.354 58.6104 318.09 60.2434 319.397 60.2021C320.704 60.1609 321.548 59.4062 322.756 59.9957C322.756 59.9957 323.198 59.9664 323.336 58.8731Z" fill="#F5F9FF"></path>
<path fill-rule="evenodd" clip-rule="evenodd" d="M315.644 53.8159C315.744 53.4513 316.193 53.2598 316.193 53.2598C319.541 51.8003 321.988 53.3971 321.988 53.3971C319.935 50.6403 314.982 51.2191 313.939 53.7057C312.236 57.7657 315.351 58.6111 315.351 58.6111C315.351 58.6111 318.463 57.3029 316.661 55.6626C316.064 55.1191 315.775 54.6359 315.68 54.2155C315.648 54.0752 315.637 53.942 315.644 53.8159Z" fill="#F5F9FF"></path>
<path fill-rule="evenodd" clip-rule="evenodd" d="M320.955 61.0628C320.955 61.0628 321.064 61.453 322.041 61.3508C322.041 61.3508 322.861 61.2653 322.818 60.8334C322.818 60.8334 322.008 60.5589 320.955 61.0628Z" fill="#FFB492"></path>
<path fill-rule="evenodd" clip-rule="evenodd" d="M296.547 72.6027C296.547 72.6027 295.464 75.3266 295.559 78.919C295.63 81.6716 298.139 90.1618 298.907 91.3922C299.642 92.5683 304.957 96.8481 306.268 97.2561C306.359 97.2836 306.452 97.2377 306.513 97.1332L307.69 95.1454C307.799 94.9573 307.781 94.6706 307.65 94.5168L302.704 88.4974L301.138 78.8353C300.616 75.6238 298.871 73.1478 296.69 72.634C296.643 72.6229 296.594 72.6124 296.547 72.6027Z" fill="#BF343A"></path>
<path fill-rule="evenodd" clip-rule="evenodd" d="M297.771 126.438L294.282 140.999C294.282 140.999 292.609 141.515 290.871 140.999C290.871 140.999 290.227 138.301 290.208 134.935C290.198 133.176 290.36 131.231 290.874 129.398C291.083 128.65 291.351 127.923 291.688 127.232C294.445 121.597 297.771 126.438 297.771 126.438Z" fill="#FFCFB9"></path>
<path fill-rule="evenodd" clip-rule="evenodd" d="M299.384 143.382H290.201C290.201 143.382 290.057 141.992 290.461 140.662C290.52 140.464 290.593 140.268 290.679 140.078C290.679 140.078 292.729 140.543 294.497 140.078C294.497 140.078 296.158 141.494 297.163 141.929C298.167 142.363 299.277 142.127 299.384 143.382Z" fill="#282828"></path>
<path fill-rule="evenodd" clip-rule="evenodd" d="M296.82 130.401L296.233 132.851C295.234 133.488 293.08 134.642 290.205 134.941C290.195 133.181 290.357 131.237 290.871 129.403C291.715 128.974 292.575 128.75 293.307 128.877C295.129 129.196 296.213 129.862 296.82 130.401Z" fill="#FFB492"></path>
<path fill-rule="evenodd" clip-rule="evenodd" d="M294.621 143.385H290.207C290.207 143.385 290.062 141.995 290.467 140.664C291.574 141.009 293.829 141.875 294.621 143.385Z" fill="#282828"></path>
<path fill-rule="evenodd" clip-rule="evenodd" d="M289.951 126.438L286.462 140.999C286.462 140.999 284.789 141.515 283.05 140.999C283.05 140.999 282.406 138.301 282.388 134.935C282.378 133.176 282.54 131.231 283.054 129.398C283.263 128.65 283.531 127.923 283.868 127.232C286.625 121.597 289.951 126.438 289.951 126.438Z" fill="#FFCFB9"></path>
<path fill-rule="evenodd" clip-rule="evenodd" d="M282.867 140.078C282.867 140.078 284.917 140.544 286.685 140.078C286.685 140.078 288.347 141.495 289.352 141.93C290.356 142.364 291.467 142.128 291.572 143.383H282.389C282.389 143.383 282.198 141.549 282.867 140.078Z" fill="#282828"></path>
<path fill-rule="evenodd" clip-rule="evenodd" d="M289 130.401L288.413 132.851C287.415 133.488 285.261 134.642 282.386 134.941C282.376 133.181 282.538 131.237 283.051 129.403C283.896 128.974 284.755 128.75 285.487 128.877C287.31 129.196 288.393 129.862 289 130.401Z" fill="#FFB492"></path>
<path fill-rule="evenodd" clip-rule="evenodd" d="M299.685 130.045C299.465 130.861 298.724 131.428 297.879 131.428H283.154C282.046 131.428 281.173 130.485 281.257 129.379C281.412 127.372 281.421 124.484 281.662 122.27C281.763 121.35 281.56 119.599 281.503 119.215C280.017 109.374 279.56 98.4088 279.711 96.1937C279.733 95.8819 279.748 95.7205 279.748 95.7205C279.748 95.7205 280.819 95.6303 282.451 95.5667C287.193 95.3795 296.658 95.4113 298.231 98.515C299.832 101.676 300.801 122.663 300.801 122.663C301.034 124.624 300.207 128.113 299.685 130.045Z" fill="#306ECA"></path>
<path fill-rule="evenodd" clip-rule="evenodd" d="M281.657 122.379C281.757 121.459 281.549 119.534 281.491 119.15C280.005 109.31 279.565 98.4137 279.716 96.1986C279.738 95.8868 279.753 95.7255 279.753 95.7255C279.753 95.7255 280.825 95.6352 282.456 95.5717C284.909 97.0169 286.505 99.4803 286.505 99.4803C286.505 99.4803 285.457 118.389 281.657 122.379Z" fill="#003B94"></path>
<path fill-rule="evenodd" clip-rule="evenodd" d="M291.35 55.1831C290.174 54.8888 289.491 55.8162 289.491 56.9081C289.491 58.0002 290.376 58.8853 291.467 58.8853C292.558 58.8853 293.443 57.6203 293.443 56.5282C293.443 55.4362 292.41 55.4478 291.35 55.1831Z" fill="#F5F9FF"></path>
<path fill-rule="evenodd" clip-rule="evenodd" d="M290.739 66.5085C290.739 66.5085 284.612 60.9866 290.159 57.0773C290.159 57.0773 291.814 56.6359 292.655 56.7936C292.655 56.7936 295.671 55.9108 297.435 57.9601C299.199 60.0094 299.966 61.4911 298.454 63.3196C296.941 65.1482 290.739 66.5085 290.739 66.5085Z" fill="#F5F9FF"></path>
<path fill-rule="evenodd" clip-rule="evenodd" d="M283.712 99.8614C283.712 99.8614 285.224 102.899 282.317 105.22C282.317 105.22 281.056 106.083 280.862 104.962C280.67 103.84 280.893 104.23 280.589 102.658C280.284 101.086 280.673 99.4593 281.577 98.7513L283.712 99.8614Z" fill="#FFCFB9"></path>
<path fill-rule="evenodd" clip-rule="evenodd" d="M307.701 94.804C307.701 94.804 309.507 95.328 309.433 99.0484C309.433 99.0484 309.328 100.569 308.673 99.9912C308.017 99.4128 308.559 98.6898 307.568 98.4875C306.508 98.2711 306.525 97.6241 306.26 97.253L307.701 94.804Z" fill="#FFB492"></path>
<path fill-rule="evenodd" clip-rule="evenodd" d="M295.755 66.4519C295.755 66.4519 295.68 67.2788 295.54 68.3961C295.471 68.942 295.388 69.5578 295.29 70.1801C295.22 70.6268 295.142 71.0776 295.058 71.5084L293.161 77.9196L288.706 70.7063C288.706 70.7063 289.753 69.8396 291.172 65.1425C291.186 65.0925 291.195 65.0654 291.195 65.0654L295.755 66.4519Z" fill="#FFCFB9"></path>
<path fill-rule="evenodd" clip-rule="evenodd" d="M298.355 98.0884C298.412 98.809 298.23 98.9394 298.23 98.9394C298.23 98.9394 295.49 99.9333 288.602 99.5897C287.856 99.5521 287.155 99.5145 286.499 99.4752C282.059 99.2136 279.685 98.9394 279.685 98.9394C279.685 98.9394 276.049 90.5411 282.88 80.1931C283.652 79.0234 284.559 77.8282 285.619 76.618C286.725 75.3553 286.97 73.6658 287.389 72.0603C287.508 71.6001 287.162 71.4985 287.335 71.0643C287.335 71.0643 288.581 70.712 288.709 70.712C289.417 71.3356 290.35 72.5483 292.666 72.788C294.232 72.9516 294.846 72.0683 295.069 71.5389C295.666 71.7547 296.285 72.1278 296.791 72.3713C296.857 72.4028 296.921 72.4347 296.985 72.4672C300.081 74.0415 301.567 77.6447 300.568 80.973C299.423 84.7878 297.447 91.4564 297.277 92.5765C297.17 93.2812 298.056 94.377 298.355 98.0884Z" fill="#D6565A"></path>
<path fill-rule="evenodd" clip-rule="evenodd" d="M295.544 68.3961C295.476 68.942 295.245 70.4364 295.147 71.0585C290.43 69.2183 291.048 65.6321 291.177 65.1425C291.19 65.0925 291.199 65.0654 291.199 65.0654C291.199 65.0654 293.695 66.8384 295.544 68.3961Z" fill="#FFB492"></path>
<path fill-rule="evenodd" clip-rule="evenodd" d="M296.559 69.0357C296.559 69.0357 291.112 69.2106 291.055 65.814C290.998 62.4173 290.257 60.1523 293.733 59.897C297.209 59.6417 297.907 60.9265 298.202 62.0556C298.496 63.1848 297.975 68.9027 296.559 69.0357Z" fill="#FFCFB9"></path>
<path fill-rule="evenodd" clip-rule="evenodd" d="M295.179 67.1606C295.179 67.1606 295.289 67.5508 296.266 67.4486C296.266 67.4486 297.085 67.3631 297.043 66.9312C297.043 66.9312 296.232 66.6567 295.179 67.1606Z" fill="white"></path>
<path fill-rule="evenodd" clip-rule="evenodd" d="M297.033 59.3841C297.033 59.3841 296.691 65.0551 290.049 64.4466C290.049 64.4466 290.19 56.593 297.033 59.3841Z" fill="#F5F9FF"></path>
<path fill-rule="evenodd" clip-rule="evenodd" d="M295.757 59.9502C295.757 59.9502 297.43 62.7759 298.274 63.5112C298.274 63.5112 300.534 60.018 295.757 59.9502Z" fill="#F5F9FF"></path>
<path fill-rule="evenodd" clip-rule="evenodd" d="M286.501 99.4734C282.061 99.2118 279.687 98.9376 279.687 98.9376C279.687 98.9376 276.051 90.5398 282.882 80.1925C284.264 83.4184 287.526 92.0394 286.501 99.4734Z" fill="#BF343A"></path>
<path fill-rule="evenodd" clip-rule="evenodd" d="M288.712 70.712C288.712 70.712 283.442 71.7942 281.094 74.5151C279.294 76.6 277.326 86.7936 277.326 88.4781C277.326 90.0872 279.175 98.6451 280.329 100.286C280.409 100.4 280.543 100.462 280.682 100.448L283.65 100.133C283.898 100.107 284.073 99.8789 284.035 99.6323L282.367 88.8149L288.221 78.4249C288.221 78.4249 291.672 74.3308 288.712 70.712Z" fill="#D6565A"></path>
<path fill-rule="evenodd" clip-rule="evenodd" d="M308.903 94.8186C308.903 94.8186 310.318 97.6589 307.599 99.8296C307.599 99.8296 306.42 100.636 306.239 99.588C306.058 98.539 306.267 98.9043 305.982 97.434C305.698 95.9638 306.062 94.4425 306.907 93.7805L308.903 94.8186Z" fill="#FFCFB9"></path>
<path fill-rule="evenodd" clip-rule="evenodd" d="M312.741 64.1143C312.741 64.1143 308.586 64.2078 306.39 67.0669C304.708 69.2577 302.928 81.013 302.928 82.783C302.928 84.553 304.823 94.3208 305.884 95.3824C305.884 95.3824 306.569 95.5596 307.486 95.3824C308.458 95.1943 309.031 94.6317 309.031 94.6317C309.031 94.6317 308.503 83.7564 308.503 82.7363C308.503 81.2595 313.117 72.2192 313.117 72.2192C313.117 72.2192 315.51 67.9168 312.741 64.1143Z" fill="#FFCC73"></path>
</svg>