<svg width="768" height="187" viewBox="0 0 768 187" fill="none" xmlns="http://www.w3.org/2000/svg">
<path d="M605.764 149.936V113.604H599.301V98.1183H595.426V87.7253H580.293V98.1183H576.419V113.604H569.964V133.283L566.991 133.517L566.09 75.2052H546.162V106.229L539.151 106.462V57.9728H536.753V47.7441H515.722V57.9728V122.752H478.455V97.4352L456.206 98.0923V78.1537H442.127V66.3685H425.527V49.3178H420.732V40.9999H410.211V99.3547H398.722V108.105H394.11V98.0578L339.522 97.4093V137.339L337.489 137.373H334.909V102.908H331.217V92.9477H325.876V63.8697H318.127V92.9477H312.775V102.908H309.083V123.279H304.662V57.9469H302.265V47.7095H281.233V57.9469H278.836V106.428L271.825 106.194V75.1793H251.907L251.015 133.491L248.042 133.257V113.569H241.578V98.0923H237.713V87.6907H222.589V98.0923H218.715V113.569H212.261V149.902L206.727 149.677V113.639H188.228V153.049H176.931V135.946H163.274V174.354H162.258V176.248L315.144 176.507L596.232 177L606.119 176.974V150.55L605.764 149.936Z" fill="#D9EBF9"></path>
<path d="M568.596 148.171C634.873 146.176 729.336 170.516 743.294 174.511C753.328 177.383 760.899 181.896 760.899 181.896L768 185.998H761.333H756H33.6H0C0 185.998 0 184.768 3.20085 179.845C6.40169 174.922 23.104 148.412 48.9775 149.485C127.852 152.759 207.841 180.104 284.932 155.79C309.338 148.093 332.836 135.328 357.333 128.215C380.246 121.562 403.98 119.951 427.059 124.836C450.52 129.798 473.013 141.352 496.49 146.165C520.278 151.039 544.518 148.894 568.596 148.171Z" fill="#C6E7E3"></path>
<path fill-rule="evenodd" clip-rule="evenodd" d="M114.173 22.2758C112.041 21.2032 109.725 20.5739 107.353 20.4316C104.986 20.2893 102.608 20.6341 100.374 21.4495C98.1404 22.2648 96.0756 23.5235 94.3181 25.1652C92.5607 26.8069 91.1363 28.7878 90.127 31.0041L184.813 30.4733C183.368 27.9889 181.462 25.8218 179.203 24.0981C176.943 22.3743 174.376 21.1266 171.65 20.4207C168.925 19.7202 166.086 19.5779 163.309 20.0048C160.527 20.4316 157.857 21.4166 155.444 22.9106C154.132 18.3685 151.448 14.3792 147.779 11.5172C144.11 8.65515 139.653 7.07365 135.052 7.00251C130.451 6.93137 125.947 8.37606 122.196 11.1232C118.446 13.8703 115.648 17.7775 114.203 22.2758" fill="white"></path>
<path fill-rule="evenodd" clip-rule="evenodd" d="M211.9 21.8461C211.987 21.8464 212.079 21.8497 212.161 21.8584C212.419 21.8864 212.502 22.0351 212.502 22.0351C212.502 22.0351 212.135 22.2012 211.889 22.321C211.872 22.3373 211.859 22.3453 211.859 22.3453L211.859 22.3476L211.853 22.3654C211.828 22.4435 211.731 22.7398 211.568 23.0889C211.989 23.2037 212.502 23.2541 213.089 23.1417C214.18 22.9328 216.231 26.0296 217.57 28.2943C218.327 29.575 218.856 30.5894 218.856 30.5894C218.856 30.5894 218.851 30.5937 218.839 30.6002L218.825 30.6075C218.665 30.6878 217.887 30.9382 216.354 29.286C215.658 28.5367 215.128 27.898 214.691 27.4027C214.036 26.6617 213.591 26.2424 213.114 26.2541C212.318 26.2729 210.135 25.5077 209.454 24.8919L209.493 24.9262C208.891 25.1934 208.329 25.4163 208.239 25.575C208.067 25.8787 207.615 26.9693 207.615 26.9693L207.579 26.9694C207.349 26.9662 206.086 26.8983 205.619 25.7959C205.619 25.7959 207.163 24.8019 207.389 24.3464C207.437 24.2496 207.542 24.0956 207.692 23.9096C207.048 23.444 205.977 22.3335 205.625 21.7808C205.339 21.3329 204.712 21.2009 203.677 21.0611C203.076 20.98 202.336 20.8959 201.446 20.7458C199.126 20.3545 199.006 19.4134 199 19.3346L199 19.3293C199 19.3293 200.112 19.1859 201.556 19.0883C202.201 19.0446 202.913 19.0102 203.621 19.0017L203.833 19L204.045 18.9999C205.911 19.007 207.656 19.2208 207.984 19.9559C208.489 21.0897 209.398 21.7336 209.941 22.0344C210.136 21.9414 210.333 21.8676 210.528 21.82C210.528 21.82 210.763 21.6682 210.922 21.5852C211.065 21.5106 211.618 21.6156 211.847 21.8463L211.9 21.8461Z" fill="#6880BD"></path>
<path fill-rule="evenodd" clip-rule="evenodd" d="M531.285 27.9177C529.457 26.9529 527.469 26.3896 525.436 26.2607C523.404 26.1319 521.368 26.4402 519.448 27.1674C517.527 27.8947 515.761 29.0264 514.253 30.4963C512.744 31.9662 511.523 33.7448 510.661 35.7281L591.873 35.2631C590.634 33.0352 588.998 31.0921 587.06 29.5451C585.121 27.9982 582.917 26.8778 580.575 26.2482C578.233 25.6186 575.798 25.4922 573.41 25.8762C571.023 26.2602 568.729 27.1471 566.661 28.486C565.535 24.4183 563.231 20.843 560.085 18.2805C556.938 15.7179 553.113 14.3019 549.167 14.2385C545.22 14.1751 541.357 15.4676 538.141 17.9279C534.925 20.3882 532.523 23.8879 531.285 27.9177Z" fill="white"></path>
<path fill-rule="evenodd" clip-rule="evenodd" d="M665.175 0.0441633C665.294 0.236327 665.955 0.719217 666.768 1.31775C667.088 1.55406 667.432 1.80841 667.775 2.07002L667.934 2.19124C669.04 3.04283 670.099 3.95283 670.296 4.55749C670.341 4.69583 670.393 4.83585 670.451 4.97563C670.567 4.88601 670.689 4.79238 670.81 4.69905L670.91 4.62274C671.191 4.40719 671.463 4.19937 671.661 4.05188C671.974 3.81817 672.487 2.93613 672.922 2.11168C673.317 1.36344 673.648 0.662345 673.708 0.53559L673.715 0.520425C673.716 0.517013 673.717 0.515268 673.717 0.515268C673.717 0.515268 673.72 0.520248 673.724 0.529849L673.744 0.572153C673.894 0.898677 674.632 2.55518 674.65 3.56005C674.654 3.76429 674.628 3.94158 674.561 4.07528C674.128 4.94189 672.851 5.31661 672.548 6.13636C672.449 6.4038 672.373 6.63884 672.314 6.83415C672.64 6.8205 672.89 6.82648 673.025 6.86172C673.923 7.09579 673.879 7.50754 673.889 7.47139C673.889 7.47139 674.105 7.72935 674.31 7.84288C674.515 7.95654 674.651 8.37311 674.651 8.37311C674.501 8.32588 674.115 8.06802 673.824 8.05806C673.53 8.31016 672.639 8.49691 670.934 8.69742C668.523 8.98106 666.969 8.20889 666.704 8.08289C666.438 7.95684 665.967 8.36654 665.443 8.28777C664.921 8.20889 664.979 7.34226 665.043 7.04287C665.107 6.74354 665.996 7.18472 666.954 7.2832C667.121 7.30033 667.39 7.29281 667.726 7.26972C667.54 6.69461 667.38 5.67743 666.829 4.90733C666.736 4.77835 666.637 4.60393 666.536 4.39728V4.39678C666.319 3.95254 666.089 3.36042 665.879 2.75502L665.833 2.62033C665.343 1.18242 664.979 -0.273968 665.175 0.0441633Z" fill="#6880BD"></path>
<path d="M0 185.997C0 185.997 73.5522 173.926 203.537 177.745C336.745 181.583 518.692 178.419 518.692 178.419L519 181.972L517.461 183.156L513.154 184.814L508.847 185.998H0V185.997Z" fill="#E5F1FF"></path>
<path d="M92 185.999H631C615.703 174.519 554.517 167.913 481.31 170.646C472.429 170.978 464.302 171.591 456.854 172.406L456.861 172.401C456.751 172.414 456.646 172.425 456.539 172.438C456.245 172.471 455.954 172.503 455.663 172.537C411.278 177.71 326.315 171.233 322.795 170.517C282.491 162.252 280.877 167.257 204.172 170.398C130.286 173.422 92.4818 180.931 92 185.999Z" fill="#62B8AB"></path>
<path fill-rule="evenodd" clip-rule="evenodd" d="M688.735 158.999C682.163 158.999 676.435 162.829 673.302 168.53L673.169 168.522C663.81 168.522 656.128 176.271 655.284 186.168H705.237C706.172 183.805 706.701 181.205 706.701 178.468C706.701 167.715 698.654 158.999 688.735 158.999Z" fill="#45A698"></path>
<path fill-rule="evenodd" clip-rule="evenodd" d="M708.826 168.702C713.836 168.702 718.109 172.151 719.806 177.002C720.716 176.614 721.697 176.392 722.729 176.392C725.684 176.392 728.25 178.145 729.661 180.751C730.969 179.736 732.564 179.135 734.281 179.135C738.166 179.135 741.406 182.152 742.163 186.168H697.816C697.336 184.754 697.06 183.229 697.06 181.629C697.06 174.49 702.325 168.702 708.826 168.702Z" fill="#45A698"></path>
<path fill-rule="evenodd" clip-rule="evenodd" d="M693.313 176.665C692.05 176.665 690.849 176.942 689.751 177.442C688.232 174.22 685.152 172.009 681.58 172.009C677.453 172.009 673.963 174.956 672.803 179.011C671.201 177.55 669.138 176.665 666.89 176.665C666.13 176.665 665.401 176.775 664.693 176.963C663.358 173.267 660.043 170.647 656.152 170.647C652.118 170.647 648.699 173.47 647.468 177.389C646.4 176.926 645.25 176.665 644.039 176.665C641.206 176.665 638.67 178.056 636.987 180.238C635.734 179.533 634.307 179.127 632.788 179.127C628.651 179.127 625.151 182.096 624.001 186.172H702.48C702.264 180.885 698.251 176.665 693.313 176.665Z" fill="#98D4CB"></path>
<path fill-rule="evenodd" clip-rule="evenodd" d="M227.925 168.292C232.749 168.292 237.039 170.119 239.81 172.955C241.477 172.443 243.284 172.15 245.176 172.15C253.538 172.15 260.31 177.612 260.31 184.349C260.31 184.871 260.254 185.382 260.177 185.887H214.366C213.367 184.258 212.791 182.431 212.791 180.491C212.791 173.754 219.563 168.292 227.925 168.292Z" fill="#45A698"></path>
<path fill-rule="evenodd" clip-rule="evenodd" d="M189.473 175.444C194.589 175.444 198.739 179.906 198.739 185.412C198.739 185.575 198.723 185.734 198.713 185.895H180.228C180.217 185.734 180.207 185.575 180.207 185.412C180.207 179.906 184.352 175.444 189.473 175.444Z" fill="#45A698"></path>
<path fill-rule="evenodd" clip-rule="evenodd" d="M201.781 172.585C208.244 172.585 213.487 178.222 213.487 185.177C213.487 185.383 213.467 185.584 213.454 185.788H190.102C190.088 185.584 190.075 185.383 190.075 185.177C190.075 178.222 195.312 172.585 201.781 172.585Z" fill="#45A698"></path>
<path fill-rule="evenodd" clip-rule="evenodd" d="M192.627 178.512C194.802 178.512 196.801 179.336 198.367 180.708C198.793 174.566 203.549 169.722 209.371 169.722C214.44 169.722 218.701 173.404 219.998 178.415C220.775 178.134 221.608 177.976 222.479 177.976C224.472 177.976 226.283 178.781 227.668 180.096C229.103 178.202 231.29 176.992 233.74 176.992C238.07 176.992 241.585 180.768 241.585 185.426C241.585 185.668 241.566 185.908 241.547 186.146H183.754C184.669 181.778 188.291 178.512 192.627 178.512Z" fill="#98D4CB"></path>
<path d="M70.9427 186.339L20.7818 186.173C20.7818 186.173 8.12851 176.816 3.00195 160C21.4863 165.686 27.9803 180.688 34.4481 178.265C41.3245 175.684 70.3288 175.681 70.9427 186.339Z" fill="#98D4CB"></path>
<path d="M30.0389 178.204C29.7712 178.675 29.496 179.131 29.2133 179.571C27.8776 181.659 26.4075 183.383 24.7972 184.619C24.2666 185.031 23.7053 185.392 23.1192 185.7C23.1131 185.704 23.1066 185.707 23.1 185.709C23.0873 185.717 23.0742 185.724 23.0608 185.73L22.9998 185.761C22.7216 185.904 22.44 186.032 22.155 186.144L6.58594 186.236C7.1703 183.296 8.6913 181.243 10.8309 179.858C11.2374 179.596 11.6578 179.36 12.0898 179.153C12.2242 179.087 12.3594 179.022 12.4989 178.962C12.7351 178.857 12.9747 178.758 13.221 178.664C13.4288 178.585 13.6384 178.51 13.8537 178.44C14.3304 178.281 14.8246 178.142 15.3313 178.02C17.3741 177.532 19.6414 177.332 22.0022 177.332C23.4039 177.332 24.8406 177.403 26.2773 177.524C27.5463 177.635 28.8046 177.862 30.0389 178.204Z" fill="#96C8C1"></path>
<path d="M13.7595 180.894C13.7595 180.894 11.1563 170.577 9.16744 171.12C7.17863 171.663 13.7595 180.894 13.7595 180.894Z" fill="#96C8C1"></path>
<path d="M14.5866 182.084C14.5866 182.084 7.75321 173.909 6.19826 175.452C4.64331 176.995 14.5866 182.084 14.5866 182.084Z" fill="#96C8C1"></path>
<path d="M15.3784 183.568C15.3784 183.568 15.7958 173.022 13.8101 172.884C11.8244 172.746 15.3784 183.568 15.3784 183.568Z" fill="#96C8C1"></path>
<path fill-rule="evenodd" clip-rule="evenodd" d="M163.725 130.334L165.554 130.672C165.554 130.672 170.562 122.956 170.705 120.604C170.844 118.357 175.356 108.525 170.074 102.388C169.836 102.109 169.577 101.838 169.296 101.577C169.287 101.567 169.276 101.557 169.266 101.548C169.266 101.548 169.257 101.563 169.24 101.591C169.132 101.771 168.713 102.528 168.221 104.203C167.451 106.822 166.499 111.685 166.274 120.082C166.274 120.082 165.045 127.271 163.725 130.334Z" fill="#F5B997"></path>
<path fill-rule="evenodd" clip-rule="evenodd" d="M163.723 130.332C163.723 130.332 162.057 132.186 162.006 132.863C161.938 133.759 162.632 135.234 163.085 135.091C163.538 134.948 163.593 134.222 163.723 133.666C163.854 133.111 164.448 132.515 164.414 132.765C164.379 133.017 164.031 134.004 164.139 134.162C164.246 134.32 164.377 134.291 164.634 133.818C164.942 133.25 165.608 132.458 165.521 131.872C165.428 131.242 165.415 131.107 165.653 130.348C165.89 129.588 166.289 128.677 166.289 128.677L164.875 128.376L163.723 130.332Z" fill="#F5B997"></path>
<path fill-rule="evenodd" clip-rule="evenodd" d="M205.138 183.287C205.138 183.287 206.446 181.585 207.613 179.529C208.43 178.091 208.037 176.271 208.22 174.948C208.667 171.737 212.202 166.823 211.848 165.924C211.494 165.025 205.759 163.314 205.759 163.314C205.759 163.314 204.441 172.335 203.564 178.168C203.308 179.869 203.091 181.3 202.953 182.156L205.138 183.287Z" fill="#F5B997"></path>
<path fill-rule="evenodd" clip-rule="evenodd" d="M202.953 182.159L205.138 183.291C205.138 183.291 206.446 181.589 207.613 179.533C206.704 179.465 205.124 179.193 203.564 178.172C203.308 179.873 203.091 181.304 202.953 182.159Z" fill="#CAD2E8"></path>
<path fill-rule="evenodd" clip-rule="evenodd" d="M207.921 165.376C207.921 165.376 210.681 169.269 212.354 174.741C212.747 176.03 214.088 177.636 215.444 179.061C216.759 180.446 218.087 181.661 218.579 182.259L220.804 181.19C220.804 181.19 220.022 178.946 218.865 176.912C218.436 176.154 217.956 175.426 217.443 174.853C216.734 174.06 216.967 164.046 216.262 163.387C215.555 162.726 207.921 165.376 207.921 165.376Z" fill="#F5B997"></path>
<path fill-rule="evenodd" clip-rule="evenodd" d="M214.183 147.517L214.172 147.524C214.182 147.528 214.183 147.517 214.183 147.517Z" fill="#FFB27D"></path>
<path fill-rule="evenodd" clip-rule="evenodd" d="M208.478 150.955L214.173 147.52C214.142 147.507 214.027 147.335 213.601 146.104C213.42 145.579 213.323 145.124 213.276 144.762C213.271 144.727 213.267 144.691 213.263 144.657C213.205 144.132 213.248 143.829 213.248 143.829L212 144.28L209.693 145.116C209.72 145.701 209.637 146.112 209.513 146.394C209.212 147.08 208.65 147.085 208.634 147.085L208.478 150.955Z" fill="#F5B997"></path>
<path fill-rule="evenodd" clip-rule="evenodd" d="M209.401 145.595C209.401 145.595 214.356 146.139 214.457 142.791C214.558 139.442 215.291 137.91 211.863 137.611C208.435 137.312 207.625 138.547 207.423 139.68C206.792 143.218 208.005 145.445 209.401 145.595Z" fill="#F5B997"></path>
<path fill-rule="evenodd" clip-rule="evenodd" d="M218.645 134.23C218.714 134.074 218.763 133.974 218.763 133.974C218.712 134.045 218.673 134.132 218.645 134.23Z" fill="#D35C2B"></path>
<path fill-rule="evenodd" clip-rule="evenodd" d="M207.808 147.42C207.808 147.42 203.057 143.771 202.55 142.563C202.043 141.356 199.862 136.934 199.299 136.483C199.299 136.483 198.118 136.331 197.949 137.149C197.78 137.966 199.074 142.816 199.975 144.279C200.877 145.745 205.196 150.708 206.615 151.429L207.808 147.42Z" fill="#F5B997"></path>
<path fill-rule="evenodd" clip-rule="evenodd" d="M196.265 134.248C196.343 134.671 196.516 135.125 196.719 135.359C196.986 135.673 197.409 136.299 197.675 136.707C197.847 136.957 197.957 137.145 197.957 137.145L199.304 136.488C199.304 136.488 199.335 134.202 198.443 133.716C198.411 133.701 198.396 133.684 198.364 133.684C197.988 133.48 197.628 133.34 197.315 133.246C196.892 133.136 196.563 133.121 196.375 133.23C196.202 133.325 196.171 133.779 196.265 134.248Z" fill="#F5B997"></path>
<path fill-rule="evenodd" clip-rule="evenodd" d="M211.596 139.246C213.349 138.802 212.679 141.906 213.121 141.694C213.617 141.456 214.469 141.46 214.335 142.058C214.2 142.657 214.006 142.871 213.905 143.244C213.804 143.617 213.906 144.356 214.313 144.208C214.721 144.059 218.512 139.731 215.835 136.361C213.158 132.99 205.176 135.067 207.689 138.592C208.131 139.211 210.347 139.562 211.596 139.246Z" fill="#2C3A64"></path>
<path fill-rule="evenodd" clip-rule="evenodd" d="M207.205 152.03C206.364 148.518 208.476 147.088 208.476 147.088C208.476 147.088 208.529 146.799 208.122 146.689C207.715 146.58 206.214 146.154 206.214 146.154C206.214 146.154 204.914 147.159 204.864 149.316C204.856 149.635 204.875 149.98 204.932 150.351L205.87 151.432C205.87 151.432 206.054 151.839 207.205 152.03Z" fill="white"></path>
<path fill-rule="evenodd" clip-rule="evenodd" d="M209.378 147.755L209.629 148.553L208.828 148.154L209.378 147.755Z" fill="#DCEFF2"></path>
<path fill-rule="evenodd" clip-rule="evenodd" d="M210.451 172.559C213.579 172.135 216.353 172.063 219.281 170.484C219.281 170.484 217.725 162.76 217.629 162.384C217.492 161.844 216.497 157.692 215.577 153.852C214.736 150.34 213.959 147.087 213.959 147.087C213.959 147.087 210.96 149.092 209.608 148.511C208.255 147.929 209.108 146.915 209.108 146.915C209.108 146.915 209.096 146.63 208.125 146.689C207.504 147.309 206.753 148.89 205.872 151.432C205.872 151.432 203.821 163.442 203.321 170.927C203.321 170.927 208.128 172.873 210.451 172.559Z" fill="#1054BB"></path>
<path fill-rule="evenodd" clip-rule="evenodd" d="M199.333 184.837H205.857C205.857 184.837 205.982 183.777 205.832 182.87C205.814 182.76 205.757 182.66 205.671 182.572C205.289 182.701 204.728 182.793 204.103 182.569C203.592 182.385 203.213 182.106 202.949 181.851C202.882 181.917 201.534 183.201 200.911 183.201C200.272 183.201 199.296 183.509 199.333 184.837Z" fill="white"></path>
<path fill-rule="evenodd" clip-rule="evenodd" d="M215.444 179.065C216.759 180.45 218.087 181.665 218.579 182.263L220.804 181.193C220.804 181.193 220.022 178.95 218.865 176.916C218.467 177.534 217.423 178.809 215.444 179.065Z" fill="#CAD2E8"></path>
<path fill-rule="evenodd" clip-rule="evenodd" d="M218.096 181.684C218.096 181.684 218.177 183.099 217.705 183.287C217.233 183.475 216.352 183.938 216.352 184.836H219.62C219.62 184.836 221.874 183.729 222.175 183.259C222.475 182.788 220.673 180.779 220.673 180.779C220.673 180.779 219.566 182.002 218.096 181.684Z" fill="white"></path>
<path fill-rule="evenodd" clip-rule="evenodd" d="M212.691 158.676C212.691 158.676 211.26 158.409 210.7 158.774C210.141 159.14 209.975 159.713 210.378 159.947C211.641 160.681 212.922 159.87 212.922 159.87L212.691 158.676Z" fill="#F5B997"></path>
<path fill-rule="evenodd" clip-rule="evenodd" d="M213.9 147.537C213.9 147.537 218.307 148.469 220.045 155.318C220.215 155.987 220.04 156.703 219.576 157.216C218.777 158.101 217.015 159.396 212.918 159.873C212.471 159.925 212.41 158.791 212.41 158.791C212.455 158.881 215.194 157.022 216.359 156.023C216.57 155.842 216.561 155.462 216.409 155.231C216.015 154.63 215.354 153.591 215.132 153.058C214.808 152.28 212.668 147.89 213.9 147.537Z" fill="#F5B997"></path>
<path fill-rule="evenodd" clip-rule="evenodd" d="M213.959 147.086C213.959 147.086 216.551 147.269 218.664 150.085C218.664 150.085 217.949 152.675 214.592 153.367C214.592 153.367 212.523 148.704 213.959 147.086Z" fill="white"></path>
<path fill-rule="evenodd" clip-rule="evenodd" d="M214.594 135.334C214.594 135.334 217.087 134.656 218.763 136.474C220.439 138.293 217.998 141.627 220.342 143.453C222.685 145.279 221.759 146.641 220.807 147.087C218.666 148.086 215.394 146.841 216.06 145.155C217.339 141.911 215.446 139.441 215.446 139.441L214.594 135.334Z" fill="#2C3A64"></path>
<path fill-rule="evenodd" clip-rule="evenodd" d="M180.716 163.9C180.712 163.937 180.707 163.971 180.706 164.002C180.448 166.447 179.913 168.925 179.274 171.227C177.609 177.235 175.211 181.812 175.211 181.812L173.223 181.627C173.223 181.627 174.31 177.006 174.404 170.728C174.469 166.339 174.049 161.14 172.433 156.147C171.487 153.226 170.738 150.444 170.147 147.837C168.22 139.334 167.972 132.709 168.019 129.26C168.042 127.558 168.136 126.628 168.136 126.628L179.313 128.206L179.834 128.279C179.759 133.426 179.725 140.415 179.71 145.881C179.707 147.198 179.705 148.428 179.702 149.521C179.7 151.038 179.699 152.293 179.699 153.163C179.699 154.003 179.699 154.48 179.699 154.48C180.336 155.941 180.683 157.581 180.814 159.313C180.924 160.773 180.879 162.299 180.723 163.837C180.721 163.859 180.719 163.88 180.716 163.9Z" fill="#D6565A"></path>
<path fill-rule="evenodd" clip-rule="evenodd" d="M176.433 179.7C176.482 179.439 176.55 179.109 176.629 178.748C177.435 176.854 178.445 174.219 179.273 171.228C176.458 171.463 175.071 171.085 174.403 170.728C174.367 173.165 174.181 175.353 173.967 177.116C173.673 178.216 173.133 179.973 172.515 180.709C171.53 181.881 170.446 182.888 169.137 183.551C168.991 183.625 172.413 184.828 174.162 184.644C175.912 184.461 177.357 184.15 177.197 183.068C177.141 182.687 177.043 182.295 176.892 181.949C176.611 181.313 176.287 180.474 176.433 179.7Z" fill="#F5B997"></path>
<path fill-rule="evenodd" clip-rule="evenodd" d="M180.723 163.836C180.901 161.789 177.403 154.718 177.403 154.718L179.699 153.162C179.699 154.002 179.699 154.479 179.699 154.479C180.336 155.94 180.683 157.58 180.814 159.312C180.924 160.772 180.879 162.298 180.723 163.836Z" fill="#CB4147"></path>
<path fill-rule="evenodd" clip-rule="evenodd" d="M174.027 184.95C172.271 184.858 172.762 185.27 170.322 185.459C167.882 185.646 166.99 184.893 166.849 184.552C166.725 184.248 167.884 183.914 169.123 183.528L169.14 183.551C169.14 183.551 170.765 184.295 172.764 183.966C174.392 183.699 176.021 182.909 177.145 182.714C177.24 183.08 177.336 183.455 177.332 183.84C177.32 184.934 175.784 185.042 174.027 184.95Z" fill="#252428"></path>
<path fill-rule="evenodd" clip-rule="evenodd" d="M179.713 145.881C179.71 147.198 177.408 153.624 177.406 154.717C175.545 152.067 173.934 133.74 171.358 129.103C171.38 127.401 168.139 126.628 168.139 126.628L179.316 128.206L179.838 128.279C179.762 133.426 179.728 140.415 179.713 145.881Z" fill="#CB4147"></path>
<path fill-rule="evenodd" clip-rule="evenodd" d="M186.611 78.7103C187.624 79.3296 187.79 81.4141 187.639 82.0485C187.487 82.683 186.369 84.5711 185.629 84.5711C185.348 84.5711 185.048 84.4778 184.784 84.362C184.897 84.6977 185 85.0623 185.085 85.4623C185.871 89.1612 184.446 91.3984 182.581 92.0449C180.715 92.6913 180.704 92.2597 180.704 92.2597L173.932 83.2871C173.932 83.2871 178.651 77.6193 181.599 80.2783C181.631 80.1658 181.971 78.5846 183.051 78.1511C184.193 77.6927 186.091 78.392 186.611 78.7103Z" fill="#233862"></path>
<path fill-rule="evenodd" clip-rule="evenodd" d="M170.959 123.886C174.032 114.068 170.665 111.934 170.985 107.021C171.305 102.107 175.11 96.8248 175.11 96.8248C175.11 96.8248 175.304 96.8052 175.633 96.7754C175.888 96.6411 175.956 95.5727 175.953 94.4457C175.95 93.0931 175.846 91.6575 175.846 91.6575L180.41 90.7541L180.682 90.7007C180.67 93.8759 181.507 95.9606 182.113 96.446C182.683 96.5113 185.114 96.8172 186.613 97.4434C187.178 97.6789 187.609 97.9602 187.759 98.2902C189.013 101.045 190.264 107.997 191.143 112.956C191.633 115.719 192.007 117.865 192.202 118.319C192.747 119.588 194.409 126.567 195.83 130.01L194.542 131.593C194.542 131.593 188.031 120.63 187.487 118.047C187.31 117.207 186.874 115.525 186.367 113.639C186.29 113.355 186.211 113.065 186.132 112.773C185.235 115.203 184.778 116.328 184.803 117.378C184.838 118.872 185.852 120.216 187.971 124.966C189.141 127.59 167.822 133.913 170.959 123.886Z" fill="#F5B997"></path>
<path fill-rule="evenodd" clip-rule="evenodd" d="M180.883 90.9804C180.883 90.9804 182.221 88.8666 182.542 87.0591C182.772 85.7687 182.114 80.9856 177.305 81.6745C177.305 81.6745 175.909 81.812 174.596 82.6983C173.552 83.4031 172.045 84.9248 173.73 89.0987L174.167 90.5086L180.883 90.9804Z" fill="#233862"></path>
<path fill-rule="evenodd" clip-rule="evenodd" d="M174.998 93.658C174.998 93.658 181.041 93.7577 181.045 89.9953C181.049 86.233 181.832 83.7121 177.974 83.4894C174.116 83.2667 173.365 84.7015 173.058 85.957C172.751 87.2124 173.426 93.5351 174.998 93.658Z" fill="#F5B997"></path>
<path fill-rule="evenodd" clip-rule="evenodd" d="M178.017 156.317C178.401 157.036 182.203 161.606 186.023 166.665C186.35 167.097 186.689 167.564 187.037 168.055C189.287 171.223 191.879 175.354 193.427 177.365C194.835 179.194 196.1 176.903 195.39 175.271C194.269 172.694 193.32 168.189 192.235 164.874C191.985 164.107 191.727 163.404 191.458 162.803C190.29 160.191 188.32 156.537 185.553 153.706C185.072 153.214 189.261 142.282 188.961 133.239C188.844 129.656 188.344 126.505 187.202 124.585L175.833 125.148C175.833 125.148 174.278 149.299 178.017 156.317Z" fill="#D6565A"></path>
<path fill-rule="evenodd" clip-rule="evenodd" d="M173.236 83.8674C174.168 82.7377 174.874 82.9833 175.269 83.3226C178.509 81.5263 180.703 84.1929 180.703 84.1929C181.107 86.8923 183.054 88.4387 183.054 88.4387C183.054 88.4387 181.953 89.1187 179.414 88.4661C178.639 88.267 177.947 87.7174 177.359 87.05C178.386 88.7703 179.783 90.0096 179.783 90.0096C176.75 88.6082 175.533 84.3919 175.411 83.946C175.042 84.2771 174.315 84.9964 174.093 85.7015C173.792 86.6595 173.657 88.6318 173.082 88.5647C173.082 88.5647 171.835 85.5646 173.236 83.8674Z" fill="#233862"></path>
<path fill-rule="evenodd" clip-rule="evenodd" d="M195.684 129.683C195.684 129.683 196.236 130.982 196.81 131.345C197.384 131.707 197.743 132.464 197.592 133.159C197.441 133.853 197.747 135.061 197.022 135.061C196.296 135.061 194.604 131.859 194.392 131.254C194.18 130.651 193.999 130.529 193.999 130.529L195.684 129.683Z" fill="#F5B997"></path>
<path fill-rule="evenodd" clip-rule="evenodd" d="M189.399 129.064C189.418 129.455 189.398 129.767 189.328 129.991C189.086 130.768 188.255 131.122 186.247 130.91C185.02 130.78 184.473 128.681 184.229 126.889C183.491 129.452 182.459 130.89 181.125 131.192C179.178 131.635 168.658 132.378 168.015 127.611C167.308 122.371 170.124 113.565 170.24 108.561C169.952 106.786 169.853 105.246 169.884 103.923C169.966 100.358 170.991 98.3601 171.779 97.5555C172.002 97.3807 172.226 97.2715 173.122 97.1146C173.58 97.035 174.214 96.9429 175.113 96.8221C175.113 96.8221 175.5 96.7715 175.492 96.7851C175.326 97.0883 173.538 99.7748 173.712 100.659C173.893 101.584 180.766 101.451 181.31 100.942C181.854 100.433 183.274 96.5952 183.274 96.5952C183.274 96.5952 186.068 96.9068 187.434 97.9212C187.434 97.9212 187.429 97.9276 187.42 97.9393C187.585 98.0601 187.708 98.1884 187.779 98.3251C189.237 101.158 190.693 108.309 191.716 113.409C189.235 114.806 187.067 114.39 186.394 114.206C187.273 120.081 189.268 126.388 189.399 129.064Z" fill="white"></path>
<path fill-rule="evenodd" clip-rule="evenodd" d="M187.037 168.051C189.287 171.22 191.879 175.351 193.427 177.362C194.835 179.19 196.1 176.9 195.39 175.268C194.269 172.691 193.32 168.186 192.235 164.871C191.506 165.979 190.017 167.409 187.037 168.051Z" fill="#F5B997"></path>
<path fill-rule="evenodd" clip-rule="evenodd" d="M194.657 130.974C194.657 130.974 194.325 132.413 194.566 132.864C194.807 133.316 194.645 133.903 195.13 133.737C195.615 133.571 194.657 130.974 194.657 130.974Z" fill="#F5B997"></path>
<path fill-rule="evenodd" clip-rule="evenodd" d="M198.166 176.032C199.083 176.629 198.349 177.983 197.327 179.414C196.305 180.845 196.917 180.652 195.764 182.81C194.612 184.968 193.496 185.315 193.133 185.25C192.811 185.192 193.151 184.036 193.492 182.783C193.535 182.626 193.577 182.468 193.619 182.309C193.989 180.89 193.512 179.553 193.287 178.04C193.073 176.606 191.002 173.768 191.002 173.768L192.485 170.771C192.485 170.771 194.304 173.381 195.127 174.438C195.61 175.06 196.453 175.374 197.116 175.585C197.476 175.7 197.843 175.821 198.166 176.032Z" fill="#F5B997"></path>
<path fill-rule="evenodd" clip-rule="evenodd" d="M197.327 179.414C196.305 180.845 196.917 180.653 195.764 182.81C194.612 184.968 193.496 185.315 193.133 185.251C192.811 185.192 193.151 184.036 193.492 182.783L193.519 182.782C193.519 182.782 195.021 181.812 195.817 179.951C196.466 178.434 196.676 176.636 197.116 175.586C197.476 175.701 197.843 175.821 198.166 176.032C199.083 176.629 198.349 177.983 197.327 179.414Z" fill="#252428"></path>
<path fill-rule="evenodd" clip-rule="evenodd" d="M172.57 97.222C172.57 97.222 170.749 97.2136 169.477 99.6596C168.206 102.105 166.29 110.057 166.29 110.057C166.29 110.057 168.524 112.547 171.142 111.979C173.76 111.41 172.57 97.222 172.57 97.222Z" fill="white"></path>
<path fill-rule="evenodd" clip-rule="evenodd" d="M213.658 146.175L209.373 147.754L209.649 149.342L214.322 147.138L213.658 146.175Z" fill="white"></path>
<path fill-rule="evenodd" clip-rule="evenodd" d="M209.394 146.611L209.246 146.804L209.374 147.754L208.254 148.719L208.676 146.682L209.394 146.611Z" fill="white"></path>
<path d="M372.047 38.3149V178.315C372.047 179.589 371.076 180.631 369.889 180.631H367.731C367.139 180.631 366.602 180.372 366.209 179.954C365.817 179.534 365.573 178.952 365.573 178.315L365.686 38.3149C365.686 37.4837 365.986 36.7505 366.603 36.3453C366.932 36.1267 367.319 35.9996 367.731 35.9996H369.889C371.076 35.9996 372.047 37.0399 372.047 38.3149Z" fill="#94ACB1"></path>
<path d="M367.335 37.8451V177.846C367.335 178.675 366.921 179.41 366.305 179.815C365.913 179.395 365.668 178.813 365.668 178.177V38.1763C365.668 37.5823 365.711 37.1464 366.036 36.7958C366.166 36.6557 366.575 36.4117 366.575 36.4117C366.966 36.8298 367.336 37.2068 367.336 37.8451H367.335Z" fill="#FAFFF1"></path>
<path d="M342.614 83.2791L330.667 91.3312L341.501 100.827L368.314 99.1373V88.3084L342.614 83.2791Z" fill="#94ACB1"></path>
<path d="M366.517 89.7887C366.395 90.1183 366.433 90.5782 366.605 90.8161C366.776 91.0525 367.013 90.9769 367.136 90.6473C367.258 90.3177 367.22 89.8578 367.048 89.6199C366.877 89.3835 366.64 89.4591 366.517 89.7887Z" fill="#EBB352"></path>
<path d="M366.517 96.189C366.394 96.5186 366.433 96.9785 366.604 97.2165C366.775 97.4528 367.013 97.3772 367.135 97.0476C367.258 96.718 367.219 96.2582 367.048 96.0202C366.877 95.7839 366.64 95.8594 366.517 96.189Z" fill="#EBB352"></path>
<path d="M411.672 61.4016L426.043 69.4377L412.39 78.9706L369.428 77.4786V64.0706L411.672 61.4016Z" fill="#94ACB1"></path>
<path d="M411.682 61.4016H414.395L428.765 69.4377H426.052L411.682 61.4016Z" fill="#FAFFF1"></path>
<path d="M412.399 78.9719H414.704L428.765 69.439H426.052L412.399 78.9719Z" fill="#566B70"></path>
<path d="M372.243 66.0814C372.401 66.5043 372.351 67.0944 372.131 67.3983C371.912 67.7022 371.607 67.6057 371.45 67.1828C371.292 66.76 371.342 66.1699 371.561 65.866C371.781 65.5621 372.086 65.6586 372.243 66.0814Z" fill="#EBB352"></path>
<path d="M372.243 74.2985C372.401 74.7213 372.351 75.3114 372.131 75.6153C371.912 75.9192 371.607 75.8227 371.45 75.3999C371.292 74.977 371.342 74.3869 371.562 74.083C371.781 73.7791 372.086 73.8756 372.243 74.2985Z" fill="#EBB352"></path>
<path d="M327.185 38.1538L314.534 46.1899L326.468 55.7228L369.43 54.2307V40.8228L327.185 38.1538Z" fill="#94ACB1"></path>
<path d="M327.183 38.1538H324.472L311.821 46.1899H314.532L327.183 38.1538Z" fill="#FAFFF1"></path>
<path d="M326.466 55.7238H325.02L311.821 46.1909H314.532L326.466 55.7238Z" fill="#566B70"></path>
<path d="M366.622 42.8336C366.464 43.2565 366.514 43.8466 366.734 44.1505C366.953 44.4544 367.258 44.3579 367.415 43.935C367.571 43.5122 367.523 42.9221 367.303 42.6182C367.084 42.3143 366.779 42.4108 366.622 42.8336Z" fill="#EBB352"></path>
<path d="M366.622 51.0504C366.464 51.4732 366.514 52.0633 366.734 52.3672C366.953 52.6711 367.258 52.5746 367.415 52.1518C367.571 51.7289 367.523 51.1388 367.303 50.8349C367.084 50.531 366.779 50.6275 366.622 51.0504Z" fill="#EBB352"></path>
<path d="M342.617 83.2791H341.07L328.381 91.4019H330.67L342.617 83.2791Z" fill="#FAFFF1"></path>
<path d="M341.504 100.827H339.42L328.381 91.4021H330.67L341.504 100.827Z" fill="#566B70"></path>
<path d="M376.953 166.05V182.023H360.86V165.987C360.86 163.011 363.119 160.566 366.016 160.267C366.212 160.247 366.411 160.236 366.612 160.236H371.136C374.347 160.236 376.951 162.839 376.951 166.05H376.953Z" fill="#45A698"></path>
<path d="M371.228 166.02V181.992H360.86V165.957C360.86 162.981 363.119 160.535 366.016 160.236C368.944 160.538 371.228 163.013 371.228 166.02Z" fill="#2E8F81"></path>
<path d="M436.902 156.673H343.052L338.715 134.614H432.395L436.902 156.673Z" fill="#E0A338"></path>
<path d="M438.51 156.673H344.66L340.323 134.614H434.003L438.51 156.673Z" fill="#FCE0B0"></path>
<path d="M343.051 156.679H370.752V159.38H345.105C343.97 159.38 343.051 158.458 343.051 157.326V156.681V156.679Z" fill="#E0A338"></path>
<path d="M455.783 156.679H370.547V159.38H455.783V156.679Z" fill="#F6C063"></path>
<path d="M348.655 159.378L347.048 165.696V165.704L342.291 184.42C342.227 184.665 342.008 184.836 341.758 184.836C341.276 184.836 340.908 184.394 341.004 183.922L345.248 162.089L345.775 159.378H348.652H348.655Z" fill="#EBB352"></path>
<path d="M347.051 165.696C347.205 162.465 345.253 162.089 345.253 162.089L345.78 159.378H348.657L347.051 165.696Z" fill="#E0A338"></path>
<path d="M369.014 159.378L367.408 165.696V165.704L362.65 184.42C362.586 184.665 362.368 184.836 362.117 184.836C361.635 184.836 361.268 184.394 361.364 183.922L365.607 162.089L366.134 159.378H369.011H369.014Z" fill="#EBB352"></path>
<path d="M367.408 165.696C367.563 162.465 365.61 162.089 365.61 162.089L366.137 159.378H369.014L367.408 165.696Z" fill="#E0A338"></path>
<path d="M448.003 159.378L449.609 165.696V165.704L454.366 184.42C454.43 184.665 454.649 184.836 454.899 184.836C455.381 184.836 455.749 184.394 455.653 183.922L451.41 162.089L450.882 159.378H448.005H448.003Z" fill="#EBB352"></path>
<path d="M449.609 165.696C449.454 162.465 451.407 162.089 451.407 162.089L450.879 159.378H448.003L449.609 165.696Z" fill="#E0A338"></path>
<path d="M427.651 159.378L429.257 165.696V165.704L434.015 184.42C434.079 184.665 434.297 184.836 434.548 184.836C435.03 184.836 435.397 184.394 435.301 183.922L431.058 162.089L430.531 159.378H427.654H427.651Z" fill="#EBB352"></path>
<path d="M429.257 165.696C429.103 162.465 431.055 162.089 431.055 162.089L430.528 159.378H427.651L429.257 165.696Z" fill="#E0A338"></path>
<path d="M401.486 177.99C401.217 178.296 401.184 178.637 401.316 179.003C401.316 179.003 401.316 179.007 401.319 179.008C401.565 179.684 402.375 180.44 403.317 181.194C403.437 181.29 403.544 181.379 403.637 181.46C403.662 181.482 403.686 181.504 403.709 181.525C403.727 181.542 403.746 181.558 403.764 181.575C404.643 182.382 404.312 182.567 405.888 184.205C407.687 186.071 408.924 186.106 409.277 185.935C409.576 185.79 408.97 184.801 408.298 183.687C408.266 183.634 408.233 183.579 408.201 183.526C408.111 183.378 408.023 183.228 407.934 183.08C407.148 181.742 407.35 181.114 407.537 179.122C407.689 177.504 410.067 170.08 410.067 170.08L406.62 169.487C406.62 169.487 405.579 175.398 404.435 176.308C403.824 176.793 403.14 176.799 402.552 177.159C402.51 177.184 402.47 177.209 402.43 177.236C402.096 177.457 401.755 177.683 401.486 177.991V177.99Z" fill="#FFCFB9"></path>
<path d="M401.486 177.991C401.217 178.297 401.184 178.638 401.316 179.004C401.316 179.004 401.316 179.008 401.319 179.009C401.62 179.685 402.41 180.436 403.32 181.188C403.439 181.286 403.544 181.376 403.637 181.461C403.662 181.483 403.686 181.504 403.709 181.526C403.727 181.543 403.746 181.559 403.764 181.576C404.643 182.383 404.312 182.568 405.888 184.206C407.687 186.072 408.924 186.107 409.277 185.935C409.576 185.791 408.969 184.802 408.298 183.688C407.947 183.56 406.321 182.901 405.092 181.331C404.048 180.003 403.34 178.312 402.63 177.271C402.552 177.256 402.505 177.248 402.428 177.233C402.094 177.455 401.753 177.681 401.485 177.989L401.486 177.991Z" fill="#282828"></path>
<path d="M429.286 175.852C429.498 176.912 431.016 176.736 432.709 176.324C434.404 175.912 434.002 176.403 436.413 176.138C438.824 175.873 439.556 174.976 439.629 174.62C439.696 174.302 438.504 174.19 437.226 174.044C437.066 174.026 436.904 174.006 436.742 173.986C435.299 173.804 434.242 172.875 432.931 172.113C431.69 171.391 429.838 168.448 429.838 168.448L426.53 168.707C426.53 168.707 428.265 171.336 428.936 172.478C429.331 173.15 429.311 174.039 429.26 174.725C429.235 175.098 429.21 175.479 429.286 175.853V175.852Z" fill="#FFCFB9"></path>
<path d="M432.707 176.324C434.402 175.911 433.999 176.402 436.411 176.138C438.822 175.873 439.554 174.976 439.627 174.62C439.694 174.302 438.502 174.19 437.224 174.044L437.213 174.069C437.213 174.069 435.766 175.091 433.759 175.137C432.122 175.177 430.391 174.708 429.26 174.726C429.235 175.099 429.21 175.48 429.285 175.855C429.497 176.915 431.015 176.739 432.709 176.327L432.707 176.324Z" fill="#282828"></path>
<path d="M416.613 154.768L413.519 163.059L409.479 173.886C409.479 173.886 408.383 173.99 407.335 173.689C406.369 173.411 405.26 172.682 405.26 172.682C405.26 172.682 406.386 161.055 408.479 154.382C409.015 152.669 409.616 151.284 410.279 150.503C413.522 146.687 416.613 154.765 416.613 154.765V154.768Z" fill="#003B94"></path>
<path d="M413.48 141.598C411.72 141.033 407.128 141.587 402.146 142.484C400.77 142.732 399.382 142.105 398.657 140.913L386.123 139.932C386.123 139.932 381.983 149.074 384.245 154.902C384.578 155.759 385.308 156.293 386.437 156.312C386.437 156.312 394.012 156.325 396.435 156.325C402.669 156.327 409.629 152.059 410.529 151.879C412.002 151.586 412.592 154.524 414.065 157.608C415.538 160.693 427.912 171.273 427.912 171.273C427.912 171.273 429.814 171.293 430.601 170.998C431.446 170.682 431.755 170.272 431.755 170.272C431.755 170.272 418.049 143.068 413.48 141.597V141.598Z" fill="#0548AD"></path>
<path d="M397.332 104.217C396.402 103.665 395.494 103.58 394.937 103.595C394.55 103.606 394.164 103.58 393.782 103.525C388.997 102.824 386.115 109.75 385.945 111.843C385.634 115.685 383.593 116.27 380.723 118.676C374.964 123.5 376.651 129.106 379.797 131.192C381.686 132.442 385.014 131.192 385.014 131.192C385.061 131.225 394.119 126.15 398.583 123.701C405.275 122.756 400.019 105.812 397.332 104.216V104.217Z" fill="#0E356E"></path>
<path d="M394.843 121.616C394.863 121.629 392.647 122.382 391.165 121.727C389.771 121.113 388.717 118.826 388.737 118.826C389.372 118.798 390.068 118.245 390.604 114.62L390.875 114.716L395.414 116.346C395.414 116.346 395.085 117.797 394.871 119.181C394.691 120.341 394.596 121.453 394.843 121.618V121.616Z" fill="#FFCFB9"></path>
<path d="M395.413 116.345C395.413 116.345 395.231 117.129 394.967 118.592C392.36 118.123 391.241 116.12 390.874 114.716L395.413 116.345Z" fill="#FFB492"></path>
<path d="M396.096 117.785C396.096 117.785 389.885 116.951 390.465 113.104C391.044 109.257 390.633 106.558 394.625 106.927C398.614 107.297 399.162 108.88 399.282 110.211C399.402 111.543 397.727 117.903 396.098 117.785H396.096Z" fill="#FFCFB9"></path>
<path d="M399.05 108.106C399.05 108.106 395.072 111.52 392.368 111.795C389.663 112.07 388.639 111.204 388.639 111.204C388.639 111.204 390.234 109.886 391.194 107.757C391.477 107.129 392.075 106.698 392.763 106.64C394.693 106.475 398.355 106.4 399.05 108.106Z" fill="#0E356E"></path>
<path d="M396.565 107.798C396.565 107.798 397.894 109.079 398.314 110.031C398.718 110.949 398.838 113.144 398.516 114.015C398.516 114.015 400.59 109.998 399.418 108.047C398.173 105.976 396.565 107.798 396.565 107.798Z" fill="#0E356E"></path>
<path d="M400.074 130.74C399.882 143.272 400.018 140.654 398.642 141.843C398.31 142.129 397.38 142.299 396.152 142.38C392.296 142.633 385.52 141.999 385.262 141.288C384.374 138.83 385.002 138.067 384.262 134.305C384.185 133.906 384.09 133.472 383.977 133C383.359 130.417 382.758 129.536 384.954 125.387C386.946 121.626 389.013 118.575 389.2 118.685C394.451 121.795 394.875 119.183 394.875 119.183C394.875 119.183 400.169 124.628 400.074 130.742V130.74Z" fill="white"></path>
<path d="M413.519 163.059L409.479 173.885C409.479 173.885 408.383 173.99 407.335 173.689C406.369 173.411 405.26 172.682 405.26 172.682C405.26 172.682 406.386 161.055 408.479 154.381L413.519 163.057V163.059Z" fill="#0548AD"></path>
<path d="M394.872 119.182C394.872 119.182 400.274 120.098 400.909 122.417C401.542 124.735 403.626 138.811 403.626 138.811C403.626 138.811 402.101 140.294 400.834 139.029C399.564 137.764 396.844 125.859 396.844 125.859L394.872 119.184V119.182Z" fill="white"></path>
<path d="M396.149 142.38C392.293 142.633 385.516 141.999 385.259 141.288C384.37 138.829 384.998 138.067 384.259 134.305L386.121 129.087C386.121 129.087 385.812 134.899 387.53 136.427C389.247 137.957 394.569 139.38 395.406 140.659C395.808 141.271 396.074 141.887 396.151 142.38H396.149Z" fill="#C8DCFA"></path>
<path d="M391.735 139.934C391.735 139.934 395.539 139.091 396.152 139.428C396.765 139.764 398.264 140.991 398.453 141.417C398.64 141.843 397.087 141.092 396.581 140.957C396.254 140.869 395.392 141.167 394.965 141.31C393.169 141.906 392.069 141.598 392.069 141.598L391.733 139.934H391.735Z" fill="#FFCFB9"></path>
<path d="M389.192 118.682C389.192 118.682 384.085 118.994 382.315 121.452C379.825 124.911 374.882 139.656 377.711 141.623C380.897 143.839 392.213 142.208 392.213 142.208C392.213 142.208 392.59 140.453 392.066 139.604C391.542 138.755 383.028 137.382 382.636 136.989C382.243 136.598 387.55 129.352 387.55 128.177C387.55 127.002 389.189 118.682 389.189 118.682H389.192Z" fill="white"></path>
<path d="M396.333 140.485C396.333 140.485 397.13 141.51 397.39 141.632C397.651 141.755 397.821 141.723 397.821 141.723L397.285 140.759L396.333 140.483V140.485Z" fill="#FFCFB9"></path>
<path d="M396.157 139.428L398.474 140.55C398.474 140.55 398.375 140.712 398.089 140.698C397.804 140.685 397.084 140.422 397.084 140.422L396.155 139.428H396.157Z" fill="#FFCFB9"></path>
<path d="M415.944 142.07L391.739 142.062V142.594L415.728 142.603L415.944 142.07Z" fill="#BF343A"></path>
<path d="M397.399 142.599L415.729 142.606L421.246 128.941L402.945 128.935L397.399 142.599Z" fill="#BF343A"></path>
<path d="M411.102 135.772C411.24 135.291 410.961 134.901 410.479 134.901C409.996 134.901 409.493 135.291 409.355 135.77C409.216 136.251 409.495 136.641 409.978 136.641C410.46 136.641 410.963 136.251 411.102 135.772Z" fill="white"></path>
<path fill-rule="evenodd" clip-rule="evenodd" d="M553.615 83.32L553.602 83.3271L553.615 83.32Z" fill="#FFB27D"></path>
<path fill-rule="evenodd" clip-rule="evenodd" d="M558.323 69.2701C558.396 69.1064 558.448 68.9999 558.448 68.9999C558.393 69.0755 558.352 69.1671 558.323 69.2701Z" fill="#D35C2B"></path>
<path fill-rule="evenodd" clip-rule="evenodd" d="M584.619 124.977C587.269 124.977 589.543 123.415 591.377 120.336C592.759 118.014 593.904 114.802 594.778 110.789C596.252 104.033 596.467 97.1867 596.469 97.1184C596.482 96.644 596.109 96.2483 595.635 96.2344C595.159 96.2208 594.766 96.5936 594.752 97.0679C594.75 97.1349 594.538 103.841 593.096 110.443C591.82 116.289 589.313 123.259 584.619 123.259C584.145 123.259 583.761 123.644 583.761 124.119C583.761 124.592 584.145 124.977 584.619 124.977Z" fill="#7A3909"></path>
<path fill-rule="evenodd" clip-rule="evenodd" d="M584.535 144.457C584.581 144.457 584.626 144.456 584.668 144.453C585.141 144.424 585.502 144.017 585.472 143.543C585.442 143.07 585.035 142.71 584.563 142.739C584.454 142.745 584.278 142.726 584.016 142.475C582.945 141.448 581.033 137.195 580.262 120.25C579.817 110.481 579.982 101.177 579.984 101.084C579.993 100.609 579.616 100.218 579.141 100.209C578.667 100.198 578.276 100.578 578.268 101.052C578.266 101.145 578.1 110.505 578.547 120.328C578.81 126.111 579.232 130.927 579.799 134.642C580.543 139.507 581.533 142.474 582.828 143.716C583.455 144.316 584.081 144.457 584.535 144.457Z" fill="#7A3909"></path>
<path fill-rule="evenodd" clip-rule="evenodd" d="M553.656 136.152C556.092 136.152 558.153 135.284 559.78 133.571C564.333 128.779 563.896 118.994 563.875 118.579C563.851 118.106 563.448 117.739 562.974 117.764C562.5 117.788 562.136 118.192 562.16 118.666C562.165 118.768 562.578 128.137 558.534 132.389C557.225 133.765 555.63 134.433 553.656 134.433C553.183 134.433 552.798 134.818 552.798 135.293C552.798 135.767 553.183 136.152 553.656 136.152Z" fill="#7A3909"></path>
<path fill-rule="evenodd" clip-rule="evenodd" d="M613.227 185.425L612.726 131.64C612.726 131.64 612.292 127.767 608.915 127.767C605.313 127.767 605.105 131.64 605.105 131.64C605.105 131.64 605.157 131.976 605.528 131.976C605.915 131.976 605.978 131.64 605.978 131.64C605.978 131.64 606.138 128.655 608.915 128.655C611.52 128.655 611.853 131.64 611.853 131.64V185.425H613.227Z" fill="#233862"></path>
<path fill-rule="evenodd" clip-rule="evenodd" d="M611.39 185.42H613.631L613.431 183.076C613.431 183.076 613.45 182.75 612.998 182.731C612.577 182.714 611.746 182.654 611.667 182.908C611.598 183.133 611.39 185.42 611.39 185.42Z" fill="#233862"></path>
<path fill-rule="evenodd" clip-rule="evenodd" d="M609.147 124.918L609.3 125.687C609.3 125.687 613.1 125.673 613.989 129.747C613.989 129.747 614.23 131.443 613.008 131.081C611.786 130.719 611.976 129.854 610.247 129.38C608.516 128.906 607.39 128.542 607.127 127.282L606.844 125.88L609.147 124.918Z" fill="#FFCFB9"></path>
<path fill-rule="evenodd" clip-rule="evenodd" d="M595.714 91.57C595.714 91.57 596.72 95.5275 597.587 99.1459C597.936 100.604 598.262 102.005 598.492 103.071C598.726 104.167 598.861 104.908 598.809 104.991C598.055 106.215 599.432 113.681 600.521 116.392C600.617 116.633 600.75 116.915 600.909 117.227C602.431 120.215 606.487 126.08 606.487 126.08C606.487 126.08 607.631 126.201 608.379 125.918C609.004 125.681 609.43 124.918 609.43 124.918C609.067 124.333 607.6 117.433 605.712 113.564C604.904 111.909 603.714 96.5535 602.15 94.4861C600.845 92.7615 595.714 91.57 595.714 91.57Z" fill="#FFCC73"></path>
<path fill-rule="evenodd" clip-rule="evenodd" d="M598.806 104.989C598.052 106.214 599.429 113.68 600.518 116.391C600.614 116.632 600.748 116.913 600.907 117.226C602.362 110.782 599.95 101.654 599.95 101.654C599.347 101.893 598.858 104.907 598.806 104.989Z" fill="#EBB352"></path>
<path fill-rule="evenodd" clip-rule="evenodd" d="M588.259 179.497C588.259 179.497 587.873 185.329 588.973 185.41C589.119 185.421 594.554 185.421 594.554 185.421H601.565C601.565 185.421 601.448 183.708 599.419 183.354C597.391 183 593.997 181.574 592.768 178.892C591.476 176.069 588.259 179.497 588.259 179.497Z" fill="#0F2949"></path>
<path fill-rule="evenodd" clip-rule="evenodd" d="M577.718 179.497C577.718 179.497 577.331 185.329 578.432 185.41C578.578 185.421 584.013 185.421 584.013 185.421H591.024C591.024 185.421 590.906 183.708 588.878 183.354C586.849 183 583.456 181.574 582.227 178.892C580.935 176.069 577.718 179.497 577.718 179.497Z" fill="#163560"></path>
<path fill-rule="evenodd" clip-rule="evenodd" d="M587.93 165.445C587.757 167.912 587.406 171.083 587.531 173.941C587.706 177.937 587.833 181.309 587.833 181.309C590.466 182.204 595.297 181.117 595.297 181.117C595.297 181.117 597.011 171.017 598.423 162.954C599.056 159.34 599.582 156.215 599.778 154.739C600.413 149.968 599.102 124.606 599.102 124.606C599.102 124.606 591.976 120.035 589.033 122.391C586.09 124.747 584.278 127.049 589.021 152.858C589.38 154.816 588.316 159.921 587.93 165.445Z" fill="#45A698"></path>
<path fill-rule="evenodd" clip-rule="evenodd" d="M587.93 168.576C587.757 171.043 587.44 174.989 587.565 177.847C590.042 175.224 594.924 169.688 598.423 166.085C599.056 162.471 599.582 159.346 599.778 157.87C600.413 153.099 599.102 127.736 599.102 127.736C599.102 127.736 591.976 123.166 589.033 125.522C586.09 127.878 584.278 130.18 589.021 155.989C589.38 157.947 588.316 163.052 587.93 168.576Z" fill="#2E8F81"></path>
<path fill-rule="evenodd" clip-rule="evenodd" d="M592.658 124.977C592.658 124.977 592.018 150.367 591.018 155.074C590.019 159.782 584.8 181.331 584.8 181.331C584.8 181.331 579.909 181.777 577.352 180.681C577.352 180.681 577.515 170.701 578.383 164.836C579.193 159.359 580.646 154.351 580.438 152.371C577.69 126.274 579.674 124.117 582.789 121.995C585.905 119.872 592.658 124.977 592.658 124.977Z" fill="#45A698"></path>
<path fill-rule="evenodd" clip-rule="evenodd" d="M597.282 85.8189C597.282 85.8189 595.325 88.7945 595.715 91.5714L592.821 98.5512L587.598 90.5609C587.598 90.5609 590.357 87.5556 591.387 83.4587L597.282 85.8189Z" fill="#FFCFB9"></path>
<path fill-rule="evenodd" clip-rule="evenodd" d="M598.137 88.3578C598.137 88.3578 591.013 88.6664 590.884 84.3868C590.754 80.107 588.83 77.26 594.158 76.884C598.539 76.5747 599.995 78.4032 600.386 79.8211C600.776 81.2391 600.777 88.1283 598.137 88.3578Z" fill="#FFCFB9"></path>
<path fill-rule="evenodd" clip-rule="evenodd" d="M580.696 126.345C582.226 126.487 584.333 126.665 586.89 126.825C587.4 126.857 587.929 126.889 588.474 126.919C596.192 127.352 599.261 126.101 599.261 126.101C599.261 126.101 599.466 125.935 599.401 125.028C599.066 120.357 598.074 118.977 598.194 118.089C598.462 116.094 603.299 99.811 603.299 99.811C603.299 99.811 603.393 94.6674 597.677 92.2534C597.087 92.0038 596.438 91.7844 595.719 91.6024C595.469 92.268 594.783 93.38 593.028 93.1751C590.433 92.8725 588.585 91.3417 587.794 90.5563C587.649 90.5563 587.593 90.5608 587.593 90.5608C587.399 91.1076 587.248 91.6783 587.114 92.258C586.646 94.2797 586.371 96.4066 585.131 97.9968C583.908 99.5667 582.861 101.115 581.967 102.629C581.223 103.889 580.586 105.126 580.04 106.332C574.98 117.524 578.894 126.176 580.696 126.345Z" fill="#FFCC73"></path>
<path fill-rule="evenodd" clip-rule="evenodd" d="M580.697 126.344C582.227 126.486 584.334 126.663 586.891 126.824C587.637 114.25 582.517 102.173 582.517 102.173C582.323 102.309 582.141 102.461 581.968 102.628C581.076 103.495 580.456 104.781 580.042 106.33C578.516 112.032 579.793 121.295 580.697 126.344Z" fill="#EBB352"></path>
<path fill-rule="evenodd" clip-rule="evenodd" d="M600.432 84.2755C600.432 84.2755 601.819 89.7813 599.466 90.5568C597.112 91.3321 590.865 90.7109 590.867 83.9606C590.867 83.9606 594.146 85.9175 595.712 85.868C597.279 85.8186 598.289 84.9142 599.737 85.6206C599.737 85.6206 600.266 85.5855 600.432 84.2755Z" fill="#F5F9FF"></path>
<path fill-rule="evenodd" clip-rule="evenodd" d="M591.218 78.213C591.338 77.7761 591.875 77.5466 591.875 77.5466C595.887 75.7978 598.819 77.7112 598.819 77.7112C596.36 74.4078 590.425 75.1014 589.175 78.0809C587.134 82.9459 590.867 83.959 590.867 83.959C590.867 83.959 594.595 82.3913 592.437 80.4258C591.721 79.7746 591.375 79.1956 591.261 78.6918C591.223 78.5237 591.21 78.3641 591.218 78.213Z" fill="#F5F9FF"></path>
<path fill-rule="evenodd" clip-rule="evenodd" d="M597.577 86.8935C597.577 86.8935 597.708 87.3612 598.879 87.2387C598.879 87.2387 599.862 87.1362 599.811 86.6184C599.811 86.6184 598.839 86.2894 597.577 86.8935Z" fill="#FFB492"></path>
<path fill-rule="evenodd" clip-rule="evenodd" d="M568.183 100.724C568.183 100.724 566.886 103.988 566.999 108.292C567.085 111.591 570.09 121.764 571.011 123.238C571.892 124.647 578.26 129.775 579.83 130.264C579.939 130.297 580.051 130.242 580.123 130.117L581.535 127.735C581.665 127.51 581.643 127.166 581.487 126.982L575.56 119.769L573.683 108.192C573.059 104.344 570.968 101.377 568.355 100.762C568.298 100.748 568.24 100.736 568.183 100.724Z" fill="#BF343A"></path>
<path fill-rule="evenodd" clip-rule="evenodd" d="M569.657 165.118L565.476 182.566C565.476 182.566 563.472 183.184 561.389 182.566C561.389 182.566 560.617 179.333 560.595 175.3C560.583 173.192 560.778 170.862 561.393 168.665C561.643 167.769 561.964 166.898 562.369 166.07C565.671 159.318 569.657 165.118 569.657 165.118Z" fill="#FFCFB9"></path>
<path fill-rule="evenodd" clip-rule="evenodd" d="M571.598 185.42H560.595C560.595 185.42 560.422 183.754 560.906 182.16C560.978 181.923 561.065 181.688 561.168 181.461C561.168 181.461 563.624 182.018 565.742 181.461C565.742 181.461 567.733 183.157 568.937 183.678C570.14 184.199 571.47 183.916 571.598 185.42Z" fill="#282828"></path>
<path fill-rule="evenodd" clip-rule="evenodd" d="M568.52 169.863L567.816 172.798C566.62 173.561 564.039 174.945 560.595 175.302C560.583 173.194 560.777 170.864 561.392 168.667C562.404 168.153 563.434 167.883 564.312 168.037C566.494 168.418 567.792 169.217 568.52 169.863Z" fill="#FFB492"></path>
<path fill-rule="evenodd" clip-rule="evenodd" d="M565.885 185.424H560.597C560.597 185.424 560.424 183.758 560.908 182.164C562.235 182.578 564.936 183.615 565.885 185.424Z" fill="#282828"></path>
<path fill-rule="evenodd" clip-rule="evenodd" d="M560.286 165.118L556.105 182.566C556.105 182.566 554.101 183.184 552.018 182.566C552.018 182.566 551.246 179.333 551.224 175.3C551.212 173.192 551.406 170.862 552.022 168.665C552.272 167.769 552.593 166.898 552.998 166.07C556.3 159.318 560.286 165.118 560.286 165.118Z" fill="#FFCFB9"></path>
<path fill-rule="evenodd" clip-rule="evenodd" d="M551.798 181.461C551.798 181.461 554.254 182.019 556.371 181.461C556.371 181.461 558.363 183.158 559.567 183.679C560.771 184.2 562.101 183.917 562.227 185.421H551.225C551.225 185.421 550.996 183.224 551.798 181.461Z" fill="#282828"></path>
<path fill-rule="evenodd" clip-rule="evenodd" d="M559.149 169.863L558.446 172.798C557.25 173.561 554.669 174.945 551.224 175.302C551.212 173.194 551.407 170.864 552.022 168.667C553.034 168.153 554.064 167.883 554.94 168.037C557.124 168.418 558.422 169.217 559.149 169.863Z" fill="#FFB492"></path>
<path fill-rule="evenodd" clip-rule="evenodd" d="M571.955 169.552C571.691 170.529 570.803 171.208 569.791 171.208H552.15C550.821 171.208 549.776 170.079 549.877 168.754C550.062 166.349 550.073 162.888 550.362 160.236C550.482 159.133 550.24 157.035 550.171 156.575C548.391 144.784 547.843 131.645 548.024 128.991C548.05 128.617 548.068 128.424 548.068 128.424C548.068 128.424 549.352 128.316 551.307 128.24C556.988 128.015 568.328 128.054 570.213 131.772C572.132 135.559 573.291 160.707 573.291 160.707C573.572 163.057 572.58 167.236 571.955 169.552Z" fill="#306ECA"></path>
<path fill-rule="evenodd" clip-rule="evenodd" d="M550.347 160.36C550.467 159.258 550.218 156.952 550.149 156.491C548.368 144.701 547.841 131.645 548.022 128.991C548.048 128.618 548.066 128.424 548.066 128.424C548.066 128.424 549.35 128.316 551.305 128.24C554.244 129.972 556.157 132.923 556.157 132.923C556.157 132.923 554.901 155.58 550.347 160.36Z" fill="#003B94"></path>
<path fill-rule="evenodd" clip-rule="evenodd" d="M561.97 79.8568C560.561 79.5042 559.742 80.6154 559.742 81.9238C559.742 83.2324 560.802 84.2931 562.11 84.2931C563.417 84.2931 564.477 82.7772 564.477 81.4686C564.477 80.1601 563.239 80.174 561.97 79.8568Z" fill="#F5F9FF"></path>
<path fill-rule="evenodd" clip-rule="evenodd" d="M561.235 93.426C561.235 93.426 553.894 86.8093 560.54 82.1248C560.54 82.1248 562.523 81.5959 563.531 81.7849C563.531 81.7849 567.144 80.727 569.258 83.1827C571.371 85.6382 572.29 87.4137 570.478 89.6048C568.666 91.7959 561.235 93.426 561.235 93.426Z" fill="#F5F9FF"></path>
<path fill-rule="evenodd" clip-rule="evenodd" d="M552.81 133.385C552.81 133.385 554.623 137.024 551.139 139.806C551.139 139.806 549.629 140.839 549.397 139.496C549.165 138.152 549.433 138.62 549.068 136.736C548.703 134.852 549.169 132.903 550.253 132.054L552.81 133.385Z" fill="#FFCFB9"></path>
<path fill-rule="evenodd" clip-rule="evenodd" d="M581.56 127.328C581.56 127.328 583.723 127.956 583.634 132.414C583.634 132.414 583.508 134.236 582.723 133.544C581.938 132.851 582.587 131.984 581.4 131.742C580.13 131.482 580.15 130.707 579.832 130.262L581.56 127.328Z" fill="#FFB492"></path>
<path fill-rule="evenodd" clip-rule="evenodd" d="M567.246 93.3622C567.246 93.3622 567.156 94.353 566.988 95.6919C566.906 96.3461 566.806 97.0839 566.689 97.8296C566.605 98.3648 566.512 98.9051 566.411 99.4213L564.138 107.104L558.801 98.4601C558.801 98.4601 560.055 97.4216 561.755 91.7932C561.771 91.7333 561.782 91.7009 561.782 91.7009L567.246 93.3622Z" fill="#FFCFB9"></path>
<path fill-rule="evenodd" clip-rule="evenodd" d="M570.364 131.261C570.433 132.124 570.214 132.281 570.214 132.281C570.214 132.281 566.932 133.471 558.68 133.06C557.786 133.015 556.945 132.97 556.16 132.923C550.84 132.609 547.996 132.281 547.996 132.281C547.996 132.281 543.64 122.218 551.824 109.819C552.749 108.417 553.836 106.985 555.106 105.535C556.431 104.022 556.724 101.998 557.225 100.074C557.369 99.5227 556.954 99.4009 557.161 98.8807C557.161 98.8807 558.654 98.4586 558.808 98.4586C559.655 99.2058 560.773 100.659 563.549 100.946C565.425 101.142 566.16 100.084 566.427 99.4494C567.142 99.708 567.884 100.155 568.491 100.447C568.57 100.485 568.647 100.523 568.723 100.562C572.433 102.448 574.212 106.765 573.015 110.753C571.644 115.324 569.276 123.314 569.073 124.657C568.945 125.501 570.006 126.814 570.364 131.261Z" fill="#D6565A"></path>
<path fill-rule="evenodd" clip-rule="evenodd" d="M566.991 95.6919C566.909 96.3461 566.632 98.1367 566.514 98.8822C560.863 96.6771 561.603 92.3798 561.757 91.7932C561.773 91.7333 561.784 91.7009 561.784 91.7009C561.784 91.7009 564.775 93.8253 566.991 95.6919Z" fill="#FFB492"></path>
<path fill-rule="evenodd" clip-rule="evenodd" d="M568.202 96.4506C568.202 96.4506 561.674 96.6601 561.606 92.5901C561.538 88.5199 560.651 85.8059 564.815 85.5C568.98 85.194 569.816 86.7335 570.169 88.0866C570.521 89.4396 569.898 96.2912 568.202 96.4506Z" fill="#FFCFB9"></path>
<path fill-rule="evenodd" clip-rule="evenodd" d="M566.55 94.204C566.55 94.204 566.681 94.6717 567.852 94.5492C567.852 94.5492 568.835 94.4467 568.784 93.9289C568.784 93.9289 567.812 93.5999 566.55 94.204Z" fill="white"></path>
<path fill-rule="evenodd" clip-rule="evenodd" d="M568.774 84.8905C568.774 84.8905 568.364 91.6858 560.406 90.9567C560.406 90.9567 560.575 81.5459 568.774 84.8905Z" fill="#F5F9FF"></path>
<path fill-rule="evenodd" clip-rule="evenodd" d="M567.251 85.57C567.251 85.57 569.255 88.9559 570.267 89.837C570.267 89.837 572.974 85.6512 567.251 85.57Z" fill="#F5F9FF"></path>
<path fill-rule="evenodd" clip-rule="evenodd" d="M556.154 132.924C550.835 132.61 547.99 132.282 547.99 132.282C547.99 132.282 543.634 122.219 551.818 109.82C553.475 113.685 557.383 124.016 556.154 132.924Z" fill="#BF343A"></path>
<path fill-rule="evenodd" clip-rule="evenodd" d="M558.806 98.4586C558.806 98.4586 552.49 99.7553 549.677 103.015C547.521 105.514 545.164 117.728 545.164 119.746C545.164 121.674 547.378 131.928 548.761 133.894C548.858 134.03 549.018 134.105 549.184 134.088L552.74 133.711C553.037 133.68 553.247 133.406 553.201 133.111L551.203 120.15L558.217 107.7C558.217 107.7 562.352 102.795 558.806 98.4586Z" fill="#D6565A"></path>
<path fill-rule="evenodd" clip-rule="evenodd" d="M582.993 127.339C582.993 127.339 584.688 130.743 581.43 133.344C581.43 133.344 580.018 134.31 579.801 133.054C579.585 131.797 579.835 132.235 579.494 130.473C579.152 128.711 579.589 126.889 580.602 126.095L582.993 127.339Z" fill="#FFCFB9"></path>
<path fill-rule="evenodd" clip-rule="evenodd" d="M587.595 90.5602C587.595 90.5602 582.616 90.6723 579.985 94.0981C577.969 96.7231 575.837 110.808 575.837 112.929C575.837 115.05 578.107 126.754 579.378 128.026C579.378 128.026 580.2 128.238 581.298 128.026C582.463 127.8 583.149 127.126 583.149 127.126C583.149 127.126 582.517 114.096 582.517 112.873C582.517 111.104 588.045 100.272 588.045 100.272C588.045 100.272 590.912 95.1165 587.595 90.5602Z" fill="#FFCC73"></path>
</svg>