<svg width="375" height="172" viewBox="0 0 375 172" fill="none" xmlns="http://www.w3.org/2000/svg">
<path fill-rule="evenodd" clip-rule="evenodd" d="M24 172V143.223H26.5457V147.6H28.1367V129H31.637V136.112H36.0919V138.3H38.9557V143.771H40.5467V131.188L46.9108 131.176V147.6H47.5473V137.753H51.3659V147.6H53.2751V137.753L57.4116 134.471V136.659H59.321V140.346H60.0155V149.788H62.1848V133.377H63.7759V131.188H68.8672V150.883H73.3221V132.282H79.0497V133.377H80.0043V140.488H81.2772V136.659H83.8229V143.224H86.2064V139.011H87.9594V129H91.4599V136.112H95.9148V138.3H98.7786V143.771H100.37V131.188L106.734 134.497V147.6H107.37V137.753H111.189V147.6H113.098V143.223H115.643V147.6H117.235V129H120.735V136.112H125.19V138.3H128.053V143.771H129.645V131.188L136.009 131.176V147.6H136.645V137.753H140.464V147.6H142.373V137.753L146.509 134.471V136.659H148.419V140.346H149.113V149.788H151.283V133.377H152.874V131.188H157.965V150.883H162.42V132.282H168.147V133.377H169.102V140.488H170.375V136.659H172.921V143.224H175.304V139.011H177.057V129H180.558V136.112H185.013V138.3H187.876V143.771H189.467V131.188L195.831 134.497V147.6H196.468V137.753H200.286V147.6H202.196V143.223H204.741V147.6H206.332V129H209.833V136.112H214.287V138.3H217.151V143.771H218.742V131.188L225.106 131.176V147.6H225.743V137.753H229.561V147.6H231.471V137.753L235.607 134.471V136.659H237.517V140.346H238.211V149.788H240.38V133.377H241.971V131.188H247.063V150.883H251.518V132.282H257.245V133.377H258.2V140.488H259.473V136.659H262.018V143.224H264.402V139.011H266.155V129H269.655V136.112H274.11V138.3H276.974V143.771H278.565V131.188L284.929 134.497V147.6H285.566V137.753H289.384V147.6H291.293V143.223H293.834V147.6H295.422V129H298.916V136.112H303.362V138.3H306.22V143.771H307.808V131.188L314.16 131.176V147.6H314.795V137.753H318.607V147.6H320.512V137.753L324.641 134.471V136.659H326.546V140.346H327.24V149.788H329.405V133.377H330.993V131.188H336.074V150.883H340.521V132.282H346.237V133.377H347.19V140.488H348.46V136.659H351.001V172H24Z" fill="#C8DCFA"></path>
<path fill-rule="evenodd" clip-rule="evenodd" d="M158.904 148.998C175.317 148.998 206.481 158.526 217.414 157.359C228.347 156.193 285.173 147.565 299.282 149.639C308.166 150.945 360.108 156.13 343.875 166.475C320.286 166.651 252.293 166.422 242.181 166.475C177.348 166.808 111.948 167.463 108.589 166.475C107.048 166.021 106.512 163.824 103.997 159.884C109.847 149.019 142.491 148.998 158.904 148.998Z" fill="#C5EBE5"></path>
<path fill-rule="evenodd" clip-rule="evenodd" d="M256.923 126.93C256.997 127.04 257.408 127.316 257.913 127.657C258.113 127.792 258.327 127.938 258.54 128.087L258.638 128.156C259.326 128.642 259.985 129.162 260.107 129.507C260.135 129.586 260.168 129.666 260.204 129.745C260.276 129.694 260.352 129.641 260.427 129.587L260.489 129.544C260.664 129.421 260.833 129.302 260.956 129.218C261.151 129.085 261.47 128.581 261.741 128.111C261.986 127.684 262.192 127.283 262.229 127.211L262.234 127.202C262.235 127.2 262.235 127.199 262.235 127.199C262.235 127.199 262.236 127.202 262.239 127.208L262.251 127.232C262.345 127.418 262.804 128.364 262.815 128.937C262.817 129.054 262.802 129.155 262.76 129.231C262.491 129.726 261.696 129.94 261.508 130.408C261.447 130.561 261.399 130.695 261.362 130.806C261.565 130.798 261.721 130.802 261.805 130.822C262.363 130.956 262.336 131.191 262.342 131.17C262.342 131.17 262.476 131.317 262.604 131.382C262.731 131.447 262.815 131.685 262.815 131.685C262.723 131.658 262.482 131.51 262.301 131.505C262.118 131.649 261.564 131.755 260.504 131.87C259.005 132.032 258.038 131.591 257.874 131.519C257.708 131.447 257.415 131.681 257.09 131.636C256.765 131.591 256.801 131.096 256.841 130.925C256.881 130.754 257.433 131.006 258.029 131.063C258.133 131.072 258.301 131.068 258.509 131.055C258.394 130.727 258.294 130.146 257.951 129.706C257.893 129.633 257.832 129.533 257.769 129.415V129.415C257.634 129.161 257.491 128.823 257.361 128.478L257.332 128.401C257.027 127.58 256.801 126.749 256.923 126.93Z" fill="#6880BD"></path>
<path fill-rule="evenodd" clip-rule="evenodd" d="M80.8561 149C112.121 149 142.522 157.371 163.349 156.2C184.175 155.03 312.858 148.92 339.734 151.001C356.658 152.311 354.514 158.268 333.302 168.873C278.657 168.821 241.703 168.821 222.44 168.873C98.9366 169.208 33.9858 168.88 27.5876 167.888C24.6534 167.433 20.7909 165.23 16 161.277C27.1442 150.379 49.5908 149 80.8561 149Z" fill="#C5EBE5"></path>
<path fill-rule="evenodd" clip-rule="evenodd" d="M259.923 123.93C259.997 124.04 260.408 124.316 260.913 124.657C261.113 124.792 261.327 124.938 261.54 125.087L261.638 125.156C262.326 125.642 262.985 126.162 263.107 126.507C263.135 126.586 263.168 126.666 263.204 126.745C263.276 126.694 263.352 126.641 263.427 126.587L263.489 126.544C263.664 126.421 263.833 126.302 263.956 126.218C264.151 126.085 264.47 125.581 264.741 125.111C264.986 124.684 265.192 124.283 265.229 124.211L265.234 124.202C265.235 124.2 265.235 124.199 265.235 124.199C265.235 124.199 265.236 124.202 265.239 124.208L265.251 124.232C265.345 124.418 265.804 125.364 265.815 125.937C265.817 126.054 265.802 126.155 265.76 126.231C265.491 126.726 264.696 126.94 264.508 127.408C264.447 127.561 264.399 127.695 264.362 127.806C264.565 127.798 264.721 127.802 264.805 127.822C265.363 127.956 265.336 128.191 265.342 128.17C265.342 128.17 265.476 128.317 265.604 128.382C265.731 128.447 265.815 128.685 265.815 128.685C265.723 128.658 265.482 128.51 265.301 128.505C265.118 128.649 264.564 128.755 263.504 128.87C262.005 129.032 261.038 128.591 260.874 128.519C260.708 128.447 260.415 128.681 260.09 128.636C259.765 128.591 259.801 128.096 259.841 127.925C259.881 127.754 260.433 128.006 261.029 128.063C261.133 128.072 261.301 128.068 261.509 128.055C261.394 127.727 261.294 127.146 260.951 126.706C260.893 126.633 260.832 126.533 260.769 126.415V126.415C260.634 126.161 260.491 125.823 260.361 125.478L260.332 125.401C260.027 124.58 259.801 123.749 259.923 123.93Z" fill="#4E86D9"></path>
<path fill-rule="evenodd" clip-rule="evenodd" d="M177.797 25.4633C177.85 25.4635 177.905 25.4652 177.954 25.4697C178.111 25.4841 178.161 25.5605 178.161 25.5605C178.161 25.5605 177.939 25.6459 177.79 25.7075C177.78 25.7159 177.772 25.72 177.772 25.72L177.772 25.7212L177.768 25.7303C177.753 25.7705 177.695 25.9228 177.596 26.1023C177.85 26.1613 178.161 26.1873 178.515 26.1295C179.175 26.022 180.414 27.6143 181.223 28.7786C181.681 29.4371 182.001 29.9586 182.001 29.9586C182.001 29.9586 181.997 29.9608 181.99 29.9642L181.982 29.9679C181.885 30.0092 181.415 30.138 180.488 29.2885C180.068 28.9033 179.747 28.5749 179.483 28.3202C179.088 27.9392 178.819 27.7237 178.53 27.7297C178.049 27.7394 176.73 27.3459 176.318 27.0293L176.342 27.0469C175.978 27.1843 175.639 27.2989 175.584 27.3805C175.48 27.5367 175.207 28.0974 175.207 28.0974L175.185 28.0974C175.046 28.0958 174.283 28.0609 174.001 27.4941C174.001 27.4941 174.934 26.983 175.071 26.7488C175.1 26.6991 175.163 26.6199 175.254 26.5243C174.865 26.2849 174.217 25.7139 174.004 25.4297C173.832 25.1995 173.453 25.1316 172.827 25.0597C172.464 25.018 172.017 24.9748 171.479 24.8976C170.077 24.6964 170.005 24.2126 170.001 24.172L170.001 24.1693C170.001 24.1693 170.673 24.0956 171.545 24.0454C171.935 24.023 172.365 24.0053 172.793 24.0009L172.922 24L173.05 24C174.177 24.0036 175.232 24.1136 175.43 24.4915C175.735 25.0744 176.285 25.4055 176.613 25.5601C176.731 25.5123 176.85 25.4744 176.968 25.4499C176.968 25.4499 177.109 25.3719 177.206 25.3292C177.292 25.2908 177.626 25.3448 177.765 25.4634L177.797 25.4633Z" fill="#4E86D9"></path>
<path fill-rule="evenodd" clip-rule="evenodd" d="M35.6124 4.70723C35.6652 4.70742 35.7206 4.70936 35.7699 4.71462C35.9262 4.73142 35.9764 4.82057 35.9764 4.82057C35.9764 4.82057 35.7546 4.92025 35.6059 4.9921C35.5956 5.00187 35.5878 5.00663 35.5878 5.00663L35.5874 5.00801L35.584 5.0187C35.5691 5.06556 35.5103 5.24327 35.4116 5.45271C35.6662 5.52155 35.9765 5.5518 36.331 5.48438C36.9905 5.35904 38.2296 7.21665 39.0388 8.57509C39.4964 9.34326 39.8164 9.95173 39.8164 9.95173C39.8164 9.95173 39.8129 9.95429 39.8058 9.95824L39.7975 9.9626C39.7009 10.0108 39.2307 10.1609 38.3039 9.16991C37.8837 8.72046 37.5631 8.33732 37.299 8.04025C36.9034 7.59577 36.6343 7.3443 36.3461 7.35129C35.8647 7.36259 34.5455 6.90355 34.1339 6.53416L34.158 6.55475C33.794 6.71505 33.4545 6.84875 33.4002 6.94394C33.2962 7.1261 33.023 7.78031 33.023 7.78031L33.0011 7.78033C32.8622 7.77845 32.0987 7.73771 31.8164 7.07645C31.8164 7.07645 32.7498 6.48022 32.8863 6.20698C32.9154 6.14893 32.979 6.05652 33.0693 5.94497C32.6802 5.66571 32.033 4.99956 31.82 4.66803C31.6474 4.39939 31.2686 4.32019 30.643 4.23636C30.2795 4.18771 29.8328 4.13725 29.2946 4.04721C27.8925 3.8125 27.8202 3.24801 27.8166 3.20072L27.8164 3.19755C27.8164 3.19755 28.4883 3.11153 29.3608 3.05299C29.7508 3.02682 30.1809 3.00613 30.609 3.00108L30.7373 3.00004L30.8652 3C31.993 3.00425 33.0475 3.13249 33.2455 3.57342C33.551 4.25351 34.1004 4.63976 34.4284 4.82016C34.5462 4.76436 34.6653 4.72011 34.7835 4.69158C34.7835 4.69158 34.9251 4.6005 35.0212 4.55075C35.1079 4.50596 35.4417 4.56896 35.5804 4.70732L35.6124 4.70723Z" fill="#4E86D9"></path>
<path fill-rule="evenodd" clip-rule="evenodd" d="M323.556 163.863H328.681V163.862H323.556V163.863Z" fill="#2A4A57"></path>
<path d="M324.316 155.144C327.212 155.144 329.7 157.29 330.795 160.485C331.869 159.272 333.487 158.555 335.296 158.555C338.53 158.555 341.152 160.845 341.153 164.167H331.392C331.392 164.169 331.392 164.171 331.392 164.173H317.239C317.239 159.052 320.407 155.144 324.316 155.144Z" fill="#98D4CB"></path>
<path fill-rule="evenodd" clip-rule="evenodd" d="M105.815 13.9999C106.393 11.4131 108.646 9.48313 111.34 9.48313C111.835 9.48313 112.314 9.54843 112.772 9.67069C114.1 6.75009 116.986 4.72633 120.331 4.72633C121.196 4.72633 122.03 4.86159 122.815 5.11261C124.615 2.04879 127.888 0 131.626 0C136.072 0 139.86 2.89994 141.295 6.95948C142.311 6.37759 143.481 6.04468 144.727 6.04468C148.624 6.04468 154.815 9.2913 154.815 13.2962C154.815 13.5336 154.804 13.7682 154.782 13.9999H105.815Z" fill="url(#paint0_linear_1305_15556)"></path>
<path fill-rule="evenodd" clip-rule="evenodd" d="M87.8455 18.9999C87.8276 18.8179 87.8186 18.6336 87.8186 18.447C87.8186 15.3004 90.2932 12.7495 93.346 12.7495C94.3211 12.7495 95.2388 13.011 96.0343 13.4683C97.1585 10.2785 100.123 8 103.607 8C106.534 8 109.097 9.60992 110.506 12.0171C111.121 11.8199 111.774 11.7136 112.451 11.7136C115.071 11.7136 117.33 13.3037 118.372 15.5984C118.729 15.5024 119.105 15.451 119.493 15.451C121.601 15.451 123.366 16.9673 123.819 18.9999H87.8455Z" fill="url(#paint1_linear_1305_15556)"></path>
<path fill-rule="evenodd" clip-rule="evenodd" d="M253.001 21.9999C253.579 19.4131 255.832 17.4831 258.526 17.4831C259.021 17.4831 259.5 17.5484 259.958 17.6707C261.286 14.7501 264.172 12.7263 267.517 12.7263C268.382 12.7263 269.216 12.8616 270.001 13.1126C271.801 10.0488 275.074 8 278.812 8C283.258 8 287.046 10.8999 288.482 14.9595C289.497 14.3776 290.667 14.0447 291.913 14.0447C295.811 14.0447 302.001 17.2913 302.001 21.2962C302.001 21.5336 301.99 21.7682 301.968 21.9999H253.001Z" fill="url(#paint2_linear_1305_15556)"></path>
<path fill-rule="evenodd" clip-rule="evenodd" d="M327.003 17.9999C327.369 16.5217 328.794 15.4189 330.498 15.4189C330.812 15.4189 331.115 15.4562 331.404 15.5261C332.245 13.8572 334.07 12.7008 336.187 12.7008C336.734 12.7008 337.262 12.7781 337.758 12.9215C338.897 11.1707 340.968 10 343.332 10C346.145 10 348.542 11.6571 349.45 13.9768C350.093 13.6443 350.833 13.4541 351.621 13.4541C354.087 13.4541 358.003 15.3093 358.003 17.5978C358.003 17.7335 357.996 17.8675 357.982 17.9999H327.003Z" fill="url(#paint3_linear_1305_15556)"></path>
<path fill-rule="evenodd" clip-rule="evenodd" d="M343.805 164.211C342.537 164.211 341.372 164.692 340.458 165.492C340.21 161.91 337.437 159.085 334.043 159.085C331.087 159.085 328.603 161.232 327.847 164.155C327.394 163.991 326.908 163.899 326.4 163.899C325.238 163.899 324.182 164.368 323.375 165.135C322.538 164.031 321.263 163.325 319.835 163.325C317.311 163.325 315.261 165.527 315.261 168.243C315.261 168.385 315.272 168.524 315.283 168.663H348.978C348.444 166.116 346.333 164.211 343.805 164.211Z" fill="#98D4CB"></path>
<path fill-rule="evenodd" clip-rule="evenodd" d="M343.169 148.909C353.275 148.909 361.468 157.092 361.488 167.193H324.851C324.851 167.193 324.851 167.193 324.851 167.192L306.999 167.193C307.019 162.979 310.439 159.569 314.657 159.569C317.597 159.569 320.149 161.225 321.432 163.655C322.198 163.06 323.16 162.705 324.205 162.705C324.61 162.705 325.002 162.758 325.376 162.858C327.335 154.851 334.558 148.909 343.169 148.909Z" fill="#45A698"></path>
<path fill-rule="evenodd" clip-rule="evenodd" d="M363.645 161.672C361.378 161.672 359.541 164.079 359.541 167.047H367.75C367.75 164.079 365.912 161.672 363.645 161.672Z" fill="#98D4CB"></path>
<path fill-rule="evenodd" clip-rule="evenodd" d="M359.66 162.88C357.903 162.88 356.48 164.744 356.48 167.044H362.84C362.84 164.744 361.416 162.88 359.66 162.88Z" fill="#98D4CB"></path>
<path fill-rule="evenodd" clip-rule="evenodd" d="M216.066 145.737C216.066 145.737 216.195 141.447 214.723 139.589C214.723 139.589 213.743 127.999 210.372 127.999C207.001 127.999 206.021 139.589 206.021 139.589C204.55 141.447 204.678 145.737 204.678 145.737C204.678 145.737 203.014 147.594 202.566 152.012C202.118 156.431 207.109 156.495 210.372 156.495C213.635 156.495 218.626 156.431 218.178 152.012C217.73 147.594 216.066 145.737 216.066 145.737Z" fill="#2E8F81"></path>
<path fill-rule="evenodd" clip-rule="evenodd" d="M210.231 161.745H210.511V135.362H210.231V161.745Z" fill="white"></path>
<path fill-rule="evenodd" clip-rule="evenodd" d="M210.499 139.777L210.239 139.672L211.358 136.887L211.618 136.991L210.499 139.777Z" fill="white"></path>
<path fill-rule="evenodd" clip-rule="evenodd" d="M210.239 145.781L207.999 140.017L208.259 139.916L210.499 145.679L210.239 145.781Z" fill="white"></path>
<path fill-rule="evenodd" clip-rule="evenodd" d="M210.487 153.062L210.261 152.898L214.691 146.751L214.918 146.914L210.487 153.062Z" fill="white"></path>
<path fill-rule="evenodd" clip-rule="evenodd" d="M193.343 128.508C192.931 127.829 192.053 127.829 191.641 128.508C189.98 131.25 186.466 138.076 186.466 146.755C186.466 151.191 188.859 155.216 192.492 155.216C196.125 155.216 198.518 151.191 198.518 146.755C198.518 138.076 195.004 131.25 193.343 128.508Z" fill="#1C7D70"></path>
<path fill-rule="evenodd" clip-rule="evenodd" d="M192.364 161.745H192.623V132.205H192.364V161.745Z" fill="white"></path>
<path fill-rule="evenodd" clip-rule="evenodd" d="M192.607 139.431L192.374 139.319L193.596 136.763L193.829 136.874L192.607 139.431Z" fill="white"></path>
<path fill-rule="evenodd" clip-rule="evenodd" d="M192.377 142.32L190.94 139.43L191.172 139.315L192.608 142.205L192.377 142.32Z" fill="white"></path>
<path fill-rule="evenodd" clip-rule="evenodd" d="M192.593 149.593L192.392 149.432L196.095 144.806L196.297 144.967L192.593 149.593Z" fill="white"></path>
<path fill-rule="evenodd" clip-rule="evenodd" d="M218.826 137.224C218.524 136.722 217.879 136.722 217.578 137.224C216.36 139.247 213.782 144.285 213.782 150.691C213.782 153.965 215.537 156.936 218.202 156.936C220.866 156.936 222.621 153.965 222.621 150.691C222.621 144.285 220.044 139.247 218.826 137.224Z" fill="#45A698"></path>
<path fill-rule="evenodd" clip-rule="evenodd" d="M218.113 161.757H218.302V139.953H218.113V161.757Z" fill="white"></path>
<path fill-rule="evenodd" clip-rule="evenodd" d="M218.293 145.28L218.122 145.198L219.018 143.311L219.189 143.393L218.293 145.28Z" fill="white"></path>
<path fill-rule="evenodd" clip-rule="evenodd" d="M218.117 147.412L217.064 145.279L217.233 145.194L218.287 147.327L218.117 147.412Z" fill="white"></path>
<path fill-rule="evenodd" clip-rule="evenodd" d="M218.28 152.783L218.132 152.663L220.848 149.249L220.996 149.368L218.28 152.783Z" fill="white"></path>
<path fill-rule="evenodd" clip-rule="evenodd" d="M204.343 145.907C204.343 145.907 206.085 137.251 201.13 137.251C196.175 137.251 197.917 145.907 197.917 145.907C197.917 145.907 196.72 147.83 196.175 150.822C195.631 153.814 198.517 155.043 201.13 155.043C203.744 155.043 206.63 153.814 206.085 150.822C205.541 147.83 204.343 145.907 204.343 145.907Z" fill="#62B8AB"></path>
<path fill-rule="evenodd" clip-rule="evenodd" d="M201.246 146.774L200.981 146.65L202.369 143.804L202.633 143.927L201.246 146.774Z" fill="white"></path>
<path fill-rule="evenodd" clip-rule="evenodd" d="M200.95 149.991L199.319 146.774L199.582 146.646L201.213 149.864L200.95 149.991Z" fill="white"></path>
<path fill-rule="evenodd" clip-rule="evenodd" d="M200.972 161.756H201.289V141.631H200.972V161.756Z" fill="white"></path>
<path fill-rule="evenodd" clip-rule="evenodd" d="M235.882 149.699C235.882 153.022 233.184 155.715 229.856 155.715C226.527 155.715 223.829 153.022 223.829 149.699C223.829 146.375 226.527 143.682 229.856 143.682C233.184 143.682 235.882 146.375 235.882 149.699Z" fill="#45A698"></path>
<path fill-rule="evenodd" clip-rule="evenodd" d="M229.759 161.762H229.953V150.606H229.759V161.762Z" fill="white"></path>
<path fill-rule="evenodd" clip-rule="evenodd" d="M63.3455 149.998C69.1436 149.998 74.2994 152.039 77.6295 155.208C79.6327 154.636 81.8049 154.309 84.0785 154.309C94.128 154.309 102.267 160.411 102.267 167.938C102.267 168.522 102.2 169.093 102.107 169.657H47.05C45.8498 167.837 45.1567 165.796 45.1567 163.628C45.1567 156.1 53.296 149.998 63.3455 149.998Z" fill="#45A698"></path>
<path fill-rule="evenodd" clip-rule="evenodd" d="M17.1365 157.98C23.2849 157.98 28.2729 162.965 28.2729 169.116C28.2729 169.298 28.254 169.476 28.2414 169.657H6.02533C6.01271 169.476 6.00008 169.298 6.00008 169.116C6.00008 162.965 10.9818 157.98 17.1365 157.98Z" fill="#45A698"></path>
<path fill-rule="evenodd" clip-rule="evenodd" d="M31.9286 154.908C39.6959 154.908 45.9973 161.206 45.9973 168.977C45.9973 169.207 45.9734 169.432 45.9574 169.66H17.8918C17.8759 169.432 17.8599 169.207 17.8599 168.977C17.8599 161.206 24.1534 154.908 31.9286 154.908Z" fill="#45A698"></path>
<path fill-rule="evenodd" clip-rule="evenodd" d="M20.9325 161.13C23.5457 161.13 25.948 162.051 27.8307 163.583C28.3428 156.721 34.0588 151.309 41.055 151.309C47.1475 151.309 52.2684 155.423 53.8273 161.022C54.7612 160.708 55.7628 160.531 56.8096 160.531C59.2044 160.531 61.3808 161.431 63.0451 162.9C64.7697 160.784 67.398 159.431 70.3426 159.431C75.5464 159.431 79.7712 163.65 79.7712 168.855C79.7712 169.126 79.7486 169.393 79.726 169.659H10.2688C11.3683 164.779 15.7212 161.13 20.9325 161.13Z" fill="#98D4CB"></path>
<path fill-rule="evenodd" clip-rule="evenodd" d="M294.457 156.384C292.855 156.384 291.556 159.297 291.556 162.89H297.359C297.359 159.297 296.06 156.384 294.457 156.384Z" fill="#45A698"></path>
<path fill-rule="evenodd" clip-rule="evenodd" d="M239.576 156.384C237.974 156.384 236.675 159.297 236.675 162.89H242.477C242.477 159.297 241.179 156.384 239.576 156.384Z" fill="#45A698"></path>
<path fill-rule="evenodd" clip-rule="evenodd" d="M289.411 156.051C288.086 156.051 287.011 159.113 287.011 162.89H291.811C291.811 159.113 290.736 156.051 289.411 156.051Z" fill="#45A698"></path>
<path fill-rule="evenodd" clip-rule="evenodd" d="M287.079 157.59C286.053 157.59 285.22 159.962 285.22 162.888H288.938C288.938 159.962 288.106 157.59 287.079 157.59Z" fill="#45A698"></path>
<path fill-rule="evenodd" clip-rule="evenodd" d="M259.335 150.952C255.814 150.952 252.96 156.296 252.96 162.887H265.71C265.71 156.296 262.856 150.952 259.335 150.952Z" fill="#45A698"></path>
<path fill-rule="evenodd" clip-rule="evenodd" d="M267.645 147.998C263.918 147.998 260.896 154.604 260.896 162.883H274.393C274.393 154.604 271.372 147.998 267.645 147.998Z" fill="#45A698"></path>
<path fill-rule="evenodd" clip-rule="evenodd" d="M282.492 152.816C279.753 152.816 277.533 157.328 277.533 162.891H287.452C287.452 157.328 285.231 152.816 282.492 152.816Z" fill="#45A698"></path>
<path fill-rule="evenodd" clip-rule="evenodd" d="M208.629 156.317C207.027 156.317 205.728 159.312 205.728 162.906H211.53C211.53 159.312 210.231 156.317 208.629 156.317Z" fill="#98D4CB"></path>
<path fill-rule="evenodd" clip-rule="evenodd" d="M180.859 158.271C179.732 158.271 178.818 160.378 178.818 162.907H182.901C182.901 160.378 181.987 158.271 180.859 158.271Z" fill="#98D4CB"></path>
<path d="M0 171.998C0 167.027 4.0294 162.998 8.99992 162.998H366C370.971 162.998 375 167.027 375 171.998H0Z" fill="#C8DCFA"></path>
<path d="M173.797 155.677C174.267 155.858 175.948 155.712 176.002 155.584C176.057 155.457 174.957 154.242 174.487 154.06C174.017 153.879 173.481 154.094 173.29 154.541C173.1 154.987 173.326 155.496 173.797 155.677Z" fill="#98D4CB"></path>
<path d="M178.039 156.44C177.775 156.851 177.656 158.449 177.78 158.521C177.904 158.593 179.345 157.759 179.609 157.348C179.873 156.937 179.736 156.4 179.302 156.149C178.869 155.898 178.303 156.029 178.039 156.44Z" fill="#98D4CB"></path>
<path d="M175.771 159.571C176.254 159.717 177.918 159.45 177.962 159.319C178.007 159.188 176.813 158.055 176.329 157.909C175.846 157.762 175.329 158.016 175.175 158.475C175.02 158.934 175.287 159.425 175.771 159.571Z" fill="#98D4CB"></path>
<path d="M178.217 161.113C178.215 161.076 178.029 157.46 175.943 155.592L175.988 155.548C178.094 157.433 178.281 161.074 178.282 161.11L178.217 161.113Z" fill="#98D4CB"></path>
<path d="M185.189 155.757C184.896 155.942 183.733 156.063 183.678 155.984C183.622 155.905 184.191 154.935 184.484 154.75C184.777 154.566 185.172 154.642 185.367 154.92C185.561 155.198 185.482 155.573 185.189 155.757Z" fill="#98D4CB"></path>
<path d="M182.422 156.831C182.661 157.075 182.975 158.145 182.901 158.21C182.828 158.275 181.728 157.898 181.489 157.653C181.249 157.409 181.264 157.026 181.522 156.799C181.78 156.572 182.182 156.586 182.422 156.831Z" fill="#98D4CB"></path>
<path d="M184.412 158.656C184.105 158.819 182.936 158.856 182.887 158.772C182.839 158.689 183.484 157.763 183.791 157.6C184.098 157.437 184.485 157.542 184.657 157.833C184.829 158.124 184.719 158.492 184.412 158.656Z" fill="#98D4CB"></path>
<path d="M182.974 160.029C182.97 160.004 182.569 157.524 183.713 155.983L183.676 155.958C182.521 157.514 182.925 160.011 182.929 160.036L182.973 160.029H182.974Z" fill="#98D4CB"></path>
<path d="M180.908 160.879L180.776 160.859C180.253 154.438 178.187 149.831 178.158 149.768L178.279 149.719C178.308 149.782 180.389 154.42 180.908 160.879Z" fill="#98D4CB"></path>
<path d="M176.761 149.126C177.016 149.4 178.209 149.84 178.291 149.771C178.373 149.702 178.061 148.524 177.806 148.25C177.551 147.976 177.111 147.95 176.822 148.192C176.534 148.434 176.506 148.852 176.761 149.126H176.761Z" fill="#FFCC73"></path>
<path d="M178.591 148.166C178.361 148.459 178.152 149.658 178.24 149.72C178.328 149.782 179.478 149.249 179.708 148.956C179.938 148.664 179.874 148.249 179.566 148.031C179.257 147.812 178.821 147.873 178.591 148.166V148.166Z" fill="#FFCC73"></path>
<path d="M179.96 149.443C179.588 149.347 178.336 149.601 178.308 149.702C178.279 149.802 179.222 150.624 179.593 150.72C179.964 150.816 180.347 150.608 180.449 150.256C180.55 149.903 180.331 149.54 179.96 149.443Z" fill="#FFCC73"></path>
<path d="M179.113 151.033C179.076 150.669 178.382 149.648 178.273 149.658C178.163 149.669 177.688 150.797 177.725 151.16C177.762 151.524 178.103 151.79 178.486 151.755C178.869 151.72 179.15 151.396 179.113 151.033Z" fill="#FFCC73"></path>
<path d="M177.215 150.957C177.556 150.788 178.29 149.792 178.239 149.7C178.187 149.608 176.908 149.616 176.567 149.786C176.226 149.956 176.095 150.356 176.274 150.679C176.453 151.003 176.874 151.128 177.215 150.957H177.215Z" fill="#FFCC73"></path>
<path d="M178.017 149.664C178.037 149.544 178.155 149.463 178.281 149.482C178.406 149.501 178.492 149.613 178.472 149.732C178.452 149.852 178.334 149.933 178.208 149.914C178.082 149.895 177.997 149.783 178.017 149.664Z" fill="#E0A338"></path>
<path d="M180.873 154.336C180.495 154.778 180.086 156.632 180.219 156.735C180.352 156.838 182.181 156.08 182.56 155.638C182.939 155.196 182.868 154.546 182.402 154.186C181.937 153.827 181.252 153.894 180.873 154.336V154.336Z" fill="#98D4CB"></path>
<path d="M173.378 161.559L173.288 161.557C172.347 157.34 170.551 154.455 170.525 154.416L170.601 154.373C170.626 154.413 172.435 157.317 173.377 161.559L173.378 161.559Z" fill="#98D4CB"></path>
<path d="M169.532 154.114C169.726 154.274 170.558 154.467 170.607 154.415C170.655 154.362 170.339 153.607 170.144 153.446C169.95 153.285 169.655 153.304 169.486 153.489C169.317 153.673 169.337 153.953 169.532 154.114V154.114Z" fill="#F6C063"></path>
<path d="M170.656 153.331C170.531 153.545 170.503 154.357 170.567 154.392C170.631 154.426 171.345 153.976 171.471 153.763C171.596 153.55 171.516 153.28 171.29 153.161C171.066 153.042 170.781 153.118 170.656 153.332L170.656 153.331Z" fill="#F6C063"></path>
<path d="M171.688 154.057C171.433 154.024 170.626 154.297 170.616 154.367C170.606 154.436 171.308 154.902 171.563 154.935C171.818 154.968 172.053 154.798 172.088 154.556C172.123 154.314 171.943 154.091 171.688 154.058L171.688 154.057Z" fill="#F6C063"></path>
<path d="M171.275 155.185C171.217 154.947 170.662 154.327 170.59 154.343C170.519 154.359 170.308 155.147 170.366 155.385C170.424 155.624 170.675 155.772 170.926 155.717C171.177 155.661 171.333 155.424 171.275 155.185H171.275Z" fill="#F6C063"></path>
<path d="M170.007 155.292C170.218 155.151 170.613 154.43 170.57 154.373C170.528 154.316 169.68 154.428 169.469 154.569C169.259 154.71 169.209 154.987 169.358 155.186C169.506 155.386 169.797 155.433 170.008 155.292H170.007Z" fill="#F6C063"></path>
<path d="M170.417 154.362C170.419 154.281 170.49 154.218 170.575 154.22C170.66 154.222 170.726 154.289 170.724 154.37C170.722 154.45 170.651 154.514 170.566 154.511C170.481 154.509 170.415 154.442 170.417 154.362H170.417Z" fill="#E0A338"></path>
<path d="M172.748 157.207C172.538 157.532 172.438 158.796 172.536 158.853C172.633 158.91 173.777 158.255 173.988 157.93C174.198 157.605 174.091 157.18 173.749 156.98C173.406 156.781 172.958 156.882 172.748 157.207H172.748Z" fill="#98D4CB"></path>
<path d="M170.57 162C170.57 162 171.068 160.719 172.877 160.639C174.686 160.559 175.932 161.604 177.427 161.122C178.921 160.639 181.395 159.55 183.735 160.276C186.076 161.001 186.47 162 186.47 162H170.57H170.57Z" fill="#98D4CB"></path>
<path fill-rule="evenodd" clip-rule="evenodd" d="M70.7767 151.931C69.3761 153.725 68.5055 156.025 67.9734 157.981C67.9956 153.688 68.3775 149.029 69.498 148.186C70.0069 147.803 70.552 147.649 71.0065 147.732C71.2342 147.774 71.4377 147.875 71.603 148.038C72.2267 148.65 72.2126 150.092 70.7767 151.931ZM67.0504 159.078C66.729 157.788 66.1919 156.265 65.2991 155.068C64.3832 153.841 64.3953 152.895 64.8144 152.503C64.9243 152.398 65.0603 152.334 65.2094 152.31C65.5087 152.262 65.8644 152.371 66.1929 152.629C66.9164 153.198 67.0988 156.26 67.0504 159.078ZM72.2166 147.436C71.4004 146.633 70.0976 146.663 68.969 147.51C68.2757 148.032 67.8313 149.401 67.5502 151.106C66.5899 148.608 64.3711 146.957 64.2471 146.854L64.0305 146.991C64.0617 147.019 66.5244 149.61 66.8791 152.6C66.7814 152.428 66.6725 152.29 66.5496 152.193C65.8221 151.621 64.9676 151.584 64.4194 152.098C63.8662 152.619 63.6435 153.795 64.8396 155.399C66.6302 157.8 66.9285 161.762 66.9315 161.801L67.1804 161.802C67.1864 161.936 67.1915 162.043 67.1955 162.115L68.0611 162.133C68.0671 162.072 68.6556 156.049 71.4659 152.45C73.3422 150.046 73.0429 148.246 72.2166 147.436Z" fill="#62B8AB"></path>
<path fill-rule="evenodd" clip-rule="evenodd" d="M63.9795 146.305C63.9141 146.298 64.2331 143.977 65.3953 144.403C66.5575 144.827 65.7887 146.507 63.9795 146.305Z" fill="#D6565A"></path>
<path fill-rule="evenodd" clip-rule="evenodd" d="M63.5616 146.326C63.5265 146.383 61.8824 145.003 62.7329 144.124C63.5834 143.245 64.5308 144.743 63.5616 146.326Z" fill="#D6565A"></path>
<path fill-rule="evenodd" clip-rule="evenodd" d="M63.4715 146.135C63.5157 146.184 61.7022 147.459 61.1199 146.403C60.5375 145.347 62.253 144.787 63.4715 146.135Z" fill="#D6565A"></path>
<path fill-rule="evenodd" clip-rule="evenodd" d="M63.5546 146.363C63.6096 146.328 64.5458 148.411 63.4156 148.779C62.2845 149.147 62.0307 147.309 63.5546 146.363Z" fill="#D6565A"></path>
<path fill-rule="evenodd" clip-rule="evenodd" d="M63.9715 146.41C63.9646 146.336 66.0767 146.171 65.9408 147.55C65.8049 148.928 64.1661 148.452 63.9715 146.41Z" fill="#D6565A"></path>
<path d="M80.1096 161.421L80.2736 161.397C80.9192 153.47 83.4688 147.782 83.5049 147.705L83.3557 147.644C83.3203 147.722 80.7516 153.447 80.1096 161.421Z" fill="#98D4CB"></path>
<path d="M85.2306 146.882C84.916 147.221 83.4439 147.764 83.3421 147.68C83.2402 147.594 83.6263 146.14 83.9409 145.802C84.2556 145.463 84.7993 145.431 85.1557 145.73C85.512 146.029 85.5459 146.545 85.2313 146.883L85.2306 146.882Z" fill="#EDA6A9"></path>
<path d="M82.9744 145.703C83.2587 146.065 83.516 147.545 83.4079 147.621C83.2997 147.698 81.8792 147.041 81.595 146.679C81.3108 146.317 81.3899 145.806 81.771 145.536C82.1521 145.266 82.6909 145.341 82.9752 145.703H82.9744Z" fill="#EDA6A9"></path>
<path d="M81.2819 147.312C81.74 147.193 83.2856 147.506 83.321 147.63C83.3563 147.755 82.1925 148.769 81.7344 148.887C81.2762 149.006 80.8032 148.749 80.678 148.314C80.5529 147.879 80.8237 147.43 81.2819 147.312Z" fill="#EDA6A9"></path>
<path d="M82.3294 149.273C82.3754 148.824 83.2316 147.564 83.3666 147.576C83.5017 147.589 84.0878 148.982 84.0419 149.431C83.9959 149.88 83.5759 150.208 83.1029 150.165C82.6299 150.121 82.2834 149.723 82.3294 149.274V149.273Z" fill="#EDA6A9"></path>
<path d="M84.6689 149.181C84.2482 148.972 83.3418 147.743 83.4047 147.629C83.4676 147.515 85.0479 147.526 85.4686 147.735C85.8893 147.944 86.0512 148.438 85.8306 148.838C85.61 149.237 85.0896 149.391 84.6689 149.181Z" fill="#EDA6A9"></path>
<path d="M83.6849 147.571C83.6601 147.424 83.5151 147.324 83.3602 147.347C83.2053 147.371 83.1006 147.508 83.1246 147.655C83.1494 147.802 83.2944 147.902 83.4493 147.879C83.6042 147.855 83.7096 147.718 83.6849 147.571Z" fill="#B32B31"></path>
<path d="M80.88 149.906C81.3473 150.452 81.8521 152.742 81.6881 152.868C81.5241 152.995 79.2657 152.059 78.7977 151.513C78.3303 150.967 78.4173 150.165 78.9921 149.721C79.5669 149.277 80.4119 149.36 80.88 149.906V149.906Z" fill="#98D4CB"></path>
<path d="M82.0234 156.475C81.5376 156.7 80.4643 158.066 80.5322 158.198C80.6 158.329 82.3953 158.368 82.881 158.143C83.3668 157.918 83.5683 157.363 83.3314 156.902C83.0945 156.441 82.5091 156.249 82.0234 156.474V156.475Z" fill="#98D4CB"></path>
<path d="M75.4287 161.384L75.2406 161.356C74.4997 152.256 71.5717 145.725 71.5307 145.636L71.7018 145.566C71.7428 145.656 74.692 152.229 75.4287 161.385V161.384Z" fill="#98D4CB"></path>
<path d="M69.5382 144.733C69.8995 145.121 71.5901 145.745 71.7068 145.647C71.8234 145.549 71.3808 143.88 71.0195 143.492C70.6582 143.104 70.0346 143.067 69.6252 143.409C69.2158 143.752 69.1776 144.344 69.5382 144.733Z" fill="#EDA6A9"></path>
<path d="M72.1331 143.376C71.8071 143.792 71.5109 145.49 71.636 145.579C71.7612 145.667 73.3916 144.912 73.7176 144.497C74.0435 144.081 73.953 143.494 73.5161 143.185C73.0784 142.875 72.4597 142.961 72.1338 143.376H72.1331Z" fill="#EDA6A9"></path>
<path d="M74.0838 145.181C73.5578 145.044 71.7831 145.404 71.7421 145.547C71.701 145.69 73.0374 146.854 73.5641 146.99C74.0902 147.126 74.6332 146.832 74.7767 146.332C74.9203 145.832 74.6099 145.317 74.0831 145.181H74.0838Z" fill="#EDA6A9"></path>
<path d="M72.8735 147.435C72.8212 146.919 71.8377 145.472 71.6829 145.486C71.528 145.501 70.8549 147.1 70.9072 147.615C70.9596 148.131 71.4425 148.508 71.9855 148.458C72.5285 148.409 72.9259 147.95 72.8735 147.435Z" fill="#EDA6A9"></path>
<path d="M70.1854 147.322C70.6683 147.081 71.7091 145.671 71.6363 145.54C71.5641 145.409 69.7498 145.421 69.2669 145.662C68.784 145.903 68.5981 146.47 68.8512 146.928C69.105 147.386 69.7018 147.563 70.1847 147.323L70.1854 147.322Z" fill="#EDA6A9"></path>
<path d="M71.3131 145.495C71.3414 145.326 71.5083 145.211 71.6859 145.238C71.8634 145.265 71.9844 145.424 71.9561 145.592C71.9278 145.761 71.7609 145.875 71.5833 145.849C71.4057 145.822 71.2848 145.663 71.3131 145.495Z" fill="#B32B31"></path>
<path d="M75.3725 152.11C74.8359 152.737 74.2561 155.365 74.4449 155.511C74.633 155.656 77.2264 154.582 77.7631 153.955C78.2997 153.328 78.2 152.407 77.5396 151.898C76.8793 151.389 75.9092 151.483 75.3725 152.11Z" fill="#98D4CB"></path>
<path d="M73.2283 155.746C73.7855 156.003 75.0186 157.573 74.9408 157.724C74.863 157.875 72.8013 157.92 72.2441 157.662C71.687 157.404 71.4551 156.766 71.7273 156.237C71.9988 155.708 72.6712 155.488 73.2283 155.746Z" fill="#98D4CB"></path>
<path d="M84.0457 162.163C84.0457 162.163 81.7562 159.292 78.5002 160.342C75.2443 161.393 70.9037 160.437 70.9157 161.877L84.0457 162.163Z" fill="#98D4CB"></path>
<path fill-rule="evenodd" clip-rule="evenodd" d="M125.234 132.363C125.234 132.363 128.291 116.999 119.597 116.999C110.904 116.999 113.96 132.363 113.96 132.363C113.96 132.363 111.859 135.777 110.904 141.088C109.948 146.4 115.012 148.581 119.597 148.581C124.183 148.581 129.247 146.4 128.291 141.088C127.336 135.777 125.234 132.363 125.234 132.363Z" fill="#2E8F81"></path>
<path fill-rule="evenodd" clip-rule="evenodd" d="M119.802 133.913L119.339 133.692L121.773 128.64L122.236 128.859L119.802 133.913Z" fill="white"></path>
<path fill-rule="evenodd" clip-rule="evenodd" d="M119.277 139.631L116.415 133.92L116.876 133.693L119.737 139.404L119.277 139.631Z" fill="white"></path>
<path fill-rule="evenodd" clip-rule="evenodd" d="M119.32 160.501H119.877V124.778H119.32V160.501Z" fill="white"></path>
<path fill-rule="evenodd" clip-rule="evenodd" d="M113.656 161.958C113.623 161.72 113.607 161.476 113.607 161.229C113.607 158.464 115.682 156.223 118.242 156.223C118.507 156.223 118.766 156.247 119.018 156.293C119.641 154.57 121.077 153.364 122.749 153.364C123.389 153.364 123.995 153.541 124.534 153.857C125.273 152.639 126.473 151.848 127.828 151.848C129.328 151.848 130.638 152.819 131.341 154.263C132.307 154.718 133.135 155.542 133.753 156.607C134.127 156.471 134.525 156.397 134.938 156.397C137.182 156.397 139.001 158.571 139.001 161.251C139.001 161.491 138.986 161.727 138.958 161.958H113.656Z" fill="#62B8AB"></path>
<path d="M74.935 120.833L64.999 169.815L65.5839 169.935L75.5199 120.952L74.935 120.833Z" fill="#163560"></path>
<path d="M75.9615 120.395L74.7273 120.141L73.612 125.571L74.8462 125.825L75.9615 120.395Z" fill="#163560"></path>
<path d="M97.8956 163.941L99.5636 163.4C99.5636 163.4 99.9097 158.868 99.1678 153.437C98.698 149.995 97.836 146.268 96.2755 143.275C95.569 141.92 94.7197 140.716 93.6984 139.756C93.6984 139.756 92.4185 136.781 90.7238 132.804C88.8389 128.383 77.0447 127.087 83.7747 136.349C85.1554 138.249 86.638 141.595 88.4153 143.627C91.4518 147.1 93.5946 151.154 95.066 154.724C97.1686 159.829 97.8956 163.941 97.8956 163.941Z" fill="#FFB27D"></path>
<path d="M101.684 164.235C102.19 165.055 101.098 165.859 99.7472 166.616C98.3967 167.373 98.956 167.449 97.229 168.737C95.5019 170.024 94.4836 169.882 94.2189 169.694C93.9837 169.527 94.6893 168.732 95.4299 167.862C95.5234 167.753 95.6162 167.642 95.7089 167.532C96.5361 166.54 96.6587 165.295 97.0469 164.004C97.4145 162.781 96.8316 159.74 96.8316 159.74L99.1371 157.907C99.1371 157.907 99.6055 160.672 99.8631 161.823C100.015 162.5 100.568 163.067 101.016 163.484C101.259 163.712 101.506 163.946 101.684 164.235Z" fill="#FFB27D"></path>
<path d="M99.7472 166.619C98.3967 167.376 98.956 167.452 97.229 168.74C95.5019 170.027 94.4836 169.885 94.2189 169.697C93.9837 169.53 94.6893 168.735 95.4299 167.865L95.4525 167.874C95.4525 167.874 97.0119 167.664 98.3441 166.479C99.4302 165.514 100.272 164.16 101.016 163.487C101.259 163.715 101.506 163.949 101.684 164.238C102.19 165.058 101.098 165.862 99.7472 166.619Z" fill="#1C468A"></path>
<path d="M86.3465 77.0106C86.3465 77.0106 90.4149 76.5148 92.4601 80.3048C94.5054 84.0949 94.3401 89.5855 96.323 92.1754C98.306 94.7652 95.9925 97.2205 95.9925 97.2205L80.5423 97.743C80.5423 97.743 79.4683 94.8479 80.5423 91.3738C81.6164 87.8999 76.37 77.536 86.3465 77.0106Z" fill="#B64C41"></path>
<path d="M72.5822 123.009C72.7411 123.614 73.2587 124.98 73.6607 124.979C73.9884 124.979 74.1058 123.307 74.5274 122.952C75.139 122.437 75.6373 121.358 75.7168 121.096C75.8805 120.557 76.0343 120.445 76.0343 120.445L76.0334 120.444H76.0354C76.0354 120.444 80.9205 111.502 81.3023 109.213C81.4279 108.468 81.7476 106.973 82.1234 105.299C82.5316 103.478 83.005 101.445 83.3624 99.9213C81.8029 99.6169 80.0778 99.5097 78.6712 99.4824C78.3849 101.335 78.1286 103.228 77.9076 104.873C77.5793 107.32 77.33 109.219 77.176 109.626C76.7512 110.742 75.5803 116.76 74.4768 119.885C74.3501 120.192 73.9918 120.993 73.5992 121.265C73.1083 121.604 72.4244 122.404 72.5822 123.009Z" fill="#FFB27D"></path>
<path d="M79.6721 101.34C79.9532 97.0191 83.295 92.3728 83.295 92.3728C83.295 92.3728 83.4147 92.3606 83.6235 92.3414C83.7379 92.3308 83.8368 92.2562 83.8761 92.1481C84.0006 91.8065 84.0372 91.0592 84.0351 90.2801C84.0324 89.0907 83.9413 87.8279 83.9413 87.8279L87.949 87.0333L88.1874 86.9863C88.1802 89.0047 88.5618 90.522 88.9748 91.3695C89.1713 91.7725 89.5547 92.0484 89.9983 92.1107C90.8595 92.2315 92.3743 92.4893 93.3954 92.9168C93.8916 93.1241 94.2699 93.3714 94.4021 93.6618C95.5028 96.0845 79.3911 105.662 79.6721 101.34Z" fill="#FFB27D"></path>
<path d="M83.9399 87.8229C83.9399 87.8229 84.031 89.0857 84.0338 90.2751C86.2765 90.2119 87.4621 88.1636 87.9477 87.0283L83.9399 87.8229Z" fill="#E8945B"></path>
<path d="M83.1896 88.9562C83.1896 88.9562 88.4959 89.0438 88.4996 85.7347C88.5033 82.4256 89.1906 80.2083 85.8028 80.0124C82.4151 79.8166 81.7554 81.0785 81.4859 82.1828C81.2161 83.287 81.8094 88.848 83.1896 88.9562Z" fill="#FFB27D"></path>
<path d="M75.7856 166.075L77.4883 166.494C77.4883 166.494 80.1662 162.823 82.392 157.814C83.8025 154.641 85.0298 151.018 85.2773 147.651C85.3892 146.127 85.3007 144.655 84.9373 143.3C84.9373 143.3 85.4137 140.097 86.0644 135.822C86.7872 131.07 87.7242 124.995 88.4587 120.527L88.0155 120.396L80.771 116.154C80.771 116.154 77.442 123.751 78.2924 135.173C78.4667 137.516 77.9677 141.142 78.4098 143.806C79.1648 148.36 78.8541 152.936 78.2276 156.746C77.3306 162.195 75.7856 166.075 75.7856 166.075Z" fill="#FFB27D"></path>
<path d="M81.6414 80.3358C82.4602 79.3421 83.0794 79.5582 83.427 79.8565C86.272 78.2766 88.198 80.6219 88.198 80.6219C88.5529 82.9962 90.2632 84.3564 90.2632 84.3564C90.2632 84.3564 89.3184 84.859 87.0664 84.3805C84.3934 83.8125 83.658 80.797 83.5514 80.4049C83.2275 80.696 82.589 81.3287 82.3944 81.9488C82.1298 82.7915 82.0109 84.5261 81.5058 84.4672C81.5058 84.4672 80.4112 81.8285 81.6414 80.3358Z" fill="#B64C41"></path>
<path d="M76.3716 146.405C82.7789 150.071 99.6461 144.234 99.6286 143.897C99.5394 142.103 97.9184 131.303 96.0147 120.998C94.8448 114.66 91.7292 112.293 92.2274 111.893C92.2323 111.888 92.2349 111.886 92.2349 111.886C94.1558 110.521 95.695 96.1035 94.4135 93.6642C94.3516 93.5451 94.2449 93.4359 94.0987 93.3317C94.1086 93.3218 94.1111 93.3168 94.1111 93.3168C92.9115 92.4409 90.4601 92.1729 90.4601 92.1729C90.4601 92.1729 89.1389 95.4112 88.735 95.9173C86.12 99.1879 81.4229 97.7115 82.0625 95.6741C82.2929 94.9322 83.4802 92.5971 83.624 92.3365C83.6314 92.3241 83.2919 92.3688 83.2919 92.3688C82.5037 92.473 81.946 92.5525 81.5445 92.6219C80.7563 92.7559 80.5605 92.8503 80.3647 93.0016C79.6731 93.6939 78.7734 95.4136 78.7016 98.4832C78.6743 99.6247 77.4869 112.228 81.3289 112.01C81.4157 112.005 81.3413 112.211 81.1752 112.6C80.6324 113.848 79.0932 116.98 78.647 120.998C77.1945 134.068 76.3716 146.405 76.3716 146.405Z" fill="#F9DDBF"></path>
<path d="M84.5218 86.9328C84.5218 86.9328 84.448 87.3459 83.4309 87.3382C83.4309 87.3382 82.5769 87.3317 82.5786 86.8819C82.5786 86.8819 83.3865 86.5182 84.5218 86.9328Z" fill="white"></path>
<path d="M78.8806 168.343C78.8789 169.307 77.5282 169.415 75.9817 169.347C74.4352 169.279 74.8709 169.638 72.7255 169.822C70.5802 170.006 69.7892 169.349 69.6633 169.049C69.5511 168.783 70.5689 168.479 71.656 168.13C71.7927 168.087 71.9298 168.042 72.0669 167.996C73.2919 167.589 74.051 166.595 75.06 165.702C76.0157 164.856 77.1192 161.964 77.1192 161.964L80.0432 161.621C80.0432 161.621 78.9876 164.218 78.601 165.333C78.3737 165.989 78.5457 166.762 78.7074 167.353C78.7944 167.675 78.8816 168.004 78.8806 168.343Z" fill="#FFB27D"></path>
<path d="M75.9817 169.348C74.4352 169.28 74.8709 169.639 72.7255 169.823C70.5802 170.008 69.7892 169.35 69.6633 169.05C69.5511 168.785 70.5689 168.481 71.656 168.132L71.6706 168.151C71.6706 168.151 73.1065 168.795 74.8622 168.49C76.2932 168.242 77.7208 167.534 78.7074 167.354C78.7943 167.676 78.8815 168.005 78.8805 168.345C78.8789 169.309 77.5282 169.416 75.9817 169.348Z" fill="#1C468A"></path>
<path d="M76.3716 146.408C82.7789 150.073 99.6461 144.237 99.6286 143.899C99.5394 142.105 97.9184 131.306 96.0147 121C94.8448 114.662 91.7292 112.295 92.2274 111.896C92.1084 111.992 90.3015 113.451 86.9876 113.253C84.0207 113.074 81.7354 112.702 81.1751 112.603C80.6323 113.851 79.0931 116.983 78.6469 121C77.1945 134.07 76.3716 146.408 76.3716 146.408Z" fill="#2B478B"></path>
<path d="M92.2349 111.889C92.2349 111.889 86.9883 114.081 81.3288 112.013L81.0415 112.901C81.0415 112.901 86.8636 114.925 92.4616 112.622L92.2349 111.889Z" fill="#163560"></path>
<path d="M82.4482 84.8257H81.5784C81.1816 84.8257 80.8599 84.5036 80.8599 84.1062V83.8378C80.8599 83.6383 81.0215 83.4766 81.2206 83.4766H82.9216C83.0522 83.4766 83.1581 83.5825 83.1581 83.7133V84.1149C83.158 84.5075 82.8401 84.8257 82.4482 84.8257Z" fill="#163560"></path>
<path d="M85.0444 84.8257H85.9141C86.311 84.8257 86.6327 84.5036 86.6327 84.1062V83.8378C86.6327 83.6383 86.4712 83.4766 86.2719 83.4766H84.5709C84.4403 83.4766 84.3345 83.5825 84.3345 83.7133V84.1149C84.3346 84.5075 84.6524 84.8257 85.0444 84.8257Z" fill="#163560"></path>
<path d="M84.5722 84.0555C84.5649 84.0522 83.8234 83.7324 83.1147 84.0552L83.0615 83.938C83.8243 83.5906 84.5921 83.9233 84.6243 83.9377L84.5722 84.0555Z" fill="#163560"></path>
<path d="M98.0181 108.447C98.0803 108.371 95.256 107.453 93.5972 107.85C92.6086 108.086 93.0107 109.276 93.8206 109.36C94.6303 109.443 97.4782 109.107 98.0181 108.447Z" fill="#FFB27D"></path>
<path d="M93.1512 108.123C93.1512 108.123 92.2354 109.345 92.2354 109.922C92.2354 110.5 92.7327 111.842 93.2193 111.693C93.7061 111.544 93.9108 110.258 93.9853 109.96C94.0597 109.662 94.62 109.456 94.7485 109.046C94.877 108.637 94.8975 108.469 94.8975 108.469L93.1512 108.123Z" fill="#FFB27D"></path>
<path d="M95.6308 96.4941C95.6167 96.4876 102.898 108.668 101.961 110.922C101.024 113.176 100.336 111.254 99.5197 110.36C99.3777 110.204 92.8477 101.763 93.0541 100.401C93.2606 99.0385 95.6308 96.4941 95.6308 96.4941Z" fill="#FFB27D"></path>
<path d="M92.1432 109.989C92.1432 109.989 88.9846 110.388 88.6861 110.612C88.3876 110.836 87.666 112.341 87.741 112.805C87.816 113.268 88.8353 113.998 89.1836 113.998C89.5318 113.998 89.6593 113.226 89.9825 113.052C90.3059 112.878 90.61 112.837 90.8582 112.77C91.3325 112.642 92.2296 112.23 92.2296 112.23L92.1432 109.989Z" fill="#FFB27D"></path>
<path d="M106.489 94.8682C106.489 94.8682 102.331 106.129 100.541 106.998C98.7514 107.868 92.1516 109.986 92.1516 109.986V112.576C92.1516 112.576 98.8667 112.682 102.199 111.708C105.532 110.733 109.871 107.096 109.871 107.096L106.489 94.8682Z" fill="#233862"></path>
<path d="M115.166 84.207L111.099 91.9323L110.129 92.0018L109.691 93.2342L105.613 105.531C105.613 105.531 103.358 89.907 115.166 84.207Z" fill="#233862"></path>
<path d="M108.383 91.04C108.383 91.04 103.886 107.639 103.452 123.478C103.452 123.478 107.183 124.78 113.043 123.749C118.933 122.713 108.383 91.04 108.383 91.04Z" fill="#233862"></path>
<path d="M128.885 169.973H132.928C133.437 169.696 133.891 169.063 134.034 168.118C134.232 166.814 135.692 166.103 136.008 165.036C136.323 163.97 134.705 162.469 134.705 162.469L134.434 162.119L134.153 161.757L131.469 162.39C131.469 162.39 131.403 163.03 131.362 163.845C131.333 164.433 131.318 165.112 131.351 165.708C131.43 167.13 130.953 168.662 129.691 168.939C128.758 169.143 128.799 169.697 128.885 169.973Z" fill="#233862"></path>
<path d="M105.422 169.976H114.668C115.113 169.433 114.949 167.428 114.882 166.773C114.868 166.641 114.859 166.564 114.859 166.564C114.859 166.564 111.701 164.036 111.267 165.972C111.254 166.033 111.238 166.092 111.22 166.151C110.674 167.962 108.223 168.785 106.808 169.014C105.887 169.163 105.547 169.642 105.422 169.976Z" fill="#233862"></path>
<path d="M107.181 118.247C107.181 118.247 107.661 124.235 108.224 131.434C108.99 141.213 109.911 153.225 110.002 155.501C110.16 159.453 110.792 165.773 110.792 165.773C110.792 165.773 112.291 167.275 115.291 166.642C115.291 166.642 117.964 157.619 118.727 148.072C118.739 147.916 118.751 147.758 118.763 147.601C119.473 137.882 120.578 117.417 120.578 117.417L107.181 118.247Z" fill="#F99746"></path>
<path d="M107.181 118.247C107.181 118.247 107.661 124.235 108.224 131.434L118.727 148.072C118.739 147.916 118.751 147.758 118.763 147.601C119.473 137.882 120.578 117.417 120.578 117.417L107.181 118.247Z" fill="#ED7D2B"></path>
<path d="M109.371 118.958C109.371 118.958 118.013 140.647 123.695 150.84C129.378 161.032 131.154 163.877 131.154 163.877C131.154 163.877 134.409 162.573 134.705 161.684C134.705 161.684 132.532 142.007 128.727 137.21C126.576 134.5 124.05 126.365 123.932 123.521C123.814 120.677 123.163 115.047 123.163 115.047L109.371 118.958Z" fill="#F99746"></path>
<path d="M111.525 87.3416C114.902 88.4085 120.745 85.5292 120.745 85.5292C120.745 85.5292 117.631 83.1896 117.795 78.3252L115.183 80.432L113.41 81.8628C113.41 81.8628 113.417 82.7063 113.611 84.1847C113.646 84.4543 113.688 84.7454 113.737 85.0564C113.776 85.3044 113.666 85.5549 113.453 85.687C112.222 86.4492 111.525 87.3416 111.525 87.3416Z" fill="#FFB27D"></path>
<path d="M106.809 118.745C106.911 118.83 107.029 118.881 107.164 118.881C108.432 118.863 112.13 119.569 115.259 119.247C117.897 118.993 120.232 118.211 122.739 117.086C123.072 116.936 123.839 116.527 123.822 116.154C123.81 115.746 123.77 115.155 123.719 114.409C123.541 111.818 123.232 107.362 123.534 102.221C123.588 101.263 123.616 100.314 123.62 99.3786C123.646 92.4103 122.266 86.2814 119.492 84.207C119.492 84.207 117.559 85.2931 116.22 85.7215C114.909 86.1412 114.233 86.0567 113.553 85.6051C113.553 85.6051 112.229 86.2639 111.663 86.8817C110.352 88.3119 109.329 90.2104 108.653 92.9359C108.077 95.2553 107.538 98.637 107.352 102.971C107.268 104.935 106.724 118.677 106.809 118.745Z" fill="white"></path>
<path d="M126.025 121.975C117.501 127.327 110.547 124.614 110.547 124.614C109.3 114.851 109.99 103.068 110.152 100.194C110.565 87.5774 119.49 84.207 119.49 84.207L123.208 95.7206L123.758 100.843L124.751 110.097L126.025 121.975Z" fill="#2B478B"></path>
<path d="M113.411 81.8644C113.411 81.8644 113.419 82.708 113.613 84.1864C115.578 83.8489 117.807 80.6687 117.807 80.6687C116.807 80.3794 115.93 80.3274 115.185 80.4336L113.411 81.8644Z" fill="#ED975D"></path>
<path d="M111.94 81.7718C111.94 81.7718 118.023 82.7835 118.594 78.9815C119.165 75.1795 120.334 72.7495 116.475 71.9428C112.615 71.1361 111.641 72.473 111.142 73.6956C110.643 74.9184 110.372 81.4107 111.94 81.7718Z" fill="#FFB27D"></path>
<path d="M129.195 114.915C129.195 114.915 129.847 115.785 129.873 116.133C130.048 118.488 128.973 118.814 131.756 120.122C131.756 120.122 132.945 120.576 132.965 119.653C132.985 118.729 132.14 118.714 132.295 117.421C132.473 115.929 132.455 115.916 131.477 115.137L130.83 114.065L129.195 114.915Z" fill="#FFB27D"></path>
<path d="M118.608 78.6143C118.608 78.6143 117.984 78.5099 118.085 77.6492C118.185 76.7884 118.184 75.6633 117.485 75.8731C116.786 76.0828 116.751 76.6431 116.464 76.3159C116.177 75.9886 116.172 74.6102 114.092 74.5142C112.012 74.4182 111.166 75.143 110.199 74.7173C109.232 74.2915 109.181 72.8258 109.181 72.8258C109.181 72.8258 109.456 73.3492 109.871 73.5157C109.871 73.5157 108.258 71.3061 110.126 69.791C111.994 68.2759 113.899 69.2677 114.981 69.3333C117.363 69.4776 118.901 69.6207 119.68 71.1878C120.458 72.7548 120.137 77.106 118.608 78.6143Z" fill="#2B478B"></path>
<path d="M130.222 115.95C130.222 115.95 129.594 116.606 129.554 116.878C129.427 117.754 129.135 118.132 129.282 118.227C129.586 118.425 129.988 117.777 130.181 117.195C130.373 116.614 130.222 115.95 130.222 115.95Z" fill="#FFB27D"></path>
<path d="M124.75 110.1C122.881 105.315 117.661 97.2432 117.661 97.2432L123.757 100.846L124.75 110.1Z" fill="#233862"></path>
<path d="M130.854 115.578C129.805 115.783 128.668 115.7 128.668 115.7C128.668 115.7 125.555 106.072 125.155 105.192C124.896 104.624 120.926 100.579 118.148 97.7878C116.514 96.145 115.983 93.7013 116.787 91.527L119.496 84.207C119.496 84.207 121.601 85.4402 123.826 89.2835C126.574 94.0309 129.596 101.677 130.133 102.919C131.738 106.634 132.295 114.964 132.295 114.964C132.295 114.964 131.677 115.417 130.854 115.578Z" fill="#2B478B"></path>
<path d="M119.498 84.207L115.431 91.9323L113.345 91.1729L114.023 93.2341L109.945 105.531C109.945 105.531 107.69 89.907 119.498 84.207Z" fill="#233862"></path>
<path d="M111.524 79.6161C111.524 79.6161 111.761 80.2429 112.354 80.2598C112.946 80.2768 113.403 79.7008 113.403 79.7008C113.403 79.7008 112.117 79.4026 111.524 79.6161Z" fill="white"></path>
<path d="M94.1012 93.334C94.1012 93.334 96.0645 94.9195 98.1537 99.6659C98.1537 99.6659 97.7296 102.719 92.238 103.549C86.7465 104.379 94.1012 93.334 94.1012 93.334Z" fill="#F9DDBF"></path>
<path d="M80.7989 92.7842C80.7989 92.7842 78.7787 93.0919 77.8834 97.0425C76.988 100.993 77.1207 103.118 77.1207 103.118C77.1207 103.118 78.0492 104.28 79.2761 103.981C80.5031 103.682 80.7989 92.7842 80.7989 92.7842Z" fill="#F9DDBF"></path>
<path d="M103.448 112.249C103.448 112.249 103.85 111.431 102.022 110.101C100.639 109.096 97.4001 108.207 97.4001 108.207L93.3833 108.503C93.3833 108.503 97.5744 112.077 99.6237 112.807C101.58 113.504 103.345 113.066 103.448 112.249Z" fill="#FFB27D"></path>
<path d="M237.401 97.9364C237.064 97.2933 244.724 94.973 244.845 101.331C244.845 101.331 259.192 100.98 252.341 93.0218C249.97 90.2679 250.214 87.9902 250.285 85.8697C250.356 83.7492 248.807 77.5873 243.498 78.2073C243.498 78.2073 242.107 77.6434 240.371 78.5398C236.424 80.5775 227.583 100.281 237.401 97.9364Z" fill="#01265D"></path>
<path d="M247.354 105.501C247.763 106.26 248.241 106.979 248.782 107.651C249.893 109.033 251.604 110.631 253.752 110.947C254.778 111.096 255.781 110.877 256.704 110.469C259.313 109.316 261.275 106.665 261.275 106.665C261.413 106.321 261.459 105.947 261.408 105.58C261.356 105.213 261.21 104.865 260.982 104.572C260.982 104.572 255.719 105.751 255.212 105.501C254.705 105.251 251.785 96.8606 251.086 95.8058C250.387 94.751 248.014 94.2041 248.014 94.2041L247.354 105.501Z" fill="#4E86D9"></path>
<path d="M248.777 107.653C249.888 109.036 251.599 110.634 253.747 110.949C254.773 111.099 255.776 110.88 256.699 110.472C256.596 110.485 253.992 110.806 252.953 108.957C251.893 107.07 250.749 104.075 249.173 105.074C248.495 105.502 248.524 106.576 248.777 107.653Z" fill="#306ECA"></path>
<path d="M227.702 162.146C227.702 162.146 226.095 163.607 226.408 164.643C226.722 165.678 228.173 166.372 228.367 167.64C228.56 168.908 229.346 169.599 230.053 169.599H233.418C233.418 169.599 233.937 168.707 232.684 168.438C231.43 168.169 230.955 166.679 231.034 165.297C231.112 163.914 230.911 162.069 230.911 162.069L228.245 161.46L227.702 162.146Z" fill="#424242"></path>
<path d="M241.303 162.764C241.303 162.764 240.725 168.949 241.425 169.295L250.458 169.276C250.458 169.276 250.458 168.239 249.008 168.008C247.557 167.778 245.008 166.932 244.577 165.05C244.146 163.168 241.303 162.764 241.303 162.764Z" fill="#424242"></path>
<path d="M234.869 118.344C236.728 114.203 237.865 113.006 237.648 111.718C237.486 110.761 238.138 93.8527 238.138 93.8527C238.358 93.7845 238.8 93.7236 239.042 93.67C239.417 93.5902 239.766 93.417 240.056 93.1665C240.346 92.9159 240.567 92.5963 240.698 92.2376C241.014 91.3558 241.266 90.0537 241.26 88.4229L241.498 88.4691L245.501 89.2584C245.501 89.2584 245.411 90.5117 245.408 91.6944V91.7236C245.405 92.2225 245.565 92.7088 245.865 93.1087C246.165 93.5086 246.588 93.8002 247.069 93.9391L248.015 94.2083C248.015 94.2083 249.484 98.3848 249.766 102.675C250.047 106.964 247.093 108.829 249.788 117.404C252.543 126.159 233.843 120.636 234.869 118.344Z" fill="#CF8B64"></path>
<path d="M245.502 89.2558C245.502 89.2558 245.412 90.5091 245.409 91.6918C243.168 91.6285 241.982 89.5944 241.499 88.4678L245.502 89.2558Z" fill="#AB5C30"></path>
<path d="M246.247 90.3753C246.247 90.3753 240.947 90.4618 240.943 87.1769C240.939 83.8919 240.253 81.6959 243.636 81.4949C247.019 81.294 247.675 82.5534 247.948 83.6496C248.221 84.7458 247.626 90.2682 246.247 90.3753Z" fill="#CF8B64"></path>
<path d="M246.055 81.4137C246.055 81.4137 244.605 85.2686 242.383 85.8387C240.162 86.4087 239.19 85.8143 239.19 85.8143C240.289 84.8539 241.018 83.5432 241.252 82.1067C241.252 82.1067 244.962 79.5794 246.055 81.4137Z" fill="#01265D"></path>
<path d="M245.696 81.7271C245.696 81.7271 246.773 82.1278 247.215 82.9086C247.75 83.8205 248 84.8705 247.932 85.9243C247.932 85.9243 249.025 83.3044 247.796 81.8233C246.493 80.2509 245.696 81.7271 245.696 81.7271Z" fill="#01265D"></path>
<path d="M234.356 101.328C234.275 102.712 234.275 104.099 234.356 105.483C234.445 106.985 235.972 108.997 236.192 109.494C236.736 110.742 237.349 110.946 237.349 110.946L242.092 112.103L243.759 112.508L249.022 110.946C249.022 110.946 251.418 104.293 250.456 100.548C249.493 96.8023 248.021 94.2031 248.021 94.2031C248.021 94.2031 243.73 98.3832 238.143 93.8486L234.356 101.328Z" fill="#4E86D9"></path>
<path d="M235.743 106.099C235.832 107.6 235.97 109 236.187 109.497C236.73 110.745 237.344 110.949 237.344 110.949L242.087 112.106L245.434 111.578C245.434 111.578 239.192 112.309 238.918 102.877L235.743 106.099Z" fill="#306ECA"></path>
<path d="M248.677 111.959C248.677 111.959 251.28 120.025 251.448 122.771C251.616 125.518 246.47 161.782 246.263 163.048C246.068 164.241 244.58 164.997 244.58 164.997C244.062 165.247 243.467 165.291 242.918 165.118C241.563 164.738 241.134 164.282 241.134 164.282C241.134 164.282 239.107 138.417 240.361 129.178C241.124 123.468 241.548 117.718 241.63 111.959H248.677Z" fill="#F6C063"></path>
<path d="M237.645 111.713C237.645 111.713 233.673 117.017 233.302 120.604C232.931 124.191 232.721 136.783 231.933 140.279C231.144 143.774 228.245 150.5 228.245 161.401C228.245 161.401 228.546 162.026 229.476 162.36C229.831 162.478 230.193 162.578 230.559 162.657C230.932 162.742 231.323 162.699 231.668 162.536C232.014 162.373 232.294 162.099 232.464 161.758C234.422 157.831 240.665 145.168 240.987 142.538C241.213 140.678 243.184 128.367 247.484 121.141C248.516 119.407 246.85 112.509 246.85 112.509L237.645 111.713Z" fill="#FFCC73"></path>
<path d="M249.101 110.711C249.101 110.711 248.056 111.533 245.978 111.574C243.497 111.624 237.35 110.946 237.35 110.946C237.181 111.449 237.093 111.976 237.088 112.506C237.088 112.506 244.597 114.392 248.945 112.782C248.945 112.782 249.507 111.732 249.101 110.711Z" fill="#424242"></path>
<path d="M245.436 112.431C245.436 111.728 245.944 111.155 246.568 111.155C247.193 111.155 247.7 111.728 247.7 112.431C247.7 113.133 247.193 113.706 246.568 113.706C245.944 113.706 245.436 113.133 245.436 112.431ZM245.812 112.431C245.812 112.927 246.151 113.332 246.568 113.332C246.986 113.332 247.325 112.927 247.325 112.431C247.325 111.934 246.986 111.529 246.568 111.529C246.151 111.529 245.818 111.934 245.818 112.431H245.812Z" fill="white"></path>
<path d="M242.879 117.816C242.879 117.816 244.318 119.821 244.715 120.137C245.113 120.452 245.894 121.476 246.034 122.021C246.034 122.021 246.026 122.243 245.818 122.243C245.61 122.243 245.144 121.448 244.802 121.575C244.802 121.575 245.237 122.627 245.493 122.893C245.749 123.159 245.894 124.498 245.842 124.789C245.789 125.081 244.035 123.693 243.299 123.064C242.908 122.729 243.086 121.587 242.965 120.668C242.859 119.86 241.145 118.893 241.145 118.893L242.879 117.816Z" fill="#CF8B64"></path>
<path d="M238.141 93.8486C238.141 93.8486 233.943 94.2701 232.935 97.3954C231.926 100.521 233.39 109.745 234.608 112.103C235.826 114.461 239.971 119.581 242.772 120.206L244.149 119.232C244.149 119.232 239.239 110.389 239.239 109.914C239.239 109.439 238.994 100.827 238.935 99.9179C238.876 99.0093 238.141 93.8486 238.141 93.8486Z" fill="#4E86D9"></path>
<path d="M260.936 105.178C260.936 105.178 261.875 103.756 262.631 103.729C263.387 103.702 264.788 103.31 264.676 103.589C264.565 103.868 263.692 103.895 263.611 104.063C263.53 104.23 264.9 104.481 265.293 104.508C265.685 104.535 266.609 104.508 266.582 104.704C266.555 104.9 264.915 105.708 263.753 105.596C262.59 105.485 261.17 105.93 261.17 105.93L260.936 105.178Z" fill="#CF8B64"></path>
<path d="M285.904 86.8271C285.904 86.8271 278.183 100.257 279.731 104.883C281.28 109.508 286.461 109.809 286.461 109.809L285.904 86.8271Z" fill="#D6565A"></path>
<path d="M282.733 102.788C282.733 102.788 280.34 103.653 280.947 106.175C281.553 108.696 283.783 106.718 283.783 106.718L283.912 105.05L282.733 102.788Z" fill="#CB4147"></path>
<path d="M281.909 169.499H292.689C293.46 168.977 292.48 163.882 292.48 163.882C292.48 163.882 289.537 162.772 289.036 165.03C288.534 167.288 285.289 168.006 283.576 168.281C282.397 168.471 282.027 169.112 281.909 169.499Z" fill="#424242"></path>
<path d="M297.89 169.499H308.668C309.441 168.977 308.46 163.882 308.46 163.882C308.46 163.882 305.518 162.772 305.01 165.03C304.502 167.288 301.264 168.006 299.55 168.281C298.378 168.471 298.006 169.112 297.89 169.499Z" fill="#424242"></path>
<path d="M284.807 117.469C284.807 117.469 285.292 123.483 285.861 130.713C286.635 140.535 288.722 164.886 288.722 164.886C288.722 164.886 290.091 166.048 293.122 165.412C293.122 165.412 295.705 157.012 296.474 147.42C296.486 147.263 296.498 147.104 296.51 146.946C297.228 137.185 298.343 116.632 298.343 116.632L284.807 117.469Z" fill="#1054BB"></path>
<path d="M284.175 114.332C284.175 114.332 285.293 123.481 285.862 130.711L296.474 147.421C296.487 147.265 296.499 147.105 296.51 146.948C297.228 137.187 298.344 116.633 298.344 116.633L284.175 114.332Z" fill="#003B94"></path>
<path d="M287.739 115.391C287.739 115.391 295.436 134.457 297.898 141.684C299.65 146.832 304.594 164.892 304.594 164.892C304.594 164.892 306.744 165.541 308.549 164.28C308.549 164.28 310.388 145.83 306.674 140.627C304.706 137.867 306.639 110.339 298.648 110.118C290.657 109.896 287.739 115.391 287.739 115.391Z" fill="#1054BB"></path>
<path d="M291.165 87.283C292.183 87.8225 293.362 87.9802 294.486 87.7273C295.285 87.5482 296.046 87.2286 296.732 86.7837C297.053 86.5832 297.357 86.356 297.639 86.1044C297.639 86.1044 297.599 86.0469 297.532 85.9343C297.185 85.3431 296.132 83.2196 296.601 79.806C296.601 79.7619 296.267 79.8256 295.754 79.9455C294.227 80.3054 291.157 81.1695 291.02 81.2111C291.02 81.2111 290.982 81.9283 290.857 83.2159C290.846 83.3285 290.834 83.4472 290.821 83.5696C290.806 83.7214 290.79 83.8805 290.772 84.0457C290.619 85.3859 291.165 87.283 291.165 87.283Z" fill="#F5B997"></path>
<path d="M290.854 83.2167C293.133 83.7356 296.537 80.3869 296.537 80.3869C296.296 80.2082 296.034 80.0601 295.757 79.9463C294.229 80.3061 291.159 81.1702 291.023 81.2118C291.023 81.2118 290.98 81.9291 290.854 83.2167Z" fill="#E58D6D"></path>
<path d="M283.609 112.179C283.775 114.365 284.053 116.266 284.053 116.266C291.582 118.431 303.552 116.021 303.391 114.787C303.306 114.13 303.226 113.074 303.184 112.094C303.184 112.032 303.184 111.972 303.176 111.906C303.053 109.049 303.076 105.114 303.061 101.347C303.05 99.0325 303.028 96.7841 302.95 94.887C302.95 94.887 304.017 87.4332 302.827 86.2105C301.438 84.7797 296.955 84.3611 296.876 84.3477C296.876 84.3477 292.993 86.5936 290.746 84.6022C290.746 84.6022 286.993 85.6842 285.91 86.8225C285.541 87.2141 284.047 89.6204 284.006 92.2629C283.95 95.9457 284.095 100.13 284.095 100.132C284.056 100.73 283.99 101.501 283.92 102.382C283.845 103.32 283.76 104.38 283.69 105.485C283.655 106.042 283.623 106.61 283.596 107.179C283.516 108.935 283.486 110.699 283.609 112.179Z" fill="#D6565A"></path>
<path d="M290.078 81.0309C290.774 81.2644 291.49 81.4316 292.217 81.5303C293.965 81.7653 296.264 81.6257 296.986 79.5218C298.202 75.9797 299.756 73.8562 296.176 72.4095C294.26 71.6347 293.035 71.5943 292.202 71.8893C291.479 72.1439 291.052 72.6543 290.726 73.1585C290.028 74.238 288.63 80.4116 290.078 81.0309Z" fill="#F5B997"></path>
<path d="M290.448 71.0139C289.64 71.2085 289.276 72.4765 290.046 73.0028C291.425 73.9477 293.111 73.5769 293.736 73.8522C294.627 74.2451 294.787 75.731 294.803 76.2022C294.819 76.6734 294.881 77.0736 296.089 76.7909C296.233 76.7424 296.391 76.7516 296.528 76.8166C297.03 77.1128 296.389 78.5485 296.196 78.8582C296.196 78.8582 295.918 79.8863 296.536 80.3869C296.609 80.4468 297.822 80.9743 300.745 76.5241C301.204 75.8252 301.643 74.2525 300.933 72.7372C300.223 71.222 298.034 69.3457 295.398 69.3457C293.32 69.3457 292.159 70.6002 290.448 71.0139Z" fill="#6E310E"></path>
<path d="M293.923 109.569C293.923 109.569 291.034 111.467 289.919 111.588C289.161 111.671 286.163 111.549 286.147 111.172C286.124 110.639 287.978 110.077 288.459 109.863C288.94 109.649 289.313 109.403 289.311 109.196C289.309 108.989 287.454 109.674 287.653 109.223C287.852 108.773 289.567 107.989 289.98 107.915C290.393 107.84 291.729 108.289 292.247 108.051C292.765 107.812 293.923 109.569 293.923 109.569Z" fill="#E58D6D"></path>
<path d="M292.662 107.906C292.278 108.623 293.93 109.569 293.93 109.569C293.93 109.569 298.497 111.729 303.179 112.097C303.179 112.034 303.179 111.974 303.17 111.908C303.047 109.052 303.192 100.726 303.179 96.959C303.179 96.959 301.979 101.556 297.89 104.303C295.305 106.046 292.935 107.397 292.662 107.906Z" fill="#CB4147"></path>
<path d="M301.819 85.5186C301.819 85.5186 303.797 86.3496 306.149 90.7227C308.501 95.0959 310.726 104.354 309.772 105.859C308.819 107.365 300.793 110.811 293.791 109.898C293.791 109.898 292.054 108.325 292.405 107.718C292.405 107.718 304.14 102.958 304.148 102.389C304.155 101.82 299.966 96.9134 299.72 94.4717C299.474 92.0299 301.819 85.5186 301.819 85.5186Z" fill="#D6565A"></path>
<path d="M290.21 96.585C290.21 96.585 290.349 98.0818 290.21 98.471C290.071 98.8603 286.074 98.9459 285.973 98.5812C285.872 98.2165 285.727 97.1125 285.973 96.9179C286.219 96.7233 290.21 96.585 290.21 96.585Z" fill="#CF8B64"></path>
<path d="M287.568 110.49H288.466C289.538 110.486 290.564 110.061 291.322 109.307C292.079 108.553 292.507 107.531 292.51 106.465V102.608C292.51 100.394 292.462 98.427 290.071 97.6963L285.866 98.0121C282.234 99.0096 283.523 100.394 283.523 102.608V106.465C283.526 107.531 283.954 108.553 284.712 109.307C285.469 110.061 286.496 110.487 287.568 110.49Z" fill="#CF8B64"></path>
<path d="M285.968 97.9601C285.968 97.9601 284.977 98.2123 284.269 97.8231C283.248 97.2625 282.025 96.948 281.809 96.6921C281.447 96.2577 279.683 94.4707 279.683 94.4707L278.836 95.0337C278.836 95.0337 279.652 98.3383 280.312 98.9246C280.971 99.5109 282.157 101.609 284.15 101.905C285.191 102.059 285.968 97.9601 285.968 97.9601Z" fill="#CF8B64"></path>
<path d="M279.682 94.4711C279.682 94.4711 279.992 93.6401 279.736 93.5312C279.48 93.4222 279.331 94.0269 279.331 94.0269C279.331 94.0269 278.666 92.6536 277.99 93.246C277.313 93.8384 278.835 95.0342 278.835 95.0342L279.682 94.4711Z" fill="#CF8B64"></path>
<path d="M290.232 97.7424C290.232 97.7424 291.224 97.9945 291.932 97.6065C292.954 97.0447 294.177 96.7302 294.392 96.4744C294.754 96.0399 296.517 94.2529 296.517 94.2529L297.365 94.8159C297.365 94.8159 296.548 98.1206 295.889 98.7068C295.23 99.2931 294.044 101.391 292.05 101.687C291.011 101.841 290.232 97.7424 290.232 97.7424Z" fill="#CF8B64"></path>
<path d="M296.511 94.253C296.511 94.253 296.201 93.4219 296.457 93.313C296.713 93.204 296.861 93.8025 296.861 93.8025C296.861 93.8025 297.527 92.4293 298.203 93.0229C298.88 93.6165 297.358 94.8098 297.358 94.8098L296.511 94.253Z" fill="#CF8B64"></path>
<path d="M284.23 104.883C284.23 104.883 281.879 105.91 280.636 106.273C279.479 106.611 278.053 107.42 278.019 107.55C277.984 107.68 277.973 108.824 278.56 109.048C279.147 109.272 285.513 110.178 286.458 109.809C286.458 109.804 285.779 105.267 284.23 104.883Z" fill="#CF8B64"></path>
<path d="M278.115 105.171C278.115 105.171 279.237 105.249 279.897 106.069C279.986 106.175 280.105 106.251 280.239 106.288C280.373 106.324 280.514 106.319 280.645 106.272C280.645 106.272 282.411 107.394 281.286 109.512C281.286 109.512 278.907 109.365 278.569 109.047C278.231 108.729 278.115 105.171 278.115 105.171Z" fill="#E0E4E5"></path>
<path d="M278.56 109.045C278.56 109.045 277.372 108.766 277.158 107.583C276.944 106.399 277.158 105.281 277.948 105.181C278.737 105.082 279.224 105.505 279.438 106.069C279.652 106.633 280.282 109.103 278.56 109.045Z" fill="#4E86D9"></path>
<path d="M287.7 88.5926C287.7 88.5926 285.327 88.4861 284.423 90.7308C283.519 92.9755 283.342 96.8334 285.439 97.4429C286.869 97.8578 288.411 97.5653 289.791 97.039C290.52 96.7599 290.767 96.1492 291.184 95.6657C293.861 92.5594 292.996 88.8729 287.7 88.5926Z" fill="#CF8B64"></path>
<path d="M292.51 104.326C292.51 104.326 287.847 105.321 283.531 104.326C283.531 104.326 283.039 105.165 282.974 105.415C282.838 105.947 283.082 106.818 284.043 107.928C285.456 109.561 290.285 110.78 291.979 109.735C293.46 108.827 293.794 105.703 292.51 104.326Z" fill="#E0E4E5"></path>
<path d="M287.298 106.3C286.431 106.6 285.175 107.299 284.044 107.926C282.992 108.511 281.775 109.614 281.775 109.748C281.775 109.883 282.021 111 282.636 111.095C283.251 111.189 289.669 110.666 290.508 110.097C290.804 109.996 291.065 109.813 291.26 109.568C291.454 109.324 291.574 109.029 291.604 108.719C291.789 107.111 290.998 105.019 287.298 106.3Z" fill="#CF8B64"></path>
<path d="M281.332 107.405C281.332 107.405 282.439 107.234 283.269 107.888C283.379 107.972 283.513 108.02 283.651 108.026C283.79 108.032 283.927 107.996 284.044 107.921C284.044 107.921 286.012 108.626 285.39 110.941C285.39 110.941 283.037 111.32 282.636 111.085C282.235 110.85 281.332 107.405 281.332 107.405Z" fill="#E0E4E5"></path>
<path d="M282.64 111.09C282.64 111.09 281.42 111.079 280.948 109.972C280.475 108.866 280.442 107.725 281.184 107.456C281.925 107.187 282.501 107.49 282.836 107.993C283.17 108.496 284.334 110.765 282.64 111.09Z" fill="#4E86D9"></path>
<path d="M289.758 93.9167C289.758 93.9167 290.679 93.1138 290.971 93.6964C291.264 94.279 290.595 95.1321 290.051 95.1431C289.508 95.1541 289.397 94.1737 289.758 93.9167Z" fill="#AB5C30"></path>
<path d="M289.637 93.8906C289.637 93.8906 290.339 93.2783 290.563 93.7216C290.787 94.1649 290.277 94.8237 289.861 94.8237C289.445 94.8237 289.356 94.0829 289.637 93.8906Z" fill="#CF8B64"></path>
<path d="M290.45 89.7715C290.45 89.7715 289.311 91.3125 286.917 91.2549C286.917 91.2549 285.977 91.1203 285.578 90.5145C285.578 90.5145 286.333 90.8155 286.733 90.6883C286.733 90.6883 284.476 90.3455 284.504 89.7446C284.532 89.1436 285.717 88.4717 286.581 88.3689C287.269 88.2869 289.349 88.3003 289.977 88.6443C290.606 88.9882 290.626 89.5708 290.45 89.7715Z" fill="#6E310E"></path>
<path d="M289.442 88.4736C289.442 88.4736 292.055 88.8959 292.517 90.9668C292.704 91.8003 292.309 93.0169 292.309 93.0169C292.309 93.0169 292.362 90.5507 290.274 90.4466C288.755 90.3707 287.76 90.2177 287.76 90.2177L289.442 88.4736Z" fill="#6E310E"></path>
<path d="M289.062 100.89C289.062 100.921 289.072 100.952 289.089 100.977C289.106 101.003 289.131 101.023 289.16 101.035C289.189 101.047 289.22 101.05 289.251 101.044C289.282 101.038 289.31 101.023 289.332 101.001C289.354 100.978 289.368 100.95 289.374 100.92C289.38 100.889 289.377 100.858 289.365 100.829C289.353 100.801 289.332 100.776 289.306 100.759C289.28 100.742 289.25 100.733 289.219 100.733C289.198 100.733 289.178 100.737 289.158 100.745C289.139 100.753 289.122 100.765 289.108 100.779C289.093 100.794 289.082 100.811 289.074 100.83C289.066 100.849 289.062 100.87 289.062 100.89Z" fill="#AB5C30"></path>
<path d="M285.135 100.89C285.135 100.921 285.144 100.951 285.161 100.977C285.178 101.003 285.203 101.023 285.232 101.035C285.261 101.047 285.292 101.05 285.323 101.044C285.353 101.038 285.381 101.023 285.403 101.001C285.425 100.979 285.44 100.951 285.447 100.921C285.453 100.89 285.449 100.859 285.438 100.83C285.426 100.802 285.405 100.777 285.38 100.76C285.354 100.743 285.323 100.733 285.292 100.733C285.25 100.733 285.21 100.75 285.181 100.779C285.151 100.809 285.135 100.849 285.135 100.89Z" fill="#AB5C30"></path>
<path d="M281.838 103.841C281.899 103.611 282.011 103.398 282.165 103.216C282.319 103.034 282.511 102.888 282.728 102.789C283.287 102.532 284.081 102.187 284.439 102.122C285.027 102.016 286.229 101.312 286.327 101.678C286.425 102.044 285.478 102.467 285.473 102.87C285.469 103.273 288.133 104.258 288.056 104.676C287.98 105.095 287.226 106.023 286.194 105.778C285.162 105.533 282.599 104.931 282.012 104.766C281.699 104.679 281.731 104.246 281.838 103.841Z" fill="#E58D6D"></path>
<path d="M249.555 113.543C249.555 113.543 247.547 114.364 246.867 115.473C246.186 116.582 245.51 118.815 245.987 119.938C246.463 121.06 243.619 121.036 243.951 122.964C244.284 124.893 246.207 123.831 245.361 125.54C244.515 127.249 246.879 127.815 249.007 127.525C251.136 127.234 257.424 127.201 257.722 125.863C258.02 124.525 255.392 123.923 256.45 122.907C257.508 121.891 258.623 122.071 257.44 119.58C256.257 117.089 255.059 112.168 249.555 113.543Z" fill="#0E356E"></path>
<path d="M257.771 143.13C257.771 143.13 256.668 150.938 255.864 157.735C255.172 157.857 253.312 158.091 251.751 157.509C251.553 157.429 251.343 157.381 251.13 157.367C251.008 156.419 250.952 155.611 251.008 155.089C251.306 152.443 248.623 141.588 251.091 140.627C253.559 139.665 257.771 143.13 257.771 143.13Z" fill="#E58D6D"></path>
<path d="M251.129 157.406C251.601 161.169 253.141 167.176 253.141 167.176L255.071 167.409C254.93 166.347 255.332 162.285 255.865 157.771C255.179 157.893 253.315 158.13 251.757 157.547C251.557 157.466 251.345 157.418 251.129 157.406Z" fill="#ECEFEF"></path>
<path d="M254.993 143.152C254.993 143.152 253.372 151.159 252.156 158.029C251.13 158.124 249.258 158.207 247.529 157.673C247.422 156.404 247.398 155.324 247.506 154.672C247.958 152.061 245.956 141.051 248.487 140.244C251.017 139.438 254.993 143.152 254.993 143.152Z" fill="#F5B997"></path>
<path d="M255.046 167.071C255.046 167.071 255.504 167.908 256.378 168.103C256.9 168.206 257.366 168.495 257.689 168.916C257.745 168.992 257.778 169.082 257.785 169.176C257.793 169.27 257.774 169.364 257.731 169.448C257.687 169.532 257.622 169.603 257.541 169.652C257.46 169.7 257.367 169.726 257.272 169.726L252.833 169.701C252.743 169.701 252.655 169.682 252.574 169.645C252.493 169.609 252.42 169.556 252.36 169.489C252.301 169.423 252.256 169.345 252.229 169.261C252.201 169.176 252.192 169.087 252.201 168.999C252.237 168.672 252.274 168.291 252.29 167.998C252.326 167.36 253.025 166.788 253.025 166.788C253.025 166.788 253.638 167.136 253.869 167.177C254.377 167.266 255.046 167.071 255.046 167.071Z" fill="#CB4147"></path>
<path d="M255.89 124.421C255.89 124.421 258.791 129.288 259.377 133.256C259.377 133.256 257.966 135.15 257.392 133.821C256.818 132.491 252.699 125.369 255.89 124.421Z" fill="#E58D6D"></path>
<path d="M255.343 115.778C255.311 115.727 254.014 113.685 251.586 113.277C249.625 112.947 247.786 114.329 247.479 116.289C247.173 118.25 247.485 120.813 250.716 121.733L255.343 115.778Z" fill="#BF343A"></path>
<path d="M254.741 124.562L251.085 126.722L250.161 124.16C250.161 124.16 250.585 123.227 250.709 121.735C250.767 121.018 250.748 120.296 250.65 119.583L253.828 120.957C253.787 121.191 253.761 121.428 253.75 121.665C253.714 122.216 253.767 122.768 253.908 123.301C254.033 123.804 254.327 124.249 254.741 124.562Z" fill="#F5B997"></path>
<path d="M253.909 123.301C252.156 123.366 250.709 121.735 250.709 121.735L253.751 121.665C253.715 122.215 253.768 122.768 253.909 123.301Z" fill="#E58D6D"></path>
<path d="M254.694 122.275C254.694 122.275 251.262 123.413 249.88 120.726C248.389 117.826 249.676 115.564 250.852 115.342C253.199 114.9 254.629 115.708 255.106 116.633C255.583 117.557 256.59 121.664 254.694 122.275Z" fill="#F5B997"></path>
<path d="M246.002 152.282C246.994 153.227 254.323 155.176 258.453 153.774C259.189 153.523 258.008 130.799 257.302 126.41C257.208 125.824 256.927 125.284 256.501 124.869C256.075 124.454 255.525 124.187 254.935 124.106C254.73 124.079 254.507 124.053 254.268 124.028C254.319 124.569 254.134 125.075 253.189 125.26C251.931 125.504 250.737 124.715 250.124 124.163C249.143 124.366 248.567 124.442 247.785 124.772C247.368 124.947 247.02 125.252 246.795 125.643C246.57 126.034 246.48 126.487 246.54 126.933L246.777 128.665L247.53 134.186C247.625 134.879 247.62 135.582 247.514 136.274C247.193 138.372 246.684 143.484 246.343 147.376C246.103 150.105 245.946 152.235 246.002 152.282Z" fill="#CB4147"></path>
<path d="M252.293 115.666C252.293 115.666 252.618 118.871 249.563 120.007C248.348 120.459 247.715 115.564 250.254 114.586C252.793 113.609 255.297 114.769 255.596 116.479C255.895 118.188 255.667 118.543 255.667 118.543C255.667 118.543 254.479 115.293 252.293 115.666Z" fill="#0E356E"></path>
<path d="M250.435 126.147C250.435 126.147 251.837 131.661 251.892 133.855C251.892 133.855 254.966 139.2 255.148 139.579C255.329 139.959 254.037 140.48 254.037 140.48C254.037 140.48 250.179 136.386 249.436 134.664C248.693 132.943 246.054 127.344 247.107 125.678C248.16 124.012 250.435 126.147 250.435 126.147Z" fill="#F5B997"></path>
<path d="M259.382 133.265C259.382 133.265 259.656 137.022 256.97 139.982C256.97 139.982 256.235 139.104 256.329 138.83C256.424 138.557 257.473 134.37 258.242 133.775C259.01 133.18 259.382 133.265 259.382 133.265Z" fill="#E58D6D"></path>
<path d="M255.15 139.594C255.15 139.594 256.867 139.58 256.966 139.983C257.065 140.386 256.523 141.645 255.266 141.203C254.008 140.761 254.04 140.49 254.04 140.49L255.15 139.594Z" fill="#F5B997"></path>
<path d="M256.328 138.832C256.328 138.832 254.947 139.468 255.416 140.145C255.886 140.822 256.824 140.417 256.97 139.984C257.115 139.551 256.328 138.832 256.328 138.832Z" fill="#F5B997"></path>
<path d="M251.452 129.058C250.172 130.113 248.523 130.62 246.868 130.468C246.868 130.468 245.498 125.636 247.694 125.043C249.891 124.45 251.708 127.314 251.452 129.058Z" fill="#CB4147"></path>
<path d="M256.839 125.27L258.433 127.974C258.433 127.974 258.228 129.229 257.038 129.354C255.847 129.478 256.839 125.27 256.839 125.27Z" fill="#CB4147"></path>
<path d="M247.534 157.716C247.861 161.55 248.909 167.031 248.909 167.031L250.817 167.471C250.745 166.421 251.367 162.469 252.154 158.061C251.136 158.166 249.261 158.248 247.534 157.716Z" fill="white"></path>
<path d="M250.866 167.029C250.866 167.029 251.324 167.866 252.199 168.061C252.721 168.164 253.187 168.453 253.51 168.874C253.566 168.95 253.599 169.04 253.607 169.135C253.614 169.229 253.595 169.323 253.552 169.407C253.508 169.491 253.443 169.561 253.361 169.611C253.28 169.66 253.187 169.685 253.092 169.685L248.653 169.659C248.564 169.659 248.476 169.64 248.394 169.603C248.313 169.567 248.24 169.514 248.181 169.447C248.121 169.381 248.076 169.303 248.049 169.219C248.021 169.134 248.012 169.045 248.022 168.957C248.057 168.63 248.094 168.249 248.111 167.956C248.147 167.319 248.847 166.746 248.847 166.746C248.847 166.746 249.46 167.094 249.69 167.135C250.198 167.224 250.866 167.029 250.866 167.029Z" fill="#D6565A"></path>
<defs>
<linearGradient id="paint0_linear_1305_15556" x1="105.815" y1="11.4902" x2="154.034" y2="11.4902" gradientUnits="userSpaceOnUse">
<stop stop-color="#FEFEFF"></stop>
<stop offset="0.444656" stop-color="#FEFEFF"></stop>
<stop offset="1" stop-color="#E5F1FF"></stop>
</linearGradient>
<linearGradient id="paint1_linear_1305_15556" x1="87.8186" y1="17.028" x2="123.245" y2="17.028" gradientUnits="userSpaceOnUse">
<stop stop-color="#FEFEFF"></stop>
<stop offset="0.291364" stop-color="#FEFEFF"></stop>
<stop offset="1" stop-color="#E5F1FF"></stop>
</linearGradient>
<linearGradient id="paint2_linear_1305_15556" x1="253.001" y1="19.4902" x2="301.22" y2="19.4902" gradientUnits="userSpaceOnUse">
<stop stop-color="#FEFEFF"></stop>
<stop offset="0.444656" stop-color="#FEFEFF"></stop>
<stop offset="1" stop-color="#E5F1FF"></stop>
</linearGradient>
<linearGradient id="paint3_linear_1305_15556" x1="327.003" y1="16.5658" x2="357.509" y2="16.5658" gradientUnits="userSpaceOnUse">
<stop stop-color="#FEFEFF"></stop>
<stop offset="0.444656" stop-color="#FEFEFF"></stop>
<stop offset="1" stop-color="#E5F1FF"></stop>
</linearGradient>
</defs>
</svg>