<svg width="1440" height="198" viewBox="0 0 1440 198" fill="none" xmlns="http://www.w3.org/2000/svg">
<path fill-rule="evenodd" clip-rule="evenodd" d="M1178.41 171.675H1197.56V103.818H1178.41V171.675Z" fill="#4E86D9"></path>
<path fill-rule="evenodd" clip-rule="evenodd" d="M1173.84 111.787V171.675H1166.44L1173.84 111.787Z" fill="#96B6E7"></path>
<path fill-rule="evenodd" clip-rule="evenodd" d="M1176.89 111.787V171.675H1169.49L1176.89 111.787Z" fill="#0548AD"></path>
<path fill-rule="evenodd" clip-rule="evenodd" d="M1173.84 171.677H1178.41V103.818H1173.84V171.677Z" fill="#96B6E7"></path>
<path fill-rule="evenodd" clip-rule="evenodd" d="M1138 171.675H1158.67V103.818H1138V171.675Z" fill="#4E86D9"></path>
<path fill-rule="evenodd" clip-rule="evenodd" d="M1133.43 111.787V171.675H1126.04L1133.43 111.787Z" fill="#96B6E7"></path>
<path fill-rule="evenodd" clip-rule="evenodd" d="M1136.48 111.787V171.675H1129.08L1136.48 111.787Z" fill="#0548AD"></path>
<path fill-rule="evenodd" clip-rule="evenodd" d="M1133.43 171.677H1138V103.818H1133.43V171.677Z" fill="#96B6E7"></path>
<path fill-rule="evenodd" clip-rule="evenodd" d="M1095.31 171.675H1119.02V103.818H1095.31V171.675Z" fill="#4E86D9"></path>
<path fill-rule="evenodd" clip-rule="evenodd" d="M1090.73 111.787V171.675H1083.34L1090.73 111.787Z" fill="#96B6E7"></path>
<path fill-rule="evenodd" clip-rule="evenodd" d="M1093.78 111.787V171.675H1086.38L1093.78 111.787Z" fill="#0548AD"></path>
<path fill-rule="evenodd" clip-rule="evenodd" d="M1090.73 171.677H1095.31V103.818H1090.73V171.677Z" fill="#96B6E7"></path>
<path fill-rule="evenodd" clip-rule="evenodd" d="M1199.56 103.918H1084.08C1082.49 103.918 1081.19 102.623 1081.19 101.024V96.25H1218C1218 100.485 1208.61 103.918 1199.56 103.918Z" fill="#96B6E7"></path>
<path fill-rule="evenodd" clip-rule="evenodd" d="M1198.74 92.1367H1090.71V96.2548H1202.99L1198.74 92.1367Z" fill="#4E86D9"></path>
<path fill-rule="evenodd" clip-rule="evenodd" d="M1109.44 93.9668C1110.7 93.9668 1111.72 94.9872 1111.73 96.2473H1107.15C1107.15 94.9872 1108.18 93.9668 1109.44 93.9668Z" fill="#98D4CB"></path>
<path fill-rule="evenodd" clip-rule="evenodd" d="M1106.59 94.9062C1107.33 94.9062 1107.93 95.5063 1107.94 96.2489H1105.23C1105.24 95.5063 1105.84 94.9062 1106.59 94.9062Z" fill="#98D4CB"></path>
<path fill-rule="evenodd" clip-rule="evenodd" d="M1196.51 93.9707C1197.77 93.9707 1198.79 94.9903 1198.8 96.2504H1194.22C1194.23 94.9903 1195.25 93.9707 1196.51 93.9707Z" fill="#98D4CB"></path>
<path fill-rule="evenodd" clip-rule="evenodd" d="M1193.65 94.9082C1194.4 94.9082 1195 95.5083 1195.01 96.25H1192.3C1192.31 95.5083 1192.91 94.9082 1193.65 94.9082Z" fill="#98D4CB"></path>
<path fill-rule="evenodd" clip-rule="evenodd" d="M1100.91 90.7812C1103.93 90.7812 1106.38 93.2283 1106.39 96.2489H1095.44C1095.44 93.2283 1097.89 90.7812 1100.91 90.7812Z" fill="#62B8AB"></path>
<path fill-rule="evenodd" clip-rule="evenodd" d="M1095.22 94.2233L1095.19 94.2248C1094.53 93.1227 1093.33 92.381 1091.95 92.381C1089.87 92.381 1088.19 94.0676 1088.19 96.1473L1088.19 96.2516H1098.55C1097.93 95.0467 1096.67 94.2233 1095.22 94.2233Z" fill="#62B8AB"></path>
<path fill-rule="evenodd" clip-rule="evenodd" d="M1185.27 94.2231L1185.3 94.2247C1185.96 93.1226 1187.16 92.3809 1188.54 92.3809C1190.62 92.3809 1192.3 94.0675 1192.3 96.1471L1192.3 96.2514H1181.94C1182.56 95.0466 1183.82 94.2231 1185.27 94.2231Z" fill="#62B8AB"></path>
<path opacity="0.4" fill-rule="evenodd" clip-rule="evenodd" d="M1178.41 107.598H1197.55V106.324H1178.41V107.598Z" fill="#0548AD"></path>
<path opacity="0.4" fill-rule="evenodd" clip-rule="evenodd" d="M1178.41 110.213H1197.55V108.939H1178.41V110.213Z" fill="#0548AD"></path>
<path opacity="0.4" fill-rule="evenodd" clip-rule="evenodd" d="M1178.41 112.829H1197.55V111.555H1178.41V112.829Z" fill="#0548AD"></path>
<path opacity="0.4" fill-rule="evenodd" clip-rule="evenodd" d="M1178.41 115.443H1197.55V114.17H1178.41V115.443Z" fill="#0548AD"></path>
<path opacity="0.4" fill-rule="evenodd" clip-rule="evenodd" d="M1178.41 118.058H1197.55V116.785H1178.41V118.058Z" fill="#0548AD"></path>
<path opacity="0.4" fill-rule="evenodd" clip-rule="evenodd" d="M1178.41 120.676H1197.55V119.402H1178.41V120.676Z" fill="#0548AD"></path>
<path opacity="0.4" fill-rule="evenodd" clip-rule="evenodd" d="M1178.41 123.292H1197.55V122.018H1178.41V123.292Z" fill="#0548AD"></path>
<path opacity="0.4" fill-rule="evenodd" clip-rule="evenodd" d="M1178.41 125.906H1197.55V124.633H1178.41V125.906Z" fill="#0548AD"></path>
<path opacity="0.4" fill-rule="evenodd" clip-rule="evenodd" d="M1178.41 128.521H1197.55V127.248H1178.41V128.521Z" fill="#0548AD"></path>
<path opacity="0.4" fill-rule="evenodd" clip-rule="evenodd" d="M1178.41 131.137H1197.55V129.863H1178.41V131.137Z" fill="#0548AD"></path>
<path opacity="0.4" fill-rule="evenodd" clip-rule="evenodd" d="M1178.41 133.752H1197.55V132.479H1178.41V133.752Z" fill="#0548AD"></path>
<path opacity="0.4" fill-rule="evenodd" clip-rule="evenodd" d="M1178.41 136.367H1197.55V135.094H1178.41V136.367Z" fill="#0548AD"></path>
<path opacity="0.4" fill-rule="evenodd" clip-rule="evenodd" d="M1178.41 138.984H1197.55V137.711H1178.41V138.984Z" fill="#0548AD"></path>
<path opacity="0.4" fill-rule="evenodd" clip-rule="evenodd" d="M1178.41 141.601H1197.55V140.328H1178.41V141.601Z" fill="#0548AD"></path>
<path opacity="0.4" fill-rule="evenodd" clip-rule="evenodd" d="M1178.41 144.215H1197.55V142.941H1178.41V144.215Z" fill="#0548AD"></path>
<path opacity="0.4" fill-rule="evenodd" clip-rule="evenodd" d="M1178.41 146.83H1197.55V145.557H1178.41V146.83Z" fill="#0548AD"></path>
<path opacity="0.4" fill-rule="evenodd" clip-rule="evenodd" d="M1178.41 149.446H1197.55V148.172H1178.41V149.446Z" fill="#0548AD"></path>
<path opacity="0.4" fill-rule="evenodd" clip-rule="evenodd" d="M1178.41 152.06H1197.55V150.787H1178.41V152.06Z" fill="#6880BD"></path>
<path opacity="0.4" fill-rule="evenodd" clip-rule="evenodd" d="M1178.41 154.68H1197.55V153.406H1178.41V154.68Z" fill="#6880BD"></path>
<path opacity="0.4" fill-rule="evenodd" clip-rule="evenodd" d="M1178.41 157.293H1197.55V156.02H1178.41V157.293Z" fill="#6880BD"></path>
<path opacity="0.4" fill-rule="evenodd" clip-rule="evenodd" d="M1178.41 159.909H1197.55V158.635H1178.41V159.909Z" fill="#6880BD"></path>
<path opacity="0.4" fill-rule="evenodd" clip-rule="evenodd" d="M1196.95 162.523H1180.59C1180.26 162.084 1179.93 161.66 1179.58 161.25H1197.55V161.584C1197.35 161.891 1197.14 162.205 1196.95 162.523Z" fill="#6880BD"></path>
<path opacity="0.4" fill-rule="evenodd" clip-rule="evenodd" d="M1195.5 165.141H1182.29C1182.04 164.705 1181.78 164.281 1181.52 163.867H1196.16C1195.93 164.284 1195.71 164.709 1195.5 165.141Z" fill="#6880BD"></path>
<path opacity="0.4" fill-rule="evenodd" clip-rule="evenodd" d="M1194.34 167.758H1183.6C1183.41 167.326 1183.21 166.901 1183 166.484H1194.87C1194.69 166.903 1194.51 167.327 1194.34 167.758Z" fill="#6880BD"></path>
<path opacity="0.4" fill-rule="evenodd" clip-rule="evenodd" d="M1193.45 170.373H1191.94C1191.08 170.126 1190.17 169.996 1189.25 169.996C1188.32 169.996 1187.42 170.126 1186.56 170.373H1184.62C1184.47 169.943 1184.32 169.518 1184.16 169.1H1193.85C1193.71 169.519 1193.57 169.943 1193.45 170.373Z" fill="#6880BD"></path>
<path opacity="0.4" fill-rule="evenodd" clip-rule="evenodd" d="M1138 107.598H1158.67V106.324H1138V107.598Z" fill="#0548AD"></path>
<path opacity="0.4" fill-rule="evenodd" clip-rule="evenodd" d="M1138 110.213H1158.67V108.939H1138V110.213Z" fill="#0548AD"></path>
<path opacity="0.4" fill-rule="evenodd" clip-rule="evenodd" d="M1138 112.829H1158.67V111.555H1138V112.829Z" fill="#0548AD"></path>
<path opacity="0.4" fill-rule="evenodd" clip-rule="evenodd" d="M1138 115.443H1158.67V114.17H1138V115.443Z" fill="#0548AD"></path>
<path opacity="0.4" fill-rule="evenodd" clip-rule="evenodd" d="M1138 118.059H1158.67V116.785H1138V118.059Z" fill="#0548AD"></path>
<path opacity="0.4" fill-rule="evenodd" clip-rule="evenodd" d="M1138 120.676H1158.67V119.402H1138V120.676Z" fill="#0548AD"></path>
<path opacity="0.4" fill-rule="evenodd" clip-rule="evenodd" d="M1138 123.292H1158.67V122.018H1138V123.292Z" fill="#0548AD"></path>
<path opacity="0.4" fill-rule="evenodd" clip-rule="evenodd" d="M1138 125.906H1158.67V124.633H1138V125.906Z" fill="#0548AD"></path>
<path opacity="0.4" fill-rule="evenodd" clip-rule="evenodd" d="M1138 128.521H1158.67V127.248H1138V128.521Z" fill="#0548AD"></path>
<path opacity="0.4" fill-rule="evenodd" clip-rule="evenodd" d="M1138 131.137H1158.67V129.863H1138V131.137Z" fill="#0548AD"></path>
<path opacity="0.4" fill-rule="evenodd" clip-rule="evenodd" d="M1138 133.752H1158.67V132.479H1138V133.752Z" fill="#0548AD"></path>
<path opacity="0.4" fill-rule="evenodd" clip-rule="evenodd" d="M1138 136.367H1158.67V135.094H1138V136.367Z" fill="#0548AD"></path>
<path opacity="0.4" fill-rule="evenodd" clip-rule="evenodd" d="M1138 138.984H1158.67V137.711H1138V138.984Z" fill="#0548AD"></path>
<path opacity="0.4" fill-rule="evenodd" clip-rule="evenodd" d="M1138 141.601H1158.67V140.328H1138V141.601Z" fill="#0548AD"></path>
<path opacity="0.4" fill-rule="evenodd" clip-rule="evenodd" d="M1138 144.215H1158.67V142.941H1138V144.215Z" fill="#0548AD"></path>
<path opacity="0.4" fill-rule="evenodd" clip-rule="evenodd" d="M1138 146.83H1158.67V145.557H1138V146.83Z" fill="#0548AD"></path>
<path opacity="0.4" fill-rule="evenodd" clip-rule="evenodd" d="M1138 149.446H1158.67V148.172H1138V149.446Z" fill="#0548AD"></path>
<path opacity="0.4" fill-rule="evenodd" clip-rule="evenodd" d="M1138 152.06H1158.67V150.787H1138V152.06Z" fill="#0548AD"></path>
<path opacity="0.4" fill-rule="evenodd" clip-rule="evenodd" d="M1158.67 154.68H1139.79C1139.34 154.244 1138.87 153.818 1138.4 153.406H1158.67V154.68Z" fill="#0548AD"></path>
<path opacity="0.4" fill-rule="evenodd" clip-rule="evenodd" d="M1156.54 157.293H1142.25C1141.88 156.859 1141.5 156.436 1141.11 156.02H1158.67V156.058C1157.94 156.418 1157.23 156.831 1156.54 157.293Z" fill="#6880BD"></path>
<path opacity="0.4" fill-rule="evenodd" clip-rule="evenodd" d="M1153.39 159.909H1144.29C1143.99 159.477 1143.67 159.053 1143.35 158.635H1154.77C1154.3 159.036 1153.84 159.461 1153.39 159.909Z" fill="#6880BD"></path>
<path opacity="0.4" fill-rule="evenodd" clip-rule="evenodd" d="M1151.16 162.523H1145.99C1145.74 162.094 1145.47 161.668 1145.2 161.25H1152.16C1151.82 161.66 1151.48 162.084 1151.16 162.523Z" fill="#6880BD"></path>
<path opacity="0.4" fill-rule="evenodd" clip-rule="evenodd" d="M1149.46 165.141H1147.4C1147.19 164.712 1146.97 164.286 1146.75 163.867H1150.23C1149.97 164.281 1149.71 164.705 1149.46 165.141Z" fill="#6880BD"></path>
<path opacity="0.4" fill-rule="evenodd" clip-rule="evenodd" d="M1148.35 167.289C1148.24 167.019 1148.13 166.752 1148.01 166.484H1148.74C1148.61 166.75 1148.48 167.018 1148.35 167.289Z" fill="#6880BD"></path>
<path opacity="0.4" fill-rule="evenodd" clip-rule="evenodd" d="M1095.31 120.676H1119.02V119.402H1095.31V120.676Z" fill="#1054BB"></path>
<path opacity="0.4" fill-rule="evenodd" clip-rule="evenodd" d="M1095.31 107.598H1119.02V106.324H1095.31V107.598Z" fill="#0548AD"></path>
<path opacity="0.4" fill-rule="evenodd" clip-rule="evenodd" d="M1095.31 110.213H1119.02V108.939H1095.31V110.213Z" fill="#0548AD"></path>
<path opacity="0.4" fill-rule="evenodd" clip-rule="evenodd" d="M1095.31 112.829H1119.02V111.555H1095.31V112.829Z" fill="#0548AD"></path>
<path opacity="0.4" fill-rule="evenodd" clip-rule="evenodd" d="M1095.31 115.443H1119.02V114.17H1095.31V115.443Z" fill="#0548AD"></path>
<path opacity="0.4" fill-rule="evenodd" clip-rule="evenodd" d="M1095.31 118.059H1119.02V116.785H1095.31V118.059Z" fill="#0548AD"></path>
<path opacity="0.4" fill-rule="evenodd" clip-rule="evenodd" d="M1095.31 123.292H1119.02V122.018H1095.31V123.292Z" fill="#0548AD"></path>
<path opacity="0.4" fill-rule="evenodd" clip-rule="evenodd" d="M1095.31 125.906H1119.02V124.633H1095.31V125.906Z" fill="#0548AD"></path>
<path opacity="0.4" fill-rule="evenodd" clip-rule="evenodd" d="M1095.31 128.521H1119.02V127.248H1095.31V128.521Z" fill="#0548AD"></path>
<path opacity="0.4" fill-rule="evenodd" clip-rule="evenodd" d="M1095.31 131.137H1119.02V129.863H1095.31V131.137Z" fill="#0548AD"></path>
<path opacity="0.4" fill-rule="evenodd" clip-rule="evenodd" d="M1095.31 133.752H1119.02V132.479H1095.31V133.752Z" fill="#0548AD"></path>
<path opacity="0.4" fill-rule="evenodd" clip-rule="evenodd" d="M1095.31 136.367H1119.02V135.094H1095.31V136.367Z" fill="#0548AD"></path>
<path opacity="0.4" fill-rule="evenodd" clip-rule="evenodd" d="M1095.31 138.984H1119.02V137.711H1095.31V138.984Z" fill="#0548AD"></path>
<path opacity="0.4" fill-rule="evenodd" clip-rule="evenodd" d="M1095.31 141.601H1119.02V140.328H1095.31V141.601Z" fill="#0548AD"></path>
<path opacity="0.4" fill-rule="evenodd" clip-rule="evenodd" d="M1095.31 144.215H1119.02V142.941H1095.31V144.215Z" fill="#0548AD"></path>
<path opacity="0.4" fill-rule="evenodd" clip-rule="evenodd" d="M1101 146.83H1095.31V145.557H1104.96C1103.61 145.908 1102.29 146.334 1101 146.83Z" fill="#0548AD"></path>
<path fill-rule="evenodd" clip-rule="evenodd" d="M1095.58 149.446H1095.31V148.172H1097.94C1097.14 148.569 1096.35 148.994 1095.58 149.446Z" fill="#1054BB"></path>
<path fill-rule="evenodd" clip-rule="evenodd" d="M177.859 97.6529C170.929 100.958 155.282 101.766 153.678 114.399L153.679 171.87H144.578L144.579 114.682C144.564 114.682 144.549 114.682 144.535 114.682C143.13 101.778 127.31 100.983 120.32 97.6529C128.217 80.9149 167.17 78.5129 177.859 97.6529Z" fill="#F58E8B"></path>
<path fill-rule="evenodd" clip-rule="evenodd" d="M202 120.741C197.61 122.831 187.708 123.339 186.728 131.351L186.729 169.245H180.988L180.987 131.49L180.962 131.491C180.072 123.345 170.081 122.843 165.674 120.741C170.656 110.175 195.246 108.659 202 120.741Z" fill="#F58E8B"></path>
<path fill-rule="evenodd" clip-rule="evenodd" d="M136.317 121.311C131.936 123.402 122.034 123.91 121.054 131.922L121.056 169.815H115.314L115.313 132.061L115.288 132.062C114.398 123.916 104.407 123.414 100 121.311C104.982 110.746 129.572 109.229 136.317 121.311Z" fill="#F58E8B"></path>
<path fill-rule="evenodd" clip-rule="evenodd" d="M188 176.979C188 176.979 215.919 127.201 268.327 127.201C306.859 127.201 327.524 176.979 327.524 176.979H188Z" fill="#62B8AB"></path>
<path fill-rule="evenodd" clip-rule="evenodd" d="M202.891 176.98C202.891 176.98 225.542 139.01 268.067 139.01C299.336 139.01 316.105 176.98 316.105 176.98H202.891Z" fill="#2E8F81"></path>
<path fill-rule="evenodd" clip-rule="evenodd" d="M210.677 170.373C207.081 160.483 201.91 154.735 201.69 154.496L199.598 156.402C199.65 156.457 204.619 162.008 208.013 171.342C208.787 173.476 209.385 175.356 209.859 176.978H212.805C212.286 175.128 211.601 172.928 210.677 170.373Z" fill="#E8EEFC"></path>
<path fill-rule="evenodd" clip-rule="evenodd" d="M202.461 176.884C198.856 166.969 194.538 162.483 194.354 162.297L192.322 164.278C192.366 164.318 196.165 168.315 199.462 176.978H202.496L202.461 176.884Z" fill="#E8EEFC"></path>
<path fill-rule="evenodd" clip-rule="evenodd" d="M218.641 164.055C215.062 154.204 210.235 148.179 210.032 147.928L207.834 149.71C207.878 149.768 212.574 155.645 215.977 165.023C217.586 169.438 219.002 173.802 219.986 176.979H222.95C221.947 173.724 220.408 168.919 218.641 164.055Z" fill="#E8EEFC"></path>
<path fill-rule="evenodd" clip-rule="evenodd" d="M227.75 158.383C224.171 148.532 219.344 142.507 219.142 142.256L216.943 144.038C216.987 144.096 221.665 149.942 225.086 159.351C227.021 164.669 229.368 172.131 230.846 176.978H233.809C232.34 172.159 229.817 164.069 227.75 158.383Z" fill="#E8EEFC"></path>
<path fill-rule="evenodd" clip-rule="evenodd" d="M236.036 152.015C232.457 142.164 227.629 136.139 227.427 135.889L225.229 137.67C225.272 137.728 229.968 143.605 233.38 152.983C235.174 157.927 238.331 168.773 240.661 176.978H243.607C241.259 168.674 237.944 157.259 236.036 152.015Z" fill="#E8EEFC"></path>
<path fill-rule="evenodd" clip-rule="evenodd" d="M245.042 147.774C241.464 137.924 236.636 131.899 236.434 131.648L234.227 133.429C234.279 133.487 238.975 139.366 242.378 148.744C244.321 154.095 248.402 167.66 251.154 176.978H254.108C251.356 167.639 247.1 153.425 245.042 147.774Z" fill="#E8EEFC"></path>
<path fill-rule="evenodd" clip-rule="evenodd" d="M254.655 144.565C251.076 134.715 246.248 128.69 246.046 128.439L243.848 130.221C243.892 130.279 248.587 136.157 251.99 145.534C254.145 151.461 259.262 167.675 262.173 176.981H265.145C262.278 167.824 256.897 150.724 254.655 144.565Z" fill="#E8EEFC"></path>
<path fill-rule="evenodd" clip-rule="evenodd" d="M264.578 142.066C260.99 132.216 256.171 126.191 255.969 125.939L253.762 127.721C253.814 127.78 258.501 133.658 261.913 143.035C264.067 148.965 269.607 166.738 272.764 176.977H275.727C272.615 166.877 266.811 148.213 264.578 142.066Z" fill="#E8EEFC"></path>
<path fill-rule="evenodd" clip-rule="evenodd" d="M274.406 141.118C270.827 131.268 265.999 125.244 265.797 124.992L263.59 126.775C263.643 126.833 268.321 132.677 271.741 142.087C273.86 147.921 279.655 166.1 283.102 176.98H286.066C282.663 166.205 276.595 147.151 274.406 141.118Z" fill="#E8EEFC"></path>
<path fill-rule="evenodd" clip-rule="evenodd" d="M282.904 140.224C279.316 130.374 274.497 124.349 274.295 124.098L272.088 125.88C272.132 125.938 276.827 131.815 280.239 141.193C282.376 147.065 288.479 165.859 292.066 176.979H295.047C291.495 165.98 285.102 146.29 282.904 140.224Z" fill="#E8EEFC"></path>
<path fill-rule="evenodd" clip-rule="evenodd" d="M293.619 143.356C290.04 133.507 285.212 127.481 285.01 127.23L282.803 129.012C282.856 129.07 287.542 134.948 290.954 144.326C293.038 150.053 297.945 166.718 300.935 176.979H303.88C300.926 166.785 295.808 149.389 293.619 143.356Z" fill="#E8EEFC"></path>
<path fill-rule="evenodd" clip-rule="evenodd" d="M303.317 147.774C299.738 137.924 294.91 131.899 294.708 131.648L292.51 133.429C292.554 133.487 297.25 139.366 300.653 148.744C302.772 154.569 307.256 168.657 309.877 176.978H312.849C310.272 168.782 305.524 153.85 303.317 147.774Z" fill="#E8EEFC"></path>
<path fill-rule="evenodd" clip-rule="evenodd" d="M314.43 156.484C310.851 146.634 306.032 140.609 305.821 140.357L303.623 142.139C303.667 142.198 308.354 148.043 311.774 157.453C313.982 163.527 316.725 172.403 318.106 176.978H321.069C319.776 172.698 316.804 163.01 314.43 156.484Z" fill="#E8EEFC"></path>
<path fill-rule="evenodd" clip-rule="evenodd" d="M320.123 176.978C320.123 176.978 340.313 140.99 378.201 140.99C406.054 140.99 421 176.978 421 176.978H320.123Z" fill="#62B8AB"></path>
<path fill-rule="evenodd" clip-rule="evenodd" d="M330.887 176.977C330.887 176.977 347.269 149.525 378.018 149.525C400.62 149.525 412.744 176.977 412.744 176.977H330.887Z" fill="#2E8F81"></path>
<path fill-rule="evenodd" clip-rule="evenodd" d="M336.522 172.204C333.916 165.053 330.181 160.898 330.028 160.725L328.512 162.103C328.544 162.142 332.142 166.156 334.594 172.904C335.15 174.447 335.586 175.806 335.933 176.979H338.062C337.683 175.642 337.191 174.051 336.522 172.204Z" fill="#E8EEFC"></path>
<path fill-rule="evenodd" clip-rule="evenodd" d="M330.592 176.912C327.987 169.743 324.857 166.5 324.728 166.365L323.26 167.797C323.292 167.826 326.035 170.716 328.422 176.978H330.616L330.592 176.912Z" fill="#E8EEFC"></path>
<path fill-rule="evenodd" clip-rule="evenodd" d="M342.271 167.634C339.682 160.512 336.197 156.156 336.052 155.975L334.455 157.262C334.495 157.304 337.883 161.554 340.352 168.334C341.513 171.526 342.53 174.681 343.247 176.978H345.393C344.667 174.625 343.554 171.151 342.271 167.634Z" fill="#E8EEFC"></path>
<path fill-rule="evenodd" clip-rule="evenodd" d="M348.863 163.534C346.274 156.412 342.789 152.056 342.636 151.875L341.047 153.163C341.079 153.205 344.467 157.431 346.935 164.234C348.339 168.079 350.025 173.474 351.098 176.978H353.243C352.178 173.494 350.355 167.645 348.863 163.534Z" fill="#E8EEFC"></path>
<path fill-rule="evenodd" clip-rule="evenodd" d="M354.859 158.93C352.27 151.809 348.785 147.453 348.64 147.271L347.043 148.559C347.075 148.601 350.471 152.851 352.939 159.631C354.238 163.205 356.521 171.047 358.199 176.979H360.336C358.634 170.974 356.239 162.722 354.859 158.93Z" fill="#E8EEFC"></path>
<path fill-rule="evenodd" clip-rule="evenodd" d="M361.367 155.867C358.778 148.745 355.293 144.389 355.14 144.207L353.551 145.496C353.583 145.538 356.979 149.787 359.439 156.567C360.851 160.436 363.795 170.243 365.787 176.98H367.925C365.933 170.229 362.851 159.951 361.367 155.867Z" fill="#E8EEFC"></path>
<path fill-rule="evenodd" clip-rule="evenodd" d="M368.316 153.546C365.735 146.424 362.242 142.068 362.097 141.887L360.5 143.174C360.54 143.216 363.928 147.466 366.397 154.246C367.953 158.531 371.656 170.253 373.761 176.981H375.907C373.834 170.361 369.938 157.999 368.316 153.546Z" fill="#E8EEFC"></path>
<path fill-rule="evenodd" clip-rule="evenodd" d="M375.49 151.739C372.901 144.618 369.416 140.262 369.263 140.08L367.674 141.368C367.706 141.41 371.102 145.659 373.562 152.439C375.127 156.726 379.128 169.576 381.411 176.979H383.556C381.306 169.677 377.103 156.182 375.49 151.739Z" fill="#E8EEFC"></path>
<path fill-rule="evenodd" clip-rule="evenodd" d="M382.588 151.05C380.007 143.928 376.514 139.573 376.369 139.391L374.771 140.68C374.812 140.722 378.192 144.947 380.668 151.75C382.201 155.967 386.387 169.111 388.879 176.977H391.025C388.565 169.187 384.177 155.411 382.588 151.05Z" fill="#E8EEFC"></path>
<path fill-rule="evenodd" clip-rule="evenodd" d="M388.733 150.407C386.143 143.286 382.651 138.93 382.505 138.748L380.908 140.036C380.949 140.078 384.336 144.327 386.805 151.107C388.345 155.352 392.758 168.939 395.355 176.98H397.509C394.944 169.027 390.322 154.792 388.733 150.407Z" fill="#E8EEFC"></path>
<path fill-rule="evenodd" clip-rule="evenodd" d="M396.478 152.671C393.897 145.549 390.404 141.193 390.259 141.012L388.662 142.299C388.702 142.341 392.09 146.591 394.559 153.371C396.067 157.513 399.616 169.56 401.77 176.978H403.907C401.77 169.609 398.067 157.032 396.478 152.671Z" fill="#E8EEFC"></path>
<path fill-rule="evenodd" clip-rule="evenodd" d="M403.496 155.867C400.907 148.745 397.422 144.389 397.269 144.207L395.68 145.496C395.712 145.538 399.108 149.787 401.576 156.567C403.101 160.779 406.343 170.964 408.239 176.98H410.385C408.521 171.055 405.093 160.259 403.496 155.867Z" fill="#E8EEFC"></path>
<path fill-rule="evenodd" clip-rule="evenodd" d="M411.541 162.163C408.952 155.042 405.459 150.686 405.314 150.504L403.725 151.793C403.757 151.835 407.137 156.061 409.613 162.863C411.21 167.255 413.195 173.672 414.195 176.98H416.332C415.397 173.886 413.251 166.881 411.541 162.163Z" fill="#E8EEFC"></path>
<path d="M978.856 149.033V106.118H971.221V87.827H966.645V75.5511H948.77V87.827H944.194V106.118H936.57V129.363L933.059 129.639L931.994 60.7627H908.455V97.4067L900.175 97.6825V40.4083H897.343V28.3264H872.501V40.4083V116.924H828.482V87.0202L802.202 87.7963V78.4202H785.573V64.5H765.965V34.001H760.302V25.501H747.875V89.2875H734.305V99.6229H728.856V87.7555L664.379 86.9895V134.153L661.978 134.194H658.931V93.485H654.57V81.7197H648.26V52.9338H639.107V81.7197H632.787V93.485H628.426V117.547H623.204V40.3777H620.372V28.2856H595.53V40.3777H592.698V97.6416L584.418 97.3659V60.7321H560.89L559.837 129.608L556.325 129.332V106.078H548.691V87.7963H544.126V75.5102H526.262V87.7963H521.686V106.078H514.062V148.992L507.526 148.727V106.159H485.675V152.71H472.331V132.509H456.201V177.874H455V180.111L635.585 180.417L967.597 181L979.275 180.969V149.758L978.856 149.033Z" fill="#D9EBF9"></path>
<path d="M1066.12 151.489C1190.39 149.089 1367.5 178.373 1393.68 183.179C1412.49 186.635 1426.69 192.064 1426.69 192.064L1440 197H1427.5H1417.5H63H0C0 197 0 195.519 6.00159 189.596C12.0032 183.673 43.3201 151.779 91.8329 153.071C239.723 157.009 389.701 189.908 534.247 160.656C580.009 151.396 624.068 136.038 670 127.479C712.961 119.476 757.463 117.537 800.736 123.414C844.725 129.385 886.9 143.285 930.919 149.076C975.521 154.939 1020.97 152.359 1066.12 151.489Z" fill="#C6E7E3"></path>
<path fill-rule="evenodd" clip-rule="evenodd" d="M491.272 24.1486C489.297 23.1552 487.152 22.5723 484.955 22.4405C482.763 22.3087 480.561 22.6281 478.491 23.3833C476.422 24.1385 474.51 25.3042 472.882 26.8248C471.254 28.3454 469.935 30.1802 469 32.2329L556.7 31.7413C555.362 29.4402 553.597 27.433 551.504 25.8364C549.411 24.2398 547.033 23.0842 544.509 22.4304C541.984 21.7816 539.355 21.6498 536.783 22.0452C534.206 22.4405 531.733 23.3529 529.498 24.7366C528.283 20.5297 525.796 16.8347 522.399 14.1839C519.001 11.533 514.872 10.0682 510.61 10.0023C506.349 9.93643 502.177 11.2745 498.703 13.8189C495.229 16.3633 492.638 19.9823 491.3 24.1486" fill="white"></path>
<path fill-rule="evenodd" clip-rule="evenodd" d="M158.216 17.1787C155.896 15.9683 153.37 15.2651 150.78 15.1037C148.201 14.9424 145.61 15.3343 143.171 16.245C140.732 17.1556 138.487 18.585 136.565 20.4294C134.644 22.2738 133.101 24.5101 132 27L235.269 26.4006C233.693 23.5994 231.61 21.1671 229.138 19.219C226.667 17.2709 223.871 15.8645 220.892 15.0807C217.913 14.2853 214.816 14.1354 211.783 14.6196C208.75 15.1037 205.825 16.2104 203.202 17.8934C201.767 12.7867 198.842 8.29105 194.838 5.07492C190.833 1.85878 185.976 0.0835572 180.958 0.00286558C175.939 -0.0778261 171.028 1.54754 166.937 4.63688C162.847 7.72622 159.792 12.1297 158.216 17.1902V17.1787Z" fill="white"></path>
<path fill-rule="evenodd" clip-rule="evenodd" d="M331.82 28.5586C331.948 28.5591 332.082 28.5638 332.201 28.5766C332.578 28.6175 332.699 28.8343 332.699 28.8343C332.699 28.8343 332.164 29.0767 331.805 29.2515C331.78 29.2753 331.761 29.2868 331.761 29.2868L331.76 29.2902L331.752 29.3162C331.716 29.4302 331.574 29.8624 331.336 30.3718C331.95 30.5392 332.699 30.6128 333.555 30.4488C335.147 30.144 338.139 34.6621 340.092 37.9662C341.197 39.8345 341.969 41.3145 341.969 41.3145C341.969 41.3145 341.961 41.3207 341.944 41.3303L341.924 41.3409C341.691 41.458 340.555 41.8233 338.318 39.4129C337.304 38.3197 336.53 37.3879 335.892 36.6653C334.937 35.5842 334.287 34.9726 333.592 34.9896C332.43 35.0171 329.245 33.9006 328.251 33.0022L328.309 33.0522C327.431 33.4421 326.611 33.7673 326.48 33.9988C326.229 34.4419 325.569 36.0331 325.569 36.0331L325.517 36.0331C325.181 36.0286 323.338 35.9295 322.656 34.3211C322.656 34.3211 324.91 32.871 325.239 32.2064C325.309 32.0652 325.463 31.8404 325.681 31.5691C324.742 30.8899 323.179 29.2696 322.665 28.4633C322.248 27.8099 321.334 27.6173 319.824 27.4134C318.946 27.295 317.868 27.1723 316.568 26.9533C313.184 26.3824 313.009 25.0095 313 24.8944L313 24.8867C313 24.8867 314.622 24.6775 316.728 24.5351C317.67 24.4715 318.708 24.4212 319.742 24.4089L320.051 24.4063L320.36 24.4062C323.083 24.4166 325.629 24.7285 326.107 25.8009C326.844 27.4551 328.17 28.3945 328.962 28.8333C329.247 28.6976 329.534 28.59 329.819 28.5206C329.819 28.5206 330.161 28.299 330.393 28.178C330.603 28.0691 331.408 28.2223 331.743 28.5589L331.82 28.5586Z" fill="#6880BD"></path>
<path fill-rule="evenodd" clip-rule="evenodd" d="M1170.06 29.5933C1167.04 28 1163.76 27.0698 1160.4 26.857C1157.04 26.6443 1153.68 27.1533 1150.51 28.3543C1147.34 29.5553 1144.42 31.4241 1141.93 33.8515C1139.44 36.2789 1137.42 39.2161 1136 42.4913L1270.11 41.7234C1268.07 38.0442 1265.37 34.8354 1262.16 32.2808C1258.96 29.7261 1255.32 27.876 1251.46 26.8363C1247.59 25.7966 1243.57 25.5879 1239.62 26.222C1235.68 26.8562 1231.89 28.3208 1228.48 30.5318C1226.62 23.8144 1222.81 17.9102 1217.62 13.6785C1212.42 9.44677 1206.11 7.10839 1199.59 7.00368C1193.07 6.89897 1186.69 9.0334 1181.38 13.0963C1176.07 17.1592 1172.1 22.9386 1170.06 29.5933Z" fill="white"></path>
<path fill-rule="evenodd" clip-rule="evenodd" d="M1026.25 41.0644C1026.43 41.3448 1027.39 42.0493 1028.58 42.9225C1029.04 43.2673 1029.55 43.6384 1030.05 44.02L1030.28 44.1969C1031.89 45.4393 1033.44 46.7669 1033.72 47.6491C1033.79 47.8509 1033.87 48.0552 1033.95 48.2591C1034.12 48.1284 1034.3 47.9918 1034.47 47.8556L1034.62 47.7443C1035.03 47.4298 1035.43 47.1266 1035.72 46.9114C1036.17 46.5704 1036.92 45.2836 1037.56 44.0808C1038.13 42.9892 1038.61 41.9663 1038.7 41.7814L1038.71 41.7593C1038.71 41.7543 1038.72 41.7517 1038.72 41.7517C1038.72 41.7517 1038.72 41.759 1038.73 41.773L1038.75 41.8347C1038.97 42.3111 1040.05 44.7278 1040.08 46.1939C1040.08 46.4918 1040.04 46.7505 1039.95 46.9456C1039.31 48.2099 1037.45 48.7566 1037.01 49.9525C1036.87 50.3427 1036.75 50.6856 1036.67 50.9706C1037.14 50.9507 1037.51 50.9594 1037.71 51.0108C1039.01 51.3523 1038.95 51.953 1038.96 51.9003C1038.96 51.9003 1039.28 52.2766 1039.58 52.4422C1039.88 52.608 1040.08 53.2158 1040.08 53.2158C1039.86 53.1469 1039.29 52.7707 1038.87 52.7562C1038.44 53.124 1037.14 53.3964 1034.65 53.6889C1031.14 54.1028 1028.87 52.9762 1028.48 52.7924C1028.1 52.6085 1027.41 53.2062 1026.64 53.0913C1025.88 52.9762 1025.97 51.7119 1026.06 51.2751C1026.15 50.8384 1027.45 51.482 1028.85 51.6257C1029.09 51.6507 1029.48 51.6397 1029.97 51.606C1029.7 50.767 1029.47 49.283 1028.66 48.1595C1028.53 47.9713 1028.39 47.7168 1028.24 47.4153V47.4146C1027.92 46.7665 1027.59 45.9026 1027.28 45.0194L1027.21 44.8229C1026.5 42.7251 1025.97 40.6003 1026.25 41.0644Z" fill="#6880BD"></path>
<path d="M706.221 38.6081V192.01C706.221 193.405 705.157 194.547 703.857 194.547H701.492C700.843 194.547 700.255 194.263 699.825 193.805C699.395 193.346 699.127 192.708 699.127 192.01L699.252 38.6081C699.252 37.6973 699.58 36.894 700.257 36.45C700.616 36.2104 701.041 36.0712 701.492 36.0712H703.857C705.157 36.0712 706.221 37.2111 706.221 38.6081Z" fill="#7FA6A1"></path>
<path d="M701.058 38.0925V191.495C701.058 192.404 700.605 193.209 699.93 193.653C699.5 193.193 699.232 192.555 699.232 191.857V38.4554C699.232 37.8045 699.279 37.3269 699.635 36.9427C699.777 36.7892 700.226 36.5219 700.226 36.5219C700.654 36.98 701.06 37.3931 701.06 38.0925H701.058Z" fill="#FAFFF1"></path>
<path d="M673.973 87.8753L660.882 96.6981L672.753 107.103L702.132 105.251V93.3861L673.973 87.8753Z" fill="#7FA6A1"></path>
<path d="M700.162 95.0094C700.027 95.3706 700.07 95.8745 700.257 96.1352C700.445 96.3942 700.705 96.3114 700.839 95.9502C700.973 95.5891 700.931 95.0852 700.743 94.8245C700.556 94.5655 700.296 94.6483 700.162 95.0094Z" fill="#EBB352"></path>
<path d="M700.162 102.022C700.027 102.383 700.07 102.887 700.257 103.147C700.445 103.406 700.705 103.324 700.839 102.962C700.973 102.601 700.931 102.097 700.743 101.837C700.556 101.578 700.296 101.66 700.162 102.022Z" fill="#EBB352"></path>
<path d="M749.641 63.9059L765.387 72.7111L750.427 83.1565L703.353 81.5216V66.8304L749.641 63.9059Z" fill="#7FA6A1"></path>
<path d="M749.65 63.9059H752.623L768.369 72.7111H765.396L749.65 63.9059Z" fill="#FAFFF1"></path>
<path d="M750.432 83.1579H752.958L768.365 72.7125H765.392L750.432 83.1579Z" fill="#566B70"></path>
<path d="M706.438 69.0319C706.611 69.4953 706.557 70.1418 706.316 70.4748C706.076 70.8078 705.741 70.7021 705.57 70.2387C705.396 69.7754 705.451 69.1288 705.692 68.7959C705.932 68.4629 706.267 68.5686 706.438 69.0319Z" fill="#EBB352"></path>
<path d="M706.438 78.0398C706.611 78.5031 706.557 79.1497 706.316 79.4827C706.076 79.8156 705.741 79.7099 705.57 79.2466C705.396 78.7833 705.451 78.1367 705.692 77.8037C705.932 77.4708 706.267 77.5765 706.438 78.0398Z" fill="#EBB352"></path>
<path d="M657.066 38.4317L643.205 47.2369L656.281 57.6823L703.355 56.0474V41.3562L657.066 38.4317Z" fill="#7FA6A1"></path>
<path d="M657.063 38.4317H654.092L640.23 47.2369H643.201L657.063 38.4317Z" fill="#FAFFF1"></path>
<path d="M656.277 57.6838H654.693L640.23 47.2383H643.201L656.277 57.6838Z" fill="#566B70"></path>
<path d="M700.279 43.5577C700.106 44.0211 700.161 44.6677 700.401 45.0006C700.642 45.3336 700.976 45.2279 701.148 44.7645C701.319 44.3012 701.266 43.6546 701.026 43.3217C700.785 42.9887 700.451 43.0944 700.279 43.5577Z" fill="#EBB352"></path>
<path d="M700.279 52.5635C700.106 53.0269 700.161 53.6734 700.401 54.0064C700.642 54.3394 700.976 54.2337 701.148 53.7703C701.319 53.307 701.266 52.6604 701.026 52.3275C700.785 51.9945 700.451 52.1002 700.279 52.5635Z" fill="#EBB352"></path>
<path d="M673.975 87.8753H672.28L658.377 96.7757H660.884L673.975 87.8753Z" fill="#FAFFF1"></path>
<path d="M672.756 107.104H670.472L658.377 96.7762H660.884L672.756 107.104Z" fill="#566B70"></path>
<path d="M711.595 178.57V196.071H693.962V178.501C693.962 175.24 696.438 172.561 699.611 172.233C699.826 172.212 700.045 172.2 700.265 172.2H705.222C708.741 172.2 711.593 175.052 711.593 178.57H711.595Z" fill="#45A698"></path>
<path d="M705.322 178.537V196.038H693.962V178.468C693.962 175.207 696.438 172.527 699.611 172.2C702.82 172.531 705.322 175.242 705.322 178.537Z" fill="#2E8F81"></path>
<path fill-rule="evenodd" clip-rule="evenodd" d="M1322.33 156C1345.06 156 1363.46 174.28 1363.5 197H1281.15H1241C1241.04 187.523 1248.73 179.977 1258.22 179.977C1264.83 179.977 1270.57 183.702 1273.46 189.168C1275.18 187.828 1277.34 187.031 1279.69 187.031C1280.6 187.031 1281.48 187.15 1282.32 187.375C1286.73 169.364 1302.97 156 1322.33 156Z" fill="#45A698"></path>
<path d="M1287.5 181.121C1292.63 181.121 1297.03 184.88 1298.96 190.518C1300.87 188.441 1303.73 187.238 1306.91 187.238C1312.63 187.238 1317.31 191.129 1317.31 197.002H1296.5C1296.5 196.998 1296.5 196.995 1296.5 196.991L1275 196.926C1275 187.871 1280.59 181.121 1287.5 181.121Z" fill="#98D4CB"></path>
<path fill-rule="evenodd" clip-rule="evenodd" d="M1366.96 185C1361.86 185 1357.5 190.323 1357.5 197H1376.23C1376.23 190.323 1372.06 185 1366.96 185Z" fill="#98D4CB"></path>
<path fill-rule="evenodd" clip-rule="evenodd" d="M1358.15 188C1354.2 188 1351 191.827 1351 197H1365.5C1365.5 191.827 1362.1 188 1358.15 188Z" fill="#98D4CB"></path>
<path fill-rule="evenodd" clip-rule="evenodd" d="M1263.1 189.912C1262.1 189.912 1261.15 190.114 1260.28 190.48C1259.07 188.122 1256.64 186.504 1253.81 186.504C1250.54 186.504 1247.77 188.661 1246.85 191.628C1245.58 190.559 1243.95 189.912 1242.17 189.912C1241.57 189.912 1240.99 189.992 1240.43 190.13C1239.37 187.425 1236.74 185.508 1233.66 185.508C1230.47 185.508 1227.76 187.573 1226.78 190.441C1225.94 190.103 1225.03 189.912 1224.07 189.912C1221.82 189.912 1219.81 190.929 1218.48 192.526C1217.49 192.01 1216.36 191.714 1215.15 191.714C1211.88 191.714 1208.91 194.017 1208 197H1270.34C1270.17 193.13 1267.01 189.912 1263.1 189.912Z" fill="#98D4CB"></path>
<path d="M152.053 196.339L75.2303 196.084C75.2303 196.084 55.8515 181.754 48 156C76.3093 164.709 86.2549 187.684 96.1606 183.973C106.692 180.02 151.113 180.016 152.053 196.339Z" fill="#98D4CB"></path>
<path d="M89.4091 184.883C88.9991 185.604 88.5776 186.302 88.1446 186.976C86.099 190.174 83.8475 192.814 81.3812 194.707C80.5687 195.337 79.709 195.891 78.8114 196.363C78.802 196.368 78.7921 196.373 78.782 196.377C78.7625 196.388 78.7424 196.399 78.7219 196.409L78.6285 196.457C78.2024 196.675 77.7711 196.871 77.3347 197.043L53.4902 197.183C54.3852 192.68 56.7147 189.537 59.9915 187.416C60.6141 187.014 61.2579 186.653 61.9195 186.335C62.1254 186.234 62.3325 186.136 62.546 186.043C62.9078 185.882 63.2748 185.73 63.6519 185.587C63.9703 185.465 64.2912 185.351 64.6211 185.243C65.3511 185.001 66.108 184.787 66.884 184.601C70.0126 183.853 73.4851 183.547 77.1007 183.547C79.2474 183.547 81.4477 183.655 83.648 183.842C85.5916 184.011 87.5187 184.359 89.4091 184.883Z" fill="#96C8C1"></path>
<path d="M64.4774 189C64.4774 189 60.4905 173.2 57.4446 174.032C54.3987 174.864 64.4774 189 64.4774 189Z" fill="#96C8C1"></path>
<path d="M65.7443 190.822C65.7443 190.822 55.2788 178.301 52.8973 180.664C50.5159 183.027 65.7443 190.822 65.7443 190.822Z" fill="#96C8C1"></path>
<path d="M66.9563 193.094C66.9563 193.094 67.5956 176.944 64.5545 176.732C61.5133 176.521 66.9563 193.094 66.9563 193.094Z" fill="#96C8C1"></path>
<path d="M71.1914 196.999C71.1914 196.999 182.299 184.927 378.654 188.747C579.877 192.585 854.727 189.421 854.727 189.421L855.191 192.974L852.868 194.158L846.362 195.816L839.855 197H71.1914V196.999Z" fill="#E5F1FF"></path>
<path d="M428.191 198H1218.19C1195.77 186.52 1106.09 179.913 998.794 182.647C985.778 182.979 973.866 183.592 962.95 184.406L962.96 184.402C962.799 184.415 962.645 184.425 962.488 184.438C962.058 184.471 961.631 184.504 961.204 184.537C896.151 189.71 771.621 183.234 766.463 182.517C707.389 174.253 705.023 179.257 592.6 182.398C484.307 185.423 428.898 192.932 428.191 198Z" fill="#62B8AB"></path>
<path fill-rule="evenodd" clip-rule="evenodd" d="M942.478 167C935.906 167 930.178 170.83 927.045 176.531L926.913 176.523C917.553 176.523 909.872 184.272 909.027 194.169H958.98C959.916 191.806 960.445 189.205 960.445 186.469C960.445 175.716 952.397 167 942.478 167Z" fill="#45A698"></path>
<path fill-rule="evenodd" clip-rule="evenodd" d="M962.57 176.703C967.579 176.703 971.852 180.153 973.549 185.003C974.459 184.615 975.44 184.393 976.473 184.393C979.427 184.393 981.993 186.146 983.404 188.752C984.712 187.737 986.307 187.137 988.025 187.137C991.909 187.137 995.15 190.154 995.906 194.169H951.56C951.079 192.755 950.803 191.23 950.803 189.63C950.803 182.491 956.068 176.703 962.57 176.703Z" fill="#45A698"></path>
<path fill-rule="evenodd" clip-rule="evenodd" d="M947.048 184.662C945.786 184.662 944.585 184.939 943.486 185.439C941.967 182.217 938.888 180.006 935.315 180.006C931.188 180.006 927.698 182.953 926.538 187.008C924.937 185.547 922.873 184.662 920.625 184.662C919.866 184.662 919.137 184.772 918.428 184.96C917.094 181.264 913.778 178.645 909.888 178.645C905.853 178.645 902.435 181.467 901.203 185.386C900.135 184.924 898.986 184.662 897.774 184.662C894.941 184.662 892.406 186.053 890.722 188.235C889.47 187.53 888.043 187.124 886.524 187.124C882.387 187.124 878.886 190.093 877.736 194.169H956.216C956 188.882 951.986 184.662 947.048 184.662Z" fill="#98D4CB"></path>
<path fill-rule="evenodd" clip-rule="evenodd" d="M563.917 176.293C568.742 176.293 573.032 178.12 575.802 180.956C577.469 180.444 579.277 180.151 581.168 180.151C589.53 180.151 596.303 185.613 596.303 192.35C596.303 192.872 596.246 193.383 596.169 193.888H550.358C549.36 192.259 548.783 190.432 548.783 188.492C548.783 181.755 555.555 176.293 563.917 176.293Z" fill="#45A698"></path>
<path fill-rule="evenodd" clip-rule="evenodd" d="M525.472 183.445C530.588 183.445 534.738 187.907 534.738 193.413C534.738 193.576 534.722 193.735 534.712 193.896H516.227C516.216 193.735 516.206 193.576 516.206 193.413C516.206 187.907 520.351 183.445 525.472 183.445Z" fill="#45A698"></path>
<path fill-rule="evenodd" clip-rule="evenodd" d="M537.778 180.586C544.241 180.586 549.484 186.223 549.484 193.178C549.484 193.384 549.464 193.585 549.451 193.789H526.099C526.085 193.585 526.072 193.384 526.072 193.178C526.072 186.223 531.309 180.586 537.778 180.586Z" fill="#45A698"></path>
<path fill-rule="evenodd" clip-rule="evenodd" d="M528.624 186.513C530.799 186.513 532.797 187.337 534.364 188.709C534.79 182.567 539.546 177.723 545.367 177.723C550.437 177.723 554.698 181.405 555.995 186.416C556.772 186.135 557.605 185.977 558.476 185.977C560.469 185.977 562.28 186.782 563.665 188.097C565.1 186.203 567.287 184.993 569.737 184.993C574.067 184.993 577.582 188.769 577.582 193.427C577.582 193.669 577.563 193.909 577.544 194.147H519.751C520.666 189.779 524.288 186.513 528.624 186.513Z" fill="#98D4CB"></path>
<path d="M775.604 162.583H664.15L659 136.387H770.251L775.604 162.583Z" fill="#E0A338"></path>
<path d="M777.508 162.583H666.054L660.904 136.387H772.155L777.508 162.583Z" fill="#FCE0B0"></path>
<path d="M664.148 162.584H697.045V165.792H666.587C665.24 165.792 664.148 164.697 664.148 163.353V162.587V162.584Z" fill="#E0A338"></path>
<path d="M798.022 162.584H696.799V165.792H798.022V162.584Z" fill="#F6C063"></path>
<path d="M670.803 165.793L668.895 173.297V173.306L663.245 195.532C663.169 195.823 662.91 196.026 662.613 196.026C662.04 196.026 661.603 195.501 661.717 194.941L666.757 169.013L667.383 165.793H670.8H670.803Z" fill="#EBB352"></path>
<path d="M668.897 173.297C669.081 169.459 666.762 169.013 666.762 169.013L667.388 165.793H670.805L668.897 173.297Z" fill="#E0A338"></path>
<path d="M694.978 165.793L693.071 173.297V173.306L687.421 195.532C687.345 195.823 687.086 196.026 686.788 196.026C686.216 196.026 685.779 195.501 685.893 194.941L690.932 169.013L691.559 165.793H694.975H694.978Z" fill="#EBB352"></path>
<path d="M693.073 173.297C693.256 169.459 690.938 169.013 690.938 169.013L691.564 165.793H694.98L693.073 173.297Z" fill="#E0A338"></path>
<path d="M788.785 165.793L790.693 173.297V173.306L796.343 195.532C796.418 195.823 796.678 196.026 796.975 196.026C797.548 196.026 797.984 195.501 797.87 194.941L792.831 169.013L792.205 165.793H788.788H788.785Z" fill="#EBB352"></path>
<path d="M790.695 173.297C790.511 169.459 792.83 169.013 792.83 169.013L792.204 165.793H788.787L790.695 173.297Z" fill="#E0A338"></path>
<path d="M764.611 165.793L766.519 173.297V173.306L772.169 195.532C772.245 195.823 772.504 196.026 772.801 196.026C773.374 196.026 773.811 195.501 773.697 194.941L768.657 169.013L768.031 165.793H764.614H764.611Z" fill="#EBB352"></path>
<path d="M766.519 173.297C766.335 169.459 768.654 169.013 768.654 169.013L768.028 165.793H764.611L766.519 173.297Z" fill="#E0A338"></path>
<path d="M733.545 187.896C733.226 188.26 733.186 188.665 733.343 189.1C733.343 189.1 733.343 189.104 733.347 189.106C733.638 189.908 734.6 190.806 735.719 191.701C735.862 191.816 735.989 191.921 736.1 192.018C736.129 192.043 736.157 192.069 736.185 192.095C736.207 192.115 736.229 192.134 736.25 192.154C737.294 193.113 736.901 193.332 738.773 195.277C740.909 197.493 742.379 197.535 742.797 197.331C743.152 197.159 742.432 195.985 741.635 194.663C741.597 194.599 741.557 194.534 741.52 194.471C741.413 194.295 741.308 194.117 741.202 193.941C740.268 192.352 740.508 191.607 740.73 189.24C740.911 187.319 743.735 178.503 743.735 178.503L739.642 177.799C739.642 177.799 738.406 184.818 737.048 185.9C736.322 186.475 735.509 186.483 734.811 186.91C734.761 186.939 734.713 186.969 734.666 187.001C734.269 187.264 733.865 187.532 733.545 187.898V187.896Z" fill="#FFCFB9"></path>
<path d="M733.545 187.897C733.226 188.261 733.186 188.666 733.343 189.101C733.343 189.101 733.343 189.105 733.347 189.107C733.704 189.91 734.642 190.801 735.723 191.695C735.864 191.811 735.989 191.918 736.1 192.019C736.129 192.045 736.157 192.07 736.185 192.096C736.207 192.116 736.229 192.136 736.25 192.155C737.294 193.114 736.901 193.334 738.773 195.279C740.909 197.495 742.379 197.536 742.797 197.333C743.152 197.161 742.432 195.986 741.635 194.664C741.218 194.512 739.287 193.729 737.827 191.865C736.588 190.287 735.747 188.279 734.904 187.044C734.811 187.026 734.755 187.016 734.664 186.998C734.267 187.261 733.863 187.53 733.543 187.895L733.545 187.897Z" fill="#282828"></path>
<path d="M766.557 185.357C766.809 186.616 768.612 186.407 770.623 185.919C772.636 185.428 772.158 186.011 775.022 185.697C777.886 185.383 778.754 184.317 778.842 183.894C778.921 183.517 777.505 183.384 775.988 183.21C775.797 183.189 775.605 183.165 775.413 183.141C773.699 182.926 772.444 181.823 770.887 180.917C769.413 180.059 767.214 176.564 767.214 176.564L763.285 176.873C763.285 176.873 765.346 179.994 766.143 181.35C766.611 182.149 766.587 183.204 766.528 184.019C766.498 184.462 766.468 184.914 766.557 185.359V185.357Z" fill="#FFCFB9"></path>
<path d="M770.617 185.919C772.63 185.429 772.152 186.012 775.016 185.698C777.88 185.383 778.748 184.318 778.836 183.895C778.915 183.517 777.499 183.385 775.982 183.211L775.968 183.241C775.968 183.241 774.251 184.454 771.867 184.51C769.923 184.557 767.867 184 766.524 184.021C766.494 184.464 766.464 184.917 766.554 185.362C766.806 186.621 768.608 186.411 770.619 185.923L770.617 185.919Z" fill="#282828"></path>
<path d="M751.505 160.318L747.83 170.164L743.033 183.021C743.033 183.021 741.732 183.146 740.487 182.788C739.34 182.458 738.023 181.592 738.023 181.592C738.023 181.592 739.36 167.784 741.845 159.86C742.482 157.825 743.196 156.181 743.983 155.254C747.834 150.721 751.505 160.314 751.505 160.314V160.318Z" fill="#003B94"></path>
<path d="M747.789 144.682C745.699 144.01 740.245 144.668 734.329 145.734C732.695 146.028 731.047 145.283 730.186 143.867L715.3 142.703C715.3 142.703 710.384 153.56 713.071 160.48C713.466 161.498 714.332 162.133 715.673 162.154C715.673 162.154 724.669 162.17 727.546 162.17C734.95 162.172 743.216 157.104 744.285 156.89C746.034 156.542 746.734 160.031 748.483 163.694C750.232 167.357 764.928 179.922 764.928 179.922C764.928 179.922 767.187 179.945 768.121 179.595C769.125 179.22 769.491 178.734 769.491 178.734C769.491 178.734 753.215 146.427 747.789 144.68V144.682Z" fill="#0548AD"></path>
<path d="M728.61 100.287C727.506 99.6312 726.427 99.5304 725.766 99.5481C725.306 99.562 724.848 99.5304 724.394 99.4651C718.712 98.6329 715.289 106.858 715.087 109.343C714.718 113.905 712.294 114.601 708.885 117.458C702.047 123.186 704.05 129.844 707.787 132.321C710.03 133.805 713.982 132.321 713.982 132.321C714.038 132.36 724.795 126.333 730.096 123.425C738.043 122.303 731.801 102.181 728.61 100.285V100.287Z" fill="#0E356E"></path>
<path d="M725.651 120.949C725.675 120.965 723.043 121.858 721.284 121.081C719.628 120.352 718.377 117.636 718.401 117.636C719.154 117.602 719.981 116.946 720.618 112.641L720.939 112.755L726.33 114.691C726.33 114.691 725.939 116.414 725.685 118.057C725.471 119.435 725.358 120.755 725.651 120.951V120.949Z" fill="#FFCFB9"></path>
<path d="M726.33 114.687C726.33 114.687 726.114 115.618 725.8 117.356C722.704 116.799 721.376 114.421 720.939 112.752L726.33 114.687Z" fill="#FFB492"></path>
<path d="M727.143 116.399C727.143 116.399 719.767 115.409 720.455 110.841C721.144 106.272 720.656 103.066 725.396 103.505C730.134 103.944 730.784 105.824 730.927 107.405C731.07 108.987 729.081 116.54 727.145 116.399H727.143Z" fill="#FFCFB9"></path>
<path d="M730.65 104.904C730.65 104.904 725.926 108.958 722.716 109.284C719.503 109.61 718.287 108.582 718.287 108.582C718.287 108.582 720.181 107.017 721.321 104.488C721.656 103.743 722.366 103.231 723.184 103.162C725.476 102.966 729.825 102.877 730.65 104.904Z" fill="#0E356E"></path>
<path d="M727.699 104.541C727.699 104.541 729.278 106.063 729.776 107.194C730.256 108.283 730.398 110.89 730.016 111.924C730.016 111.924 732.479 107.154 731.087 104.838C729.609 102.378 727.699 104.541 727.699 104.541Z" fill="#0E356E"></path>
<path d="M731.867 131.782C731.639 146.665 731.802 143.556 730.168 144.967C729.773 145.307 728.668 145.509 727.211 145.606C722.631 145.906 714.584 145.153 714.278 144.309C713.223 141.389 713.969 140.484 713.09 136.016C712.999 135.542 712.886 135.026 712.751 134.466C712.017 131.399 711.303 130.353 713.911 125.425C716.277 120.959 718.732 117.336 718.955 117.466C725.19 121.159 725.694 118.057 725.694 118.057C725.694 118.057 731.98 124.523 731.867 131.784V131.782Z" fill="white"></path>
<path d="M747.83 170.164L743.033 183.021C743.033 183.021 741.732 183.146 740.487 182.788C739.34 182.458 738.023 181.592 738.023 181.592C738.023 181.592 739.36 167.784 741.845 159.859L747.83 170.162V170.164Z" fill="#0548AD"></path>
<path d="M725.691 118.057C725.691 118.057 732.107 119.144 732.861 121.897C733.612 124.651 736.087 141.367 736.087 141.367C736.087 141.367 734.277 143.128 732.772 141.626C731.264 140.123 728.034 125.985 728.034 125.985L725.691 118.059V118.057Z" fill="white"></path>
<path d="M727.206 145.605C722.627 145.905 714.579 145.152 714.274 144.308C713.219 141.388 713.965 140.483 713.086 136.016L715.297 129.818C715.297 129.818 714.93 136.721 716.971 138.536C719.01 140.353 725.33 142.043 726.324 143.561C726.802 144.288 727.117 145.02 727.208 145.605H727.206Z" fill="#C8DCFA"></path>
<path d="M721.963 142.699C721.963 142.699 726.481 141.699 727.209 142.098C727.936 142.497 729.717 143.954 729.941 144.46C730.164 144.966 728.319 144.075 727.718 143.915C727.33 143.81 726.306 144.164 725.798 144.334C723.667 145.041 722.36 144.676 722.36 144.676L721.961 142.699H721.963Z" fill="#FFCFB9"></path>
<path d="M718.945 117.463C718.945 117.463 712.881 117.833 710.778 120.752C707.821 124.86 701.951 142.37 705.311 144.707C709.095 147.338 722.533 145.4 722.533 145.4C722.533 145.4 722.981 143.317 722.358 142.309C721.736 141.301 711.625 139.67 711.159 139.203C710.693 138.739 716.996 130.134 716.996 128.738C716.996 127.343 718.941 117.463 718.941 117.463H718.945Z" fill="white"></path>
<path d="M727.424 143.354C727.424 143.354 728.37 144.571 728.68 144.716C728.989 144.862 729.191 144.824 729.191 144.824L728.555 143.68L727.424 143.352V143.354Z" fill="#FFCFB9"></path>
<path d="M727.215 142.102L729.966 143.434C729.966 143.434 729.849 143.626 729.51 143.61C729.171 143.594 728.316 143.282 728.316 143.282L727.213 142.102H727.215Z" fill="#FFCFB9"></path>
<path d="M750.71 145.238L721.965 145.229V145.861L750.454 145.871L750.71 145.238Z" fill="#BF343A"></path>
<path d="M728.688 145.866L750.455 145.874L757.008 129.647L735.274 129.639L728.688 145.866Z" fill="#BF343A"></path>
<path d="M744.965 137.758C745.13 137.187 744.798 136.725 744.225 136.725C743.652 136.725 743.055 137.187 742.89 137.756C742.725 138.328 743.057 138.79 743.63 138.79C744.203 138.79 744.8 138.328 744.965 137.758Z" fill="white"></path>
<path fill-rule="evenodd" clip-rule="evenodd" d="M468.048 130.557L470.221 130.959C470.221 130.959 476.168 121.796 476.338 119.003C476.503 116.335 481.862 104.659 475.588 97.37C475.306 97.0394 474.998 96.7176 474.665 96.4072C474.654 96.3947 474.641 96.3839 474.629 96.373C474.629 96.373 474.618 96.39 474.598 96.4243C474.47 96.6369 473.972 97.5367 473.388 99.5261C472.474 102.636 471.343 108.41 471.076 118.383C471.076 118.383 469.617 126.92 468.048 130.557Z" fill="#CF8B64"></path>
<path fill-rule="evenodd" clip-rule="evenodd" d="M468.045 130.557C468.045 130.557 466.066 132.758 466.005 133.562C465.925 134.626 466.749 136.378 467.286 136.208C467.824 136.038 467.89 135.176 468.045 134.516C468.2 133.857 468.906 133.149 468.865 133.447C468.824 133.746 468.41 134.917 468.538 135.105C468.666 135.293 468.821 135.259 469.126 134.697C469.492 134.022 470.283 133.081 470.18 132.386C470.069 131.637 470.054 131.477 470.336 130.575C470.619 129.674 471.092 128.592 471.092 128.592L469.413 128.234L468.045 130.557Z" fill="#CF8B64"></path>
<path fill-rule="evenodd" clip-rule="evenodd" d="M517.231 193.443C517.231 193.443 518.783 191.422 520.17 188.981C521.14 187.272 520.673 185.111 520.891 183.541C521.421 179.728 525.619 173.892 525.199 172.824C524.779 171.757 517.968 169.725 517.968 169.725C517.968 169.725 516.402 180.437 515.361 187.364C515.057 189.385 514.799 191.084 514.636 192.1L517.231 193.443Z" fill="#CF8B64"></path>
<path fill-rule="evenodd" clip-rule="evenodd" d="M514.636 192.099L517.231 193.442C517.231 193.442 518.784 191.422 520.17 188.98C519.09 188.899 517.214 188.576 515.362 187.363C515.058 189.384 514.8 191.084 514.636 192.099Z" fill="#CAD2E8"></path>
<path fill-rule="evenodd" clip-rule="evenodd" d="M520.532 172.169C520.532 172.169 523.81 176.792 525.796 183.291C526.263 184.822 527.856 186.728 529.466 188.422C531.028 190.066 532.606 191.509 533.189 192.219L535.832 190.949C535.832 190.949 534.903 188.285 533.529 185.869C533.019 184.969 532.449 184.105 531.84 183.424C530.998 182.482 531.275 170.59 530.437 169.807C529.598 169.023 520.532 172.169 520.532 172.169Z" fill="#CF8B64"></path>
<path fill-rule="evenodd" clip-rule="evenodd" d="M527.973 150.963L527.958 150.971C527.971 150.976 527.973 150.963 527.973 150.963Z" fill="#FFB27D"></path>
<path fill-rule="evenodd" clip-rule="evenodd" d="M521.194 155.048L527.957 150.969C527.92 150.954 527.783 150.749 527.277 149.287C527.062 148.664 526.947 148.123 526.891 147.693C526.886 147.651 526.88 147.609 526.876 147.569C526.807 146.945 526.858 146.586 526.858 146.586L525.376 147.121L522.636 148.114C522.668 148.808 522.57 149.296 522.422 149.632C522.065 150.446 521.398 150.452 521.379 150.452L521.194 155.048Z" fill="#CF8B64"></path>
<path fill-rule="evenodd" clip-rule="evenodd" d="M522.291 148.681C522.291 148.681 528.175 149.327 528.295 145.351C528.416 141.374 529.286 139.555 525.215 139.2C521.144 138.846 520.182 140.312 519.942 141.657C519.193 145.859 520.634 148.504 522.291 148.681Z" fill="#CF8B64"></path>
<path fill-rule="evenodd" clip-rule="evenodd" d="M533.266 135.182C533.348 134.998 533.406 134.879 533.406 134.879C533.345 134.963 533.299 135.067 533.266 135.182Z" fill="#D35C2B"></path>
<path fill-rule="evenodd" clip-rule="evenodd" d="M520.398 150.849C520.398 150.849 514.757 146.515 514.154 145.08C513.552 143.647 510.962 138.396 510.293 137.861C510.293 137.861 508.89 137.681 508.69 138.651C508.489 139.622 510.025 145.381 511.096 147.119C512.167 148.859 517.297 154.754 518.981 155.61L520.398 150.849Z" fill="#CF8B64"></path>
<path fill-rule="evenodd" clip-rule="evenodd" d="M506.688 135.208C506.781 135.71 506.985 136.249 507.227 136.527C507.543 136.9 508.046 137.643 508.362 138.127C508.566 138.425 508.697 138.647 508.697 138.647L510.297 137.867C510.297 137.867 510.334 135.152 509.273 134.575C509.236 134.557 509.218 134.538 509.18 134.538C508.734 134.296 508.306 134.129 507.934 134.018C507.432 133.887 507.041 133.869 506.818 133.998C506.613 134.111 506.576 134.65 506.688 135.208Z" fill="#CF8B64"></path>
<path fill-rule="evenodd" clip-rule="evenodd" d="M524.898 141.141C526.98 140.614 526.184 144.301 526.71 144.048C527.299 143.766 528.31 143.77 528.151 144.481C527.991 145.192 527.761 145.446 527.64 145.889C527.52 146.332 527.641 147.21 528.125 147.034C528.609 146.857 533.112 141.718 529.933 137.715C526.754 133.713 517.274 136.178 520.259 140.364C520.784 141.1 523.416 141.517 524.898 141.141Z" fill="#2C3A64"></path>
<path fill-rule="evenodd" clip-rule="evenodd" d="M519.685 156.324C518.686 152.153 521.194 150.455 521.194 150.455C521.194 150.455 521.258 150.112 520.775 149.982C520.291 149.851 518.508 149.346 518.508 149.346C518.508 149.346 516.964 150.539 516.905 153.1C516.896 153.479 516.918 153.889 516.985 154.33L518.1 155.614C518.1 155.614 518.319 156.097 519.685 156.324Z" fill="white"></path>
<path fill-rule="evenodd" clip-rule="evenodd" d="M522.261 151.248L522.559 152.196L521.608 151.722L522.261 151.248Z" fill="#DCEFF2"></path>
<path fill-rule="evenodd" clip-rule="evenodd" d="M523.539 180.702C527.255 180.198 530.548 180.113 534.025 178.238C534.025 178.238 532.178 169.065 532.064 168.618C531.901 167.977 530.719 163.047 529.627 158.487C528.629 154.316 527.705 150.453 527.705 150.453C527.705 150.453 524.144 152.833 522.538 152.144C520.932 151.453 521.944 150.249 521.944 150.249C521.944 150.249 521.93 149.91 520.776 149.98C520.039 150.717 519.148 152.594 518.102 155.613C518.102 155.613 515.665 169.875 515.072 178.764C515.072 178.764 520.78 181.074 523.539 180.702Z" fill="#1054BB"></path>
<path fill-rule="evenodd" clip-rule="evenodd" d="M510.337 195.284H518.085C518.085 195.284 518.233 194.025 518.055 192.948C518.033 192.817 517.965 192.698 517.863 192.595C517.41 192.748 516.743 192.856 516.002 192.59C515.394 192.372 514.945 192.04 514.632 191.738C514.551 191.816 512.951 193.341 512.211 193.341C511.452 193.341 510.293 193.707 510.337 195.284Z" fill="white"></path>
<path fill-rule="evenodd" clip-rule="evenodd" d="M529.466 188.426C531.028 190.07 532.606 191.513 533.189 192.223L535.832 190.953C535.832 190.953 534.903 188.289 533.529 185.873C533.057 186.608 531.816 188.121 529.466 188.426Z" fill="#CAD2E8"></path>
<path fill-rule="evenodd" clip-rule="evenodd" d="M532.617 191.537C532.617 191.537 532.714 193.218 532.153 193.441C531.592 193.665 530.547 194.215 530.547 195.281H534.428C534.428 195.281 537.105 193.967 537.462 193.408C537.819 192.849 535.679 190.463 535.679 190.463C535.679 190.463 534.364 191.916 532.617 191.537Z" fill="white"></path>
<path fill-rule="evenodd" clip-rule="evenodd" d="M526.197 164.215C526.197 164.215 524.498 163.898 523.833 164.332C523.168 164.767 522.972 165.447 523.45 165.725C524.95 166.597 526.471 165.634 526.471 165.634L526.197 164.215Z" fill="#CF8B64"></path>
<path fill-rule="evenodd" clip-rule="evenodd" d="M527.634 150.986C527.634 150.986 532.868 152.094 534.932 160.227C535.134 161.022 534.925 161.872 534.375 162.481C533.426 163.532 531.334 165.069 526.468 165.636C525.937 165.697 525.865 164.351 525.865 164.351C525.918 164.458 529.171 162.251 530.555 161.064C530.805 160.849 530.795 160.398 530.614 160.123C530.146 159.409 529.361 158.176 529.098 157.543C528.713 156.619 526.171 151.406 527.634 150.986Z" fill="#CF8B64"></path>
<path fill-rule="evenodd" clip-rule="evenodd" d="M527.702 150.449C527.702 150.449 530.78 150.667 533.289 154.012C533.289 154.012 532.44 157.087 528.454 157.909C528.454 157.909 525.997 152.371 527.702 150.449Z" fill="white"></path>
<path fill-rule="evenodd" clip-rule="evenodd" d="M528.455 136.495C528.455 136.495 531.415 135.689 533.405 137.848C535.396 140.009 532.497 143.968 535.28 146.136C538.064 148.304 536.963 149.923 535.833 150.451C533.29 151.638 529.405 150.16 530.195 148.157C531.715 144.305 529.467 141.372 529.467 141.372L528.455 136.495Z" fill="#2C3A64"></path>
<path fill-rule="evenodd" clip-rule="evenodd" d="M488.226 170.421C488.221 170.464 488.215 170.505 488.214 170.541C487.907 173.445 487.272 176.387 486.514 179.122C484.536 186.256 481.688 191.692 481.688 191.692L479.327 191.472C479.327 191.472 480.618 185.984 480.73 178.528C480.807 173.316 480.308 167.142 478.389 161.213C477.265 157.744 476.376 154.44 475.674 151.345C473.386 141.246 473.091 133.379 473.147 129.283C473.174 127.263 473.286 126.158 473.286 126.158L486.56 128.032L487.179 128.119C487.089 134.231 487.049 142.531 487.031 149.022C487.027 150.586 487.025 152.046 487.022 153.345C487.019 155.146 487.018 156.637 487.018 157.669C487.018 158.666 487.018 159.233 487.018 159.233C487.775 160.968 488.187 162.916 488.342 164.973C488.472 166.706 488.42 168.518 488.234 170.346C488.232 170.371 488.229 170.397 488.226 170.421Z" fill="#D6565A"></path>
<path fill-rule="evenodd" clip-rule="evenodd" d="M483.141 189.182C483.199 188.872 483.28 188.48 483.374 188.052C484.331 185.803 485.53 182.673 486.514 179.121C483.17 179.4 481.523 178.951 480.73 178.527C480.687 181.421 480.466 184.019 480.212 186.114C479.863 187.419 479.222 189.506 478.487 190.381C477.319 191.772 476.031 192.968 474.477 193.755C474.303 193.842 478.367 195.271 480.444 195.053C482.522 194.836 484.238 194.466 484.048 193.181C483.982 192.729 483.865 192.263 483.685 191.853C483.352 191.097 482.968 190.101 483.141 189.182Z" fill="#CF8B64"></path>
<path fill-rule="evenodd" clip-rule="evenodd" d="M488.234 170.345C488.445 167.914 484.291 159.516 484.291 159.516L487.018 157.668C487.018 158.666 487.018 159.232 487.018 159.232C487.775 160.967 488.187 162.915 488.342 164.972C488.472 166.706 488.42 168.518 488.234 170.345Z" fill="#CB4147"></path>
<path fill-rule="evenodd" clip-rule="evenodd" d="M480.283 195.417C478.196 195.307 478.78 195.797 475.883 196.021C472.985 196.243 471.925 195.349 471.758 194.943C471.61 194.583 472.987 194.186 474.459 193.728L474.478 193.755C474.478 193.755 476.409 194.638 478.782 194.248C480.716 193.931 482.651 192.993 483.985 192.762C484.098 193.196 484.212 193.641 484.207 194.099C484.193 195.397 482.369 195.526 480.283 195.417Z" fill="#252428"></path>
<path fill-rule="evenodd" clip-rule="evenodd" d="M487.032 149.022C487.028 150.586 484.295 158.217 484.292 159.515C482.082 156.368 480.169 134.604 477.109 129.097C477.136 127.076 473.287 126.158 473.287 126.158L486.561 128.032L487.18 128.119C487.09 134.231 487.05 142.531 487.032 149.022Z" fill="#CB4147"></path>
<path fill-rule="evenodd" clip-rule="evenodd" d="M495.228 69.2501C496.431 69.9855 496.628 72.4609 496.448 73.2143C496.269 73.9678 494.941 76.21 494.061 76.21C493.728 76.21 493.372 76.0993 493.058 75.9618C493.193 76.3604 493.314 76.7934 493.415 77.2684C494.349 81.661 492.658 84.3178 490.442 85.0855C488.226 85.8532 488.213 85.3406 488.213 85.3406L480.17 74.6852C480.17 74.6852 485.775 67.9545 489.276 71.1121C489.314 70.9785 489.718 69.1008 491 68.586C492.357 68.0416 494.61 68.8721 495.228 69.2501Z" fill="#233862"></path>
<path fill-rule="evenodd" clip-rule="evenodd" d="M476.64 122.898C480.29 111.238 476.29 108.704 476.67 102.869C477.051 97.0337 481.57 90.7609 481.57 90.7609C481.57 90.7609 481.8 90.7376 482.19 90.7023C482.494 90.5427 482.575 89.274 482.571 87.9356C482.567 86.3294 482.444 84.6245 482.444 84.6245L487.864 83.5517L488.186 83.4883C488.173 87.259 489.166 89.7347 489.886 90.311C490.563 90.3886 493.451 90.7519 495.23 91.4955C495.901 91.7752 496.413 92.1092 496.591 92.5011C498.08 95.7724 499.566 104.028 500.61 109.918C501.192 113.199 501.636 115.747 501.868 116.287C502.514 117.794 504.489 126.082 506.176 130.17L504.646 132.05C504.646 132.05 496.914 119.03 496.268 115.964C496.057 114.966 495.541 112.968 494.938 110.729C494.847 110.391 494.753 110.047 494.659 109.7C493.594 112.586 493.05 113.922 493.08 115.169C493.122 116.943 494.326 118.539 496.843 124.18C498.233 127.296 472.914 134.805 476.64 122.898Z" fill="#CF8B64"></path>
<path fill-rule="evenodd" clip-rule="evenodd" d="M488.424 83.8208C488.424 83.8208 490.013 81.3106 490.395 79.1641C490.667 77.6317 489.886 71.9515 484.175 72.7696C484.175 72.7696 482.517 72.9329 480.958 73.9854C479.718 74.8225 477.928 76.6295 479.929 81.5862L480.449 83.2606L488.424 83.8208Z" fill="#233862"></path>
<path fill-rule="evenodd" clip-rule="evenodd" d="M481.434 87.0015C481.434 87.0015 488.61 87.1199 488.615 82.6518C488.62 78.184 489.549 75.1902 484.968 74.9258C480.386 74.6613 479.494 76.3652 479.129 77.8561C478.765 79.3471 479.567 86.8556 481.434 87.0015Z" fill="#CF8B64"></path>
<path fill-rule="evenodd" clip-rule="evenodd" d="M485.019 161.413C485.475 162.267 489.991 167.694 494.527 173.702C494.915 174.215 495.318 174.769 495.731 175.352C498.404 179.114 501.481 184.02 503.32 186.409C504.992 188.58 506.494 185.861 505.651 183.922C504.32 180.862 503.193 175.511 501.904 171.575C501.608 170.664 501.301 169.829 500.982 169.115C499.595 166.014 497.255 161.675 493.968 158.312C493.398 157.728 498.372 144.746 498.016 134.008C497.877 129.753 497.284 126.01 495.927 123.73L482.425 124.399C482.425 124.399 480.578 153.079 485.019 161.413Z" fill="#D6565A"></path>
<path fill-rule="evenodd" clip-rule="evenodd" d="M479.342 75.3718C480.449 74.0303 481.287 74.3219 481.757 74.7249C485.605 72.5916 488.209 75.7583 488.209 75.7583C488.689 78.964 491.002 80.8004 491.002 80.8004C491.002 80.8004 489.694 81.608 486.679 80.833C485.758 80.5965 484.936 79.9438 484.238 79.1513C485.458 81.1942 487.117 82.6659 487.117 82.6659C483.516 81.0017 482.069 75.9946 481.925 75.4651C481.487 75.8584 480.623 76.7125 480.36 77.5499C480.003 78.6876 479.842 81.0297 479.159 80.9501C479.159 80.9501 477.678 77.3873 479.342 75.3718Z" fill="#233862"></path>
<path fill-rule="evenodd" clip-rule="evenodd" d="M506 129.785C506 129.785 506.655 131.328 507.337 131.759C508.019 132.189 508.445 133.088 508.266 133.913C508.086 134.737 508.45 136.172 507.588 136.172C506.727 136.172 504.717 132.369 504.465 131.651C504.214 130.935 503.999 130.79 503.999 130.79L506 129.785Z" fill="#CF8B64"></path>
<path fill-rule="evenodd" clip-rule="evenodd" d="M498.537 129.044C498.56 129.509 498.535 129.88 498.453 130.146C498.165 131.068 497.179 131.489 494.794 131.237C493.336 131.082 492.686 128.589 492.397 126.462C491.521 129.506 490.295 131.213 488.711 131.572C486.398 132.098 473.905 132.98 473.141 127.32C472.302 121.096 475.646 110.639 475.784 104.696C475.442 102.588 475.325 100.76 475.361 99.1881C475.459 94.9549 476.676 92.5822 477.612 91.6267C477.877 91.4191 478.142 91.2894 479.207 91.1031C479.75 91.0086 480.504 90.8992 481.572 90.7557C481.572 90.7557 482.031 90.6956 482.021 90.7119C481.824 91.0719 479.701 94.2623 479.907 95.3122C480.123 96.4112 488.285 96.2527 488.931 95.6484C489.577 95.0442 491.263 90.4863 491.263 90.4863C491.263 90.4863 494.581 90.8564 496.204 92.061C496.204 92.061 496.197 92.0686 496.186 92.0824C496.382 92.2259 496.529 92.3783 496.613 92.5407C498.344 95.9054 500.073 104.397 501.289 110.454C498.342 112.113 495.767 111.618 494.968 111.401C496.012 118.377 498.381 125.867 498.537 129.044Z" fill="white"></path>
<path fill-rule="evenodd" clip-rule="evenodd" d="M495.731 175.348C498.404 179.11 501.481 184.016 503.32 186.405C504.992 188.576 506.494 185.856 505.651 183.918C504.32 180.857 503.193 175.507 501.904 171.57C501.038 172.887 499.271 174.584 495.731 175.348Z" fill="#CF8B64"></path>
<path fill-rule="evenodd" clip-rule="evenodd" d="M504.781 131.318C504.781 131.318 504.387 133.027 504.673 133.563C504.96 134.1 504.767 134.797 505.343 134.6C505.919 134.403 504.781 131.318 504.781 131.318Z" fill="#CF8B64"></path>
<path fill-rule="evenodd" clip-rule="evenodd" d="M508.949 184.826C510.038 185.535 509.167 187.142 507.953 188.842C506.74 190.541 507.466 190.313 506.097 192.875C504.729 195.438 503.404 195.849 502.972 195.773C502.589 195.704 502.994 194.33 503.398 192.843C503.45 192.657 503.499 192.469 503.549 192.28C503.989 190.595 503.423 189.007 503.155 187.21C502.901 185.508 500.442 182.138 500.442 182.138L502.203 178.578C502.203 178.578 504.363 181.678 505.34 182.932C505.914 183.672 506.915 184.044 507.702 184.295C508.13 184.432 508.566 184.575 508.949 184.826Z" fill="#CF8B64"></path>
<path fill-rule="evenodd" clip-rule="evenodd" d="M507.953 188.842C506.74 190.541 507.466 190.312 506.097 192.874C504.729 195.438 503.404 195.849 502.972 195.773C502.589 195.703 502.994 194.33 503.398 192.843L503.431 192.841C503.431 192.841 505.214 191.689 506.16 189.479C506.931 187.677 507.18 185.542 507.702 184.295C508.13 184.432 508.566 184.574 508.949 184.825C510.038 185.534 509.167 187.142 507.953 188.842Z" fill="#252428"></path>
<path fill-rule="evenodd" clip-rule="evenodd" d="M478.553 91.2344C478.553 91.2344 476.391 91.2245 474.88 94.1291C473.37 97.0335 471.095 106.477 471.095 106.477C471.095 106.477 473.748 109.434 476.857 108.759C479.966 108.083 478.553 91.2344 478.553 91.2344Z" fill="white"></path>
<path fill-rule="evenodd" clip-rule="evenodd" d="M527.347 149.367L522.258 151.242L522.586 153.128L528.135 150.51L527.347 149.367Z" fill="white"></path>
<path fill-rule="evenodd" clip-rule="evenodd" d="M522.283 149.885L522.107 150.114L522.259 151.242L520.93 152.388L521.431 149.969L522.283 149.885Z" fill="white"></path>
<path fill-rule="evenodd" clip-rule="evenodd" d="M886.029 75.4102L886.014 75.4188L886.029 75.4102Z" fill="#FFB27D"></path>
<path fill-rule="evenodd" clip-rule="evenodd" d="M891.623 58.7271C891.71 58.5328 891.772 58.4062 891.772 58.4062C891.707 58.4961 891.658 58.6049 891.623 58.7271Z" fill="#D35C2B"></path>
<path fill-rule="evenodd" clip-rule="evenodd" d="M922.852 124.882C925.999 124.882 928.699 123.028 930.876 119.37C932.518 116.613 933.877 112.799 934.916 108.033C936.666 100.009 936.921 91.8794 936.923 91.7983C936.939 91.235 936.497 90.765 935.933 90.7485C935.368 90.7324 934.902 91.1751 934.885 91.7383C934.883 91.8179 934.631 99.7817 932.918 107.622C931.403 114.565 928.426 122.842 922.852 122.842C922.288 122.842 921.832 123.299 921.832 123.863C921.832 124.426 922.288 124.882 922.852 124.882Z" fill="#7A3909"></path>
<path fill-rule="evenodd" clip-rule="evenodd" d="M922.755 148.021C922.809 148.021 922.863 148.02 922.913 148.017C923.475 147.982 923.903 147.498 923.867 146.935C923.833 146.374 923.349 145.946 922.788 145.98C922.658 145.987 922.449 145.965 922.139 145.667C920.867 144.447 918.596 139.397 917.681 119.274C917.152 107.672 917.348 96.6225 917.351 96.5123C917.361 95.9488 916.913 95.4836 916.35 95.4729C915.786 95.4606 915.322 95.911 915.312 96.4744C915.31 96.5854 915.113 107.7 915.644 119.367C915.956 126.234 916.457 131.953 917.131 136.365C918.014 142.142 919.19 145.666 920.728 147.141C921.472 147.854 922.216 148.021 922.755 148.021Z" fill="#7A3909"></path>
<path fill-rule="evenodd" clip-rule="evenodd" d="M886.085 138.156C888.978 138.156 891.425 137.125 893.358 135.091C898.764 129.401 898.245 117.78 898.22 117.288C898.192 116.725 897.714 116.29 897.15 116.32C896.588 116.348 896.156 116.827 896.184 117.39C896.19 117.511 896.68 128.638 891.878 133.688C890.324 135.322 888.429 136.115 886.085 136.115C885.523 136.115 885.066 136.572 885.066 137.136C885.066 137.7 885.523 138.156 886.085 138.156Z" fill="#7A3909"></path>
<path fill-rule="evenodd" clip-rule="evenodd" d="M956.828 196.672L956.233 132.799C956.233 132.799 955.718 128.199 951.708 128.199C947.429 128.199 947.183 132.799 947.183 132.799C947.183 132.799 947.245 133.197 947.685 133.197C948.145 133.197 948.22 132.799 948.22 132.799C948.22 132.799 948.41 129.253 951.708 129.253C954.801 129.253 955.196 132.799 955.196 132.799V196.672H956.828Z" fill="#233862"></path>
<path fill-rule="evenodd" clip-rule="evenodd" d="M954.646 196.671H957.307L957.069 193.886C957.069 193.886 957.092 193.5 956.554 193.477C956.055 193.457 955.068 193.385 954.974 193.688C954.892 193.954 954.646 196.671 954.646 196.671Z" fill="#233862"></path>
<path fill-rule="evenodd" clip-rule="evenodd" d="M951.983 124.814L952.165 125.728C952.165 125.728 956.678 125.711 957.733 130.55C957.733 130.55 958.019 132.564 956.568 132.134C955.117 131.704 955.343 130.677 953.289 130.113C951.234 129.551 949.896 129.119 949.585 127.623L949.248 125.958L951.983 124.814Z" fill="#FFCFB9"></path>
<path fill-rule="evenodd" clip-rule="evenodd" d="M936.028 85.2109C936.028 85.2109 937.222 89.9108 938.252 94.2079C938.666 95.9388 939.054 97.6035 939.327 98.8695C939.605 100.171 939.765 101.051 939.703 101.149C938.808 102.603 940.443 111.47 941.736 114.689C941.85 114.975 942.009 115.309 942.198 115.681C944.005 119.229 948.821 126.194 948.821 126.194C948.821 126.194 950.18 126.337 951.069 126.002C951.81 125.72 952.316 124.814 952.316 124.814C951.885 124.119 950.143 115.925 947.901 111.331C946.942 109.365 945.529 91.1292 943.671 88.674C942.121 86.6259 936.028 85.2109 936.028 85.2109Z" fill="#FFCC73"></path>
<path fill-rule="evenodd" clip-rule="evenodd" d="M939.701 101.149C938.806 102.603 940.442 111.469 941.735 114.689C941.849 114.975 942.007 115.309 942.196 115.681C943.924 108.028 941.06 97.1875 941.06 97.1875C940.344 97.4708 939.763 101.051 939.701 101.149Z" fill="#EBB352"></path>
<path fill-rule="evenodd" clip-rule="evenodd" d="M927.175 189.636C927.175 189.636 926.717 196.562 928.023 196.658C928.196 196.672 934.651 196.672 934.651 196.672H942.977C942.977 196.672 942.838 194.638 940.428 194.217C938.021 193.797 933.989 192.103 932.53 188.918C930.995 185.566 927.175 189.636 927.175 189.636Z" fill="#0F2949"></path>
<path fill-rule="evenodd" clip-rule="evenodd" d="M914.656 189.636C914.656 189.636 914.196 196.562 915.503 196.658C915.677 196.672 922.132 196.672 922.132 196.672H930.457C930.457 196.672 930.317 194.638 927.909 194.217C925.5 193.797 921.47 192.103 920.01 188.918C918.476 185.566 914.656 189.636 914.656 189.636Z" fill="#163560"></path>
<path fill-rule="evenodd" clip-rule="evenodd" d="M926.783 172.942C926.577 175.872 926.16 179.638 926.308 183.032C926.516 187.778 926.667 191.782 926.667 191.782C929.794 192.845 935.531 191.555 935.531 191.555C935.531 191.555 937.567 179.559 939.243 169.984C939.995 165.693 940.619 161.982 940.852 160.228C941.607 154.563 940.05 124.443 940.05 124.443C940.05 124.443 931.588 119.015 928.092 121.813C924.597 124.611 922.446 127.345 928.078 157.995C928.505 160.32 927.241 166.383 926.783 172.942Z" fill="#45A698"></path>
<path fill-rule="evenodd" clip-rule="evenodd" d="M926.783 176.663C926.577 179.593 926.2 184.279 926.349 187.674C929.29 184.558 935.088 177.984 939.243 173.705C939.995 169.413 940.619 165.702 940.852 163.949C941.607 158.284 940.05 128.164 940.05 128.164C940.05 128.164 931.588 122.736 928.092 125.534C924.597 128.331 922.446 131.066 928.078 161.715C928.505 164.041 927.241 170.103 926.783 176.663Z" fill="#2E8F81"></path>
<path fill-rule="evenodd" clip-rule="evenodd" d="M932.402 124.887C932.402 124.887 931.642 155.039 930.454 160.63C929.268 166.22 923.07 191.812 923.07 191.812C923.07 191.812 917.262 192.341 914.225 191.04C914.225 191.04 914.419 179.187 915.45 172.223C916.411 165.718 918.137 159.771 917.89 157.42C914.627 126.427 916.983 123.867 920.683 121.346C924.382 118.825 932.402 124.887 932.402 124.887Z" fill="#45A698"></path>
<path fill-rule="evenodd" clip-rule="evenodd" d="M937.885 78.3791C937.885 78.3791 935.561 81.9128 936.025 85.2106L932.588 93.4996L926.385 84.0106C926.385 84.0106 929.662 80.4416 930.885 75.5762L937.885 78.3791Z" fill="#FFCFB9"></path>
<path fill-rule="evenodd" clip-rule="evenodd" d="M938.906 81.3936C938.906 81.3936 930.447 81.7601 930.293 76.6777C930.139 71.5953 927.853 68.2143 934.181 67.7676C939.384 67.4003 941.113 69.5719 941.577 71.2557C942.04 72.9397 942.042 81.1211 938.906 81.3936Z" fill="#FFCFB9"></path>
<path fill-rule="evenodd" clip-rule="evenodd" d="M918.195 126.507C920.012 126.676 922.514 126.887 925.55 127.077C926.156 127.115 926.784 127.153 927.432 127.189C936.597 127.703 940.241 126.217 940.241 126.217C940.241 126.217 940.485 126.021 940.408 124.943C940.01 119.396 938.832 117.757 938.974 116.703C939.293 114.333 945.037 94.9964 945.037 94.9964C945.037 94.9964 945.149 88.888 938.36 86.0212C937.66 85.7248 936.889 85.4642 936.035 85.2481C935.738 86.0386 934.924 87.3591 932.839 87.1158C929.758 86.7564 927.564 84.9385 926.623 84.0059C926.452 84.0059 926.386 84.0112 926.386 84.0112C926.155 84.6605 925.976 85.3383 925.816 86.0267C925.26 88.4276 924.935 90.9535 923.462 92.842C922.01 94.7063 920.765 96.5448 919.704 98.3431C918.821 99.8395 918.064 101.309 917.416 102.74C911.407 116.032 916.055 126.306 918.195 126.507Z" fill="#FFCC73"></path>
<path fill-rule="evenodd" clip-rule="evenodd" d="M918.195 126.509C920.012 126.678 922.514 126.888 925.551 127.078C926.436 112.146 920.356 97.8047 920.356 97.8047C920.126 97.9654 919.91 98.1457 919.704 98.3443C918.645 99.3738 917.909 100.902 917.417 102.741C915.605 109.512 917.122 120.513 918.195 126.509Z" fill="#EBB352"></path>
<path fill-rule="evenodd" clip-rule="evenodd" d="M941.633 76.5458C941.633 76.5458 943.28 83.0843 940.486 84.0053C937.691 84.926 930.272 84.1883 930.274 76.1719C930.274 76.1719 934.168 78.4958 936.028 78.437C937.888 78.3783 939.088 77.3043 940.807 78.1433C940.807 78.1433 941.436 78.1015 941.633 76.5458Z" fill="#F5F9FF"></path>
<path fill-rule="evenodd" clip-rule="evenodd" d="M930.688 69.3486C930.831 68.8297 931.469 68.5572 931.469 68.5572C936.234 66.4804 939.715 68.7527 939.715 68.7527C936.795 64.8297 929.747 65.6533 928.262 69.1918C925.839 74.9693 930.272 76.1724 930.272 76.1724C930.272 76.1724 934.699 74.3107 932.136 71.9765C931.286 71.2031 930.875 70.5155 930.739 69.9172C930.694 69.7177 930.679 69.5281 930.688 69.3486Z" fill="#F5F9FF"></path>
<path fill-rule="evenodd" clip-rule="evenodd" d="M938.238 79.6574C938.238 79.6574 938.393 80.2129 939.784 80.0674C939.784 80.0674 940.951 79.9458 940.89 79.3308C940.89 79.3308 939.736 78.9401 938.238 79.6574Z" fill="#FFB492"></path>
<path fill-rule="evenodd" clip-rule="evenodd" d="M903.332 96.082C903.332 96.082 901.792 99.9581 901.926 105.07C902.029 108.987 905.598 121.068 906.691 122.819C907.737 124.492 915.299 130.582 917.164 131.163C917.294 131.202 917.427 131.136 917.512 130.988L919.188 128.159C919.343 127.892 919.317 127.484 919.131 127.265L912.093 118.699L909.864 104.951C909.123 100.381 906.64 96.8578 903.537 96.1266C903.469 96.1108 903.4 96.0959 903.332 96.082Z" fill="#BF343A"></path>
<path fill-rule="evenodd" clip-rule="evenodd" d="M905.084 172.561L900.12 193.282C900.12 193.282 897.739 194.016 895.266 193.282C895.266 193.282 894.349 189.442 894.323 184.653C894.309 182.149 894.54 179.382 895.271 176.773C895.568 175.709 895.949 174.674 896.429 173.691C900.351 165.673 905.084 172.561 905.084 172.561Z" fill="#FFCFB9"></path>
<path fill-rule="evenodd" clip-rule="evenodd" d="M907.389 196.671H894.322C894.322 196.671 894.117 194.693 894.692 192.799C894.776 192.518 894.88 192.239 895.002 191.969C895.002 191.969 897.919 192.63 900.435 191.969C900.435 191.969 902.799 193.984 904.228 194.602C905.657 195.221 907.237 194.884 907.389 196.671Z" fill="#282828"></path>
<path fill-rule="evenodd" clip-rule="evenodd" d="M903.736 178.192L902.901 181.678C901.481 182.584 898.415 184.227 894.325 184.652C894.31 182.148 894.541 179.381 895.272 176.772C896.473 176.161 897.696 175.841 898.739 176.023C901.331 176.477 902.872 177.425 903.736 178.192Z" fill="#FFB492"></path>
<path fill-rule="evenodd" clip-rule="evenodd" d="M900.604 196.672H894.324C894.324 196.672 894.118 194.694 894.693 192.801C896.269 193.292 899.477 194.524 900.604 196.672Z" fill="#282828"></path>
<path fill-rule="evenodd" clip-rule="evenodd" d="M893.957 172.561L888.993 193.282C888.993 193.282 886.612 194.016 884.139 193.282C884.139 193.282 883.223 189.442 883.196 184.653C883.182 182.149 883.413 179.382 884.144 176.773C884.441 175.709 884.822 174.674 885.302 173.691C889.224 165.673 893.957 172.561 893.957 172.561Z" fill="#FFCFB9"></path>
<path fill-rule="evenodd" clip-rule="evenodd" d="M883.874 191.969C883.874 191.969 886.791 192.631 889.306 191.969C889.306 191.969 891.671 193.985 893.101 194.603C894.531 195.222 896.11 194.885 896.26 196.672H883.195C883.195 196.672 882.922 194.062 883.874 191.969Z" fill="#282828"></path>
<path fill-rule="evenodd" clip-rule="evenodd" d="M892.606 178.192L891.771 181.678C890.351 182.584 887.286 184.227 883.195 184.652C883.181 182.148 883.411 179.381 884.142 176.772C885.344 176.161 886.567 175.841 887.608 176.023C890.201 176.477 891.743 177.425 892.606 178.192Z" fill="#FFB492"></path>
<path fill-rule="evenodd" clip-rule="evenodd" d="M907.811 177.821C907.497 178.982 906.443 179.788 905.24 179.788H884.29C882.713 179.788 881.471 178.447 881.591 176.873C881.811 174.017 881.824 169.908 882.167 166.758C882.31 165.448 882.022 162.957 881.94 162.411C879.826 148.407 879.176 132.804 879.391 129.652C879.422 129.209 879.443 128.979 879.443 128.979C879.443 128.979 880.968 128.851 883.289 128.76C890.036 128.494 903.503 128.539 905.741 132.955C908.02 137.453 909.397 167.317 909.397 167.317C909.73 170.107 908.552 175.071 907.811 177.821Z" fill="#306ECA"></path>
<path fill-rule="evenodd" clip-rule="evenodd" d="M882.154 166.905C882.296 165.595 882 162.857 881.918 162.31C879.804 148.308 879.177 132.804 879.393 129.652C879.424 129.208 879.445 128.979 879.445 128.979C879.445 128.979 880.97 128.85 883.291 128.76C886.782 130.816 889.053 134.322 889.053 134.322C889.053 134.322 887.561 161.228 882.154 166.905Z" fill="#003B94"></path>
<path fill-rule="evenodd" clip-rule="evenodd" d="M895.949 71.2992C894.275 70.8804 893.303 72.2001 893.303 73.7539C893.303 75.308 894.562 76.5676 896.115 76.5676C897.667 76.5676 898.926 74.7674 898.926 73.2133C898.926 71.6594 897.456 71.6759 895.949 71.2992Z" fill="#F5F9FF"></path>
<path fill-rule="evenodd" clip-rule="evenodd" d="M895.083 87.4121C895.083 87.4121 886.366 79.5543 894.257 73.9912C894.257 73.9912 896.613 73.363 897.81 73.5875C897.81 73.5875 902.1 72.3312 904.61 75.2474C907.121 78.1636 908.212 80.2721 906.06 82.8741C903.908 85.4763 895.083 87.4121 895.083 87.4121Z" fill="#F5F9FF"></path>
<path fill-rule="evenodd" clip-rule="evenodd" d="M885.083 134.871C885.083 134.871 887.235 139.193 883.098 142.496C883.098 142.496 881.305 143.724 881.029 142.129C880.754 140.532 881.072 141.088 880.639 138.85C880.205 136.613 880.759 134.298 882.046 133.291L885.083 134.871Z" fill="#FFCFB9"></path>
<path fill-rule="evenodd" clip-rule="evenodd" d="M919.217 127.678C919.217 127.678 921.786 128.424 921.68 133.718C921.68 133.718 921.531 135.881 920.599 135.059C919.666 134.236 920.437 133.207 919.028 132.92C917.52 132.612 917.543 131.691 917.165 131.163L919.217 127.678Z" fill="#FFB492"></path>
<path fill-rule="evenodd" clip-rule="evenodd" d="M902.225 87.3382C902.225 87.3382 902.118 88.5149 901.918 90.1049C901.821 90.8817 901.702 91.758 901.563 92.6435C901.463 93.2792 901.352 93.9208 901.232 94.5338L898.533 103.657L892.195 93.3923C892.195 93.3923 893.684 92.159 895.703 85.4749C895.722 85.4038 895.735 85.3652 895.735 85.3652L902.225 87.3382Z" fill="#FFCFB9"></path>
<path fill-rule="evenodd" clip-rule="evenodd" d="M905.922 132.348C906.004 133.373 905.744 133.559 905.744 133.559C905.744 133.559 901.847 134.973 892.046 134.484C890.985 134.43 889.987 134.377 889.054 134.321C882.737 133.949 879.359 133.559 879.359 133.559C879.359 133.559 874.185 121.608 883.905 106.884C885.003 105.219 886.294 103.519 887.802 101.796C889.376 99.9997 889.724 97.5956 890.319 95.311C890.489 94.6562 889.997 94.5116 890.243 93.8938C890.243 93.8938 892.015 93.3926 892.198 93.3926C893.205 94.2799 894.533 96.0055 897.828 96.3465C900.057 96.5793 900.929 95.3224 901.246 94.5692C902.096 94.8763 902.977 95.4071 903.697 95.7536C903.791 95.7985 903.883 95.8439 903.973 95.89C908.379 98.1302 910.492 103.257 909.07 107.993C907.442 113.422 904.63 122.911 904.389 124.504C904.237 125.507 905.497 127.067 905.922 132.348Z" fill="#D6565A"></path>
<path fill-rule="evenodd" clip-rule="evenodd" d="M901.92 90.1049C901.823 90.8817 901.494 93.0082 901.354 93.8935C894.643 91.2748 895.522 86.1716 895.705 85.4749C895.724 85.4038 895.737 85.3652 895.737 85.3652C895.737 85.3652 899.289 87.8882 901.92 90.1049Z" fill="#FFB492"></path>
<path fill-rule="evenodd" clip-rule="evenodd" d="M903.357 91.0083C903.357 91.0083 895.606 91.2571 895.525 86.4237C895.444 81.5901 894.39 78.3669 899.336 78.0037C904.282 77.6403 905.275 79.4686 905.694 81.0754C906.112 82.6822 905.372 90.819 903.357 91.0083Z" fill="#FFCFB9"></path>
<path fill-rule="evenodd" clip-rule="evenodd" d="M901.396 88.3391C901.396 88.3391 901.552 88.8946 902.942 88.7491C902.942 88.7491 904.109 88.6274 904.049 88.0125C904.049 88.0125 902.895 87.6217 901.396 88.3391Z" fill="white"></path>
<path fill-rule="evenodd" clip-rule="evenodd" d="M904.035 77.2795C904.035 77.2795 903.549 85.3495 894.098 84.4836C894.098 84.4836 894.299 73.3076 904.035 77.2795Z" fill="#F5F9FF"></path>
<path fill-rule="evenodd" clip-rule="evenodd" d="M902.228 78.082C902.228 78.082 904.607 82.1031 905.809 83.1494C905.809 83.1494 909.023 78.1785 902.228 78.082Z" fill="#F5F9FF"></path>
<path fill-rule="evenodd" clip-rule="evenodd" d="M889.053 134.322C882.736 133.95 879.358 133.56 879.358 133.56C879.358 133.56 874.185 121.609 883.904 106.885C885.871 111.475 890.512 123.743 889.053 134.322Z" fill="#BF343A"></path>
<path fill-rule="evenodd" clip-rule="evenodd" d="M892.198 93.3926C892.198 93.3926 884.698 94.9324 881.357 98.8042C878.797 101.771 875.997 116.276 875.997 118.673C875.997 120.962 878.627 133.14 880.27 135.475C880.384 135.636 880.574 135.726 880.771 135.705L884.994 135.257C885.347 135.22 885.597 134.895 885.542 134.545L883.17 119.152L891.499 104.368C891.499 104.368 896.41 98.5419 892.198 93.3926Z" fill="#D6565A"></path>
<path fill-rule="evenodd" clip-rule="evenodd" d="M920.92 127.694C920.92 127.694 922.932 131.736 919.064 134.825C919.064 134.825 917.387 135.973 917.129 134.481C916.872 132.988 917.169 133.508 916.764 131.416C916.359 129.324 916.877 127.159 918.08 126.217L920.92 127.694Z" fill="#FFCFB9"></path>
<path fill-rule="evenodd" clip-rule="evenodd" d="M926.388 84.0117C926.388 84.0117 920.475 84.1448 917.35 88.2132C914.957 91.3306 912.425 108.058 912.425 110.576C912.425 113.095 915.121 126.994 916.63 128.505C916.63 128.505 917.606 128.757 918.91 128.505C920.293 128.237 921.108 127.436 921.108 127.436C921.108 127.436 920.357 111.962 920.357 110.51C920.357 108.408 926.923 95.5446 926.923 95.5446C926.923 95.5446 930.328 89.4226 926.388 84.0117Z" fill="#FFCC73"></path>
</svg>